%
M48
M72
T01C0.0240
T02C0.0320
T03C0.0354
T04C0.0400
T05C0.0433
T06C0.0440
T07C0.0472
T08C0.0520
T09C0.1260
%
T01
X6189Y26187
T02
X5689Y24687
X7189Y23687
X7189Y22687
X7189Y21687
X7189Y20687
X7189Y19687
X7189Y18687
X7189Y17687
X7189Y16687
X10189Y16687
X10189Y17687
X10189Y18687
X10189Y19687
X10189Y20687
X10189Y21687
X10189Y22687
X10189Y23687
X11189Y24687
X13189Y24687
X15189Y23687
X15189Y22687
X15189Y21687
X15189Y20687
X15189Y19687
X15189Y18687
X15189Y17687
X15189Y16687
X18189Y16687
X18189Y17687
X18189Y18687
X18189Y19687
X18189Y20687
X18189Y21687
X18189Y22687
X18189Y23687
X18439Y27937
X17439Y27937
X16439Y27937
X15439Y27937
X14439Y27937
X14439Y30937
X15439Y30937
X16439Y30937
X17439Y30937
X18439Y30937
X19439Y30937
X20439Y30937
X21439Y30937
X22439Y30937
X22939Y32187
X23439Y30937
X24439Y30937
X25439Y30937
X26439Y30937
X27439Y30937
X28939Y28187
X27439Y27937
X26439Y27937
X25439Y27937
X24439Y27937
X23439Y27937
X22439Y27937
X21439Y27937
X20439Y27937
X19439Y27937
X21689Y22687
X23189Y22687
X23189Y23687
X23189Y21687
X23189Y20687
X23189Y19687
X23189Y18687
X23189Y17687
X23189Y16687
X21689Y20687
X26189Y20687
X26189Y21687
X26189Y22687
X26189Y23687
X26189Y19687
X26189Y18687
X26189Y17687
X26189Y16687
X28939Y24187
X30689Y25437
X31189Y23687
X31189Y22687
X31189Y21687
X31189Y20687
X31189Y19687
X31189Y18687
X31189Y17687
X31189Y16687
X34189Y16687
X34189Y17687
X34189Y18687
X34189Y19687
X34189Y20687
X34189Y21687
X34189Y22687
X34189Y23687
X33689Y24687
X34939Y24687
X35689Y21687
X35689Y19687
X30689Y27437
X30689Y31187
X30689Y33187
X30689Y35187
X30689Y37687
X30189Y40437
X31189Y40437
X32189Y40437
X33189Y40437
X34189Y40437
X35189Y40437
X36189Y40437
X36189Y43437
X35189Y43437
X34189Y43437
X33189Y43437
X32189Y43437
X31189Y43437
X30189Y43437
X29189Y43437
X28189Y43437
X27189Y43437
X26189Y43437
X25189Y43437
X24189Y43437
X23189Y43437
X20939Y42937
X20939Y44187
X20939Y41437
X23189Y40437
X24189Y40437
X25189Y40437
X26189Y40437
X27189Y40437
X28189Y40437
X29189Y40437
X27439Y38437
X23439Y38437
X22939Y34187
X16939Y41437
X16939Y42937
X16939Y44187
X17189Y48687
X16189Y48687
X15189Y48687
X14189Y48687
X13189Y48687
X12189Y48687
X11189Y48687
X9439Y49687
X9439Y50687
X11189Y51687
X12189Y51687
X13189Y51687
X14189Y51687
X15189Y51687
X16189Y51687
X17189Y51687
X16689Y54437
X15689Y54437
X14689Y54437
X13689Y54437
X11939Y56437
X10939Y56437
X13689Y57437
X14689Y57437
X15689Y57437
X16689Y57437
X17689Y57437
X18689Y57437
X19689Y57437
X19689Y54437
X18689Y54437
X17689Y54437
X19939Y52437
X19939Y48437
X24439Y56687
X25439Y56687
X26689Y57437
X27689Y57437
X28689Y57437
X29689Y57437
X30689Y57437
X31689Y57437
X32689Y57437
X33689Y57437
X34689Y57437
X35689Y57437
X37939Y56187
X35689Y54437
X34689Y54437
X33689Y54437
X32689Y54437
X31689Y54437
X30689Y54437
X29689Y54437
X28689Y54437
X27689Y54437
X26689Y54437
X27189Y52187
X25939Y52187
X28439Y52187
X29689Y52187
X30939Y52187
X32189Y52187
X33439Y52187
X34689Y52187
X34689Y48187
X34189Y46937
X33439Y48187
X32189Y48187
X30939Y48187
X29689Y48187
X28439Y48187
X27189Y48187
X25939Y48187
X32689Y37687
X32689Y35187
X32689Y33187
X32689Y31187
X33689Y28687
X34939Y28687
X38439Y43437
X38439Y45437
X38189Y46937
X38189Y49187
X38189Y50187
X37939Y60187
X16439Y36937
X12939Y34937
X12439Y35687
X11939Y34937
X12439Y36937
X7189Y38937
X5189Y38937
X5189Y42937
X7189Y42937
X6689Y51187
X5689Y51187
X4689Y53187
X4689Y54187
X4689Y55187
X4689Y56187
X4689Y57187
X4689Y58187
X4689Y59187
X7689Y59187
X7689Y58187
X7689Y57187
X7689Y56187
X7689Y55187
X7689Y54187
X7689Y53187
X3689Y24687
X2689Y22187
X2689Y18187
X2689Y15687
X3689Y15687
T03
X12134Y61293
X12134Y62081
X12922Y62081
X12922Y61293
X13709Y61293
X13709Y62081
X14496Y62081
X14496Y61293
X15284Y61293
X16071Y61293
X16071Y62081
X15284Y62081
X16859Y62081
X16859Y61293
X17646Y61293
X17646Y62081
X18433Y62081
X18433Y61293
X19221Y61293
X19221Y62081
X20008Y62081
X20008Y61293
X20796Y61293
X21583Y61293
X21583Y62081
X20796Y62081
X22370Y62081
X22370Y61293
X23158Y61293
X23158Y62081
X23945Y62081
X23945Y61293
X24733Y61293
X24733Y62081
X25520Y62081
X25520Y61293
X26307Y61293
X26307Y62081
X27095Y62081
X27095Y61293
X27882Y61293
X27882Y62081
X28670Y62081
X28670Y61293
X29457Y61293
X29457Y62081
X30244Y62081
X30244Y61293
T04
X31689Y61437
X32689Y61437
X23939Y51687
X22189Y51687
X22189Y49187
X21939Y46687
X20939Y46687
X19939Y46687
X22939Y46687
X23939Y46687
X23939Y49187
X23689Y36437
X22689Y36437
X21689Y36437
X20689Y36437
X19689Y36437
X18689Y36437
X24689Y36437
X25689Y36437
X26689Y36437
X38439Y22937
X38439Y21937
X38439Y20937
X9189Y26937
X9189Y28937
X9189Y30937
X9189Y33937
X6189Y33937
X6189Y30937
X6189Y28937
X6189Y26937
X2689Y12187
X2689Y11187
X2689Y10187
T05
X5189Y10687
X5189Y8687
X5189Y6687
X8189Y6687
X9189Y7687
X8189Y8687
X9189Y9687
X8189Y10687
X9189Y11687
X8189Y12687
X9189Y13687
X12189Y13687
X13189Y12687
X12189Y11687
X13189Y10687
X12189Y9687
X13189Y8687
X12189Y7687
X13189Y6687
X16189Y6687
X17189Y7687
X16189Y8687
X17189Y9687
X16189Y10687
X17189Y11687
X16189Y12687
X17189Y13687
X20189Y13687
X21189Y12687
X20189Y11687
X21189Y10687
X20189Y9687
X21189Y8687
X20189Y7687
X21189Y6687
X24189Y6687
X25189Y7687
X24189Y8687
X25189Y9687
X24189Y10687
X25189Y11687
X24189Y12687
X25189Y13687
X28189Y13687
X29189Y12687
X28189Y11687
X29189Y10687
X28189Y9687
X29189Y8687
X28189Y7687
X29189Y6687
X32189Y6687
X33189Y7687
X32189Y8687
X33189Y9687
X32189Y10687
X33189Y11687
X32189Y12687
X33189Y13687
X36189Y13687
X36189Y11687
X36189Y9687
X36189Y7687
X5189Y12687
T06
X5689Y35937
X9689Y35937
T07
X2689Y34937
X2689Y32937
X2689Y30937
X2689Y28937
X2689Y26937
X2689Y36937
X2689Y38937
X2689Y40937
X2689Y42937
X2689Y44937
X2689Y46937
X5689Y3687
X7689Y3687
X9689Y3687
X11689Y3687
X13689Y3687
X15689Y3687
X17689Y3687
X19689Y3687
X21689Y3687
X23689Y3687
X25689Y3687
X27689Y3687
X29689Y3687
X31689Y3687
X33689Y3687
X35689Y3687
X38689Y7187
X38689Y9187
X38689Y11187
X38689Y13187
X38689Y15187
X38689Y17187
X38689Y26437
X38689Y28437
X38689Y30437
X38689Y32437
X38689Y34437
X38689Y36437
X38689Y38437
T08
X11439Y42687
X9439Y42687
X10439Y38687
T09
X3189Y4187
X38189Y4187
X38189Y63187
X3189Y63187
M30
