G75*
G70*
%OFA0B0*%
%FSLAX24Y24*%
%IPPOS*%
%LPD*%
%AMOC8*
5,1,8,0,0,1.08239X$1,22.5*
%
%ADD10C,0.1340*%
%ADD11C,0.0600*%
%ADD12C,0.0634*%
%ADD13OC8,0.0600*%
%ADD14C,0.0680*%
%ADD15R,0.0600X0.0600*%
%ADD16C,0.0600*%
%ADD17R,0.0740X0.0740*%
%ADD18C,0.0740*%
%ADD19C,0.0789*%
%ADD20C,0.0749*%
%ADD21C,0.0680*%
%ADD22R,0.0680X0.0680*%
%ADD23C,0.0860*%
%ADD24C,0.0480*%
D10*
X003189Y004187D03*
X038189Y004187D03*
X038189Y063187D03*
X003189Y063187D03*
D11*
X004429Y059187D02*
X004949Y059187D01*
X004949Y058187D02*
X004429Y058187D01*
X004429Y057187D02*
X004949Y057187D01*
X004949Y056187D02*
X004429Y056187D01*
X004429Y055187D02*
X004949Y055187D01*
X004949Y054187D02*
X004429Y054187D01*
X004429Y053187D02*
X004949Y053187D01*
X007429Y053187D02*
X007949Y053187D01*
X007949Y054187D02*
X007429Y054187D01*
X007429Y055187D02*
X007949Y055187D01*
X007949Y056187D02*
X007429Y056187D01*
X007429Y057187D02*
X007949Y057187D01*
X007949Y058187D02*
X007429Y058187D01*
X007429Y059187D02*
X007949Y059187D01*
X011189Y051947D02*
X011189Y051427D01*
X012189Y051427D02*
X012189Y051947D01*
X013189Y051947D02*
X013189Y051427D01*
X014189Y051427D02*
X014189Y051947D01*
X015189Y051947D02*
X015189Y051427D01*
X016189Y051427D02*
X016189Y051947D01*
X017189Y051947D02*
X017189Y051427D01*
X017189Y048947D02*
X017189Y048427D01*
X016189Y048427D02*
X016189Y048947D01*
X015189Y048947D02*
X015189Y048427D01*
X014189Y048427D02*
X014189Y048947D01*
X013189Y048947D02*
X013189Y048427D01*
X012189Y048427D02*
X012189Y048947D01*
X011189Y048947D02*
X011189Y048427D01*
X013689Y054177D02*
X013689Y054697D01*
X014689Y054697D02*
X014689Y054177D01*
X015689Y054177D02*
X015689Y054697D01*
X016689Y054697D02*
X016689Y054177D01*
X017689Y054177D02*
X017689Y054697D01*
X018689Y054697D02*
X018689Y054177D01*
X019689Y054177D02*
X019689Y054697D01*
X019689Y057177D02*
X019689Y057697D01*
X018689Y057697D02*
X018689Y057177D01*
X017689Y057177D02*
X017689Y057697D01*
X016689Y057697D02*
X016689Y057177D01*
X015689Y057177D02*
X015689Y057697D01*
X014689Y057697D02*
X014689Y057177D01*
X013689Y057177D02*
X013689Y057697D01*
X026689Y057697D02*
X026689Y057177D01*
X027689Y057177D02*
X027689Y057697D01*
X028689Y057697D02*
X028689Y057177D01*
X029689Y057177D02*
X029689Y057697D01*
X030689Y057697D02*
X030689Y057177D01*
X031689Y057177D02*
X031689Y057697D01*
X032689Y057697D02*
X032689Y057177D01*
X033689Y057177D02*
X033689Y057697D01*
X034689Y057697D02*
X034689Y057177D01*
X035689Y057177D02*
X035689Y057697D01*
X035689Y054697D02*
X035689Y054177D01*
X034689Y054177D02*
X034689Y054697D01*
X033689Y054697D02*
X033689Y054177D01*
X032689Y054177D02*
X032689Y054697D01*
X031689Y054697D02*
X031689Y054177D01*
X030689Y054177D02*
X030689Y054697D01*
X029689Y054697D02*
X029689Y054177D01*
X028689Y054177D02*
X028689Y054697D01*
X027689Y054697D02*
X027689Y054177D01*
X026689Y054177D02*
X026689Y054697D01*
X026439Y031197D02*
X026439Y030677D01*
X025439Y030677D02*
X025439Y031197D01*
X024439Y031197D02*
X024439Y030677D01*
X023439Y030677D02*
X023439Y031197D01*
X022439Y031197D02*
X022439Y030677D01*
X021439Y030677D02*
X021439Y031197D01*
X020439Y031197D02*
X020439Y030677D01*
X019439Y030677D02*
X019439Y031197D01*
X018439Y031197D02*
X018439Y030677D01*
X017439Y030677D02*
X017439Y031197D01*
X016439Y031197D02*
X016439Y030677D01*
X015439Y030677D02*
X015439Y031197D01*
X014439Y031197D02*
X014439Y030677D01*
X014439Y028197D02*
X014439Y027677D01*
X015439Y027677D02*
X015439Y028197D01*
X016439Y028197D02*
X016439Y027677D01*
X017439Y027677D02*
X017439Y028197D01*
X018439Y028197D02*
X018439Y027677D01*
X019439Y027677D02*
X019439Y028197D01*
X020439Y028197D02*
X020439Y027677D01*
X021439Y027677D02*
X021439Y028197D01*
X022439Y028197D02*
X022439Y027677D01*
X023439Y027677D02*
X023439Y028197D01*
X024439Y028197D02*
X024439Y027677D01*
X025439Y027677D02*
X025439Y028197D01*
X026439Y028197D02*
X026439Y027677D01*
X027439Y027677D02*
X027439Y028197D01*
X027439Y030677D02*
X027439Y031197D01*
X026449Y023687D02*
X025929Y023687D01*
X025929Y022687D02*
X026449Y022687D01*
X026449Y021687D02*
X025929Y021687D01*
X025929Y020687D02*
X026449Y020687D01*
X026449Y019687D02*
X025929Y019687D01*
X025929Y018687D02*
X026449Y018687D01*
X026449Y017687D02*
X025929Y017687D01*
X025929Y016687D02*
X026449Y016687D01*
X023449Y016687D02*
X022929Y016687D01*
X022929Y017687D02*
X023449Y017687D01*
X023449Y018687D02*
X022929Y018687D01*
X022929Y019687D02*
X023449Y019687D01*
X023449Y020687D02*
X022929Y020687D01*
X022929Y021687D02*
X023449Y021687D01*
X023449Y022687D02*
X022929Y022687D01*
X022929Y023687D02*
X023449Y023687D01*
X018449Y023687D02*
X017929Y023687D01*
X017929Y022687D02*
X018449Y022687D01*
X018449Y021687D02*
X017929Y021687D01*
X017929Y020687D02*
X018449Y020687D01*
X018449Y019687D02*
X017929Y019687D01*
X017929Y018687D02*
X018449Y018687D01*
X018449Y017687D02*
X017929Y017687D01*
X017929Y016687D02*
X018449Y016687D01*
X015449Y016687D02*
X014929Y016687D01*
X014929Y017687D02*
X015449Y017687D01*
X015449Y018687D02*
X014929Y018687D01*
X014929Y019687D02*
X015449Y019687D01*
X015449Y020687D02*
X014929Y020687D01*
X014929Y021687D02*
X015449Y021687D01*
X015449Y022687D02*
X014929Y022687D01*
X014929Y023687D02*
X015449Y023687D01*
X010449Y023687D02*
X009929Y023687D01*
X009929Y022687D02*
X010449Y022687D01*
X010449Y021687D02*
X009929Y021687D01*
X009929Y020687D02*
X010449Y020687D01*
X010449Y019687D02*
X009929Y019687D01*
X009929Y018687D02*
X010449Y018687D01*
X010449Y017687D02*
X009929Y017687D01*
X009929Y016687D02*
X010449Y016687D01*
X007449Y016687D02*
X006929Y016687D01*
X006929Y017687D02*
X007449Y017687D01*
X007449Y018687D02*
X006929Y018687D01*
X006929Y019687D02*
X007449Y019687D01*
X007449Y020687D02*
X006929Y020687D01*
X006929Y021687D02*
X007449Y021687D01*
X007449Y022687D02*
X006929Y022687D01*
X006929Y023687D02*
X007449Y023687D01*
X030929Y023687D02*
X031449Y023687D01*
X031449Y022687D02*
X030929Y022687D01*
X030929Y021687D02*
X031449Y021687D01*
X031449Y020687D02*
X030929Y020687D01*
X030929Y019687D02*
X031449Y019687D01*
X031449Y018687D02*
X030929Y018687D01*
X030929Y017687D02*
X031449Y017687D01*
X031449Y016687D02*
X030929Y016687D01*
X033929Y016687D02*
X034449Y016687D01*
X034449Y017687D02*
X033929Y017687D01*
X033929Y018687D02*
X034449Y018687D01*
X034449Y019687D02*
X033929Y019687D01*
X033929Y020687D02*
X034449Y020687D01*
X034449Y021687D02*
X033929Y021687D01*
X033929Y022687D02*
X034449Y022687D01*
X034449Y023687D02*
X033929Y023687D01*
D12*
X030244Y061293D03*
X030244Y062081D03*
X029457Y062081D03*
X029457Y061293D03*
X028670Y061293D03*
X028670Y062081D03*
X027882Y062081D03*
X027882Y061293D03*
X027095Y061293D03*
X026307Y061293D03*
X026307Y062081D03*
X027095Y062081D03*
X025520Y062081D03*
X025520Y061293D03*
X024733Y061293D03*
X024733Y062081D03*
X023945Y062081D03*
X023945Y061293D03*
X023158Y061293D03*
X023158Y062081D03*
X022370Y062081D03*
X022370Y061293D03*
X021583Y061293D03*
X020796Y061293D03*
X020796Y062081D03*
X021583Y062081D03*
X020008Y062081D03*
X020008Y061293D03*
X019221Y061293D03*
X019221Y062081D03*
X018433Y062081D03*
X018433Y061293D03*
X017646Y061293D03*
X017646Y062081D03*
X016859Y062081D03*
X016859Y061293D03*
X016071Y061293D03*
X015284Y061293D03*
X015284Y062081D03*
X016071Y062081D03*
X014496Y062081D03*
X014496Y061293D03*
X013709Y061293D03*
X013709Y062081D03*
X012922Y062081D03*
X012922Y061293D03*
X012134Y061293D03*
X012134Y062081D03*
D13*
X011939Y056437D03*
X010939Y056437D03*
X009439Y050687D03*
X009439Y049687D03*
X006689Y051187D03*
X005689Y051187D03*
X005189Y042937D03*
X007189Y042937D03*
X007189Y038937D03*
X005189Y038937D03*
X011939Y034937D03*
X012439Y035687D03*
X012939Y034937D03*
X012439Y036937D03*
X016439Y036937D03*
X016939Y041437D03*
X016939Y042937D03*
X016939Y044187D03*
X019939Y048437D03*
X019939Y052437D03*
X024439Y056687D03*
X025439Y056687D03*
X025939Y052187D03*
X027189Y052187D03*
X028439Y052187D03*
X029689Y052187D03*
X030939Y052187D03*
X032189Y052187D03*
X033439Y052187D03*
X034689Y052187D03*
X034689Y048187D03*
X034189Y046937D03*
X033439Y048187D03*
X032189Y048187D03*
X030939Y048187D03*
X029689Y048187D03*
X028439Y048187D03*
X027189Y048187D03*
X025939Y048187D03*
X020939Y044187D03*
X020939Y042937D03*
X020939Y041437D03*
X023439Y038437D03*
X022939Y034187D03*
X022939Y032187D03*
X027439Y038437D03*
X030689Y035187D03*
X030689Y033187D03*
X030689Y031187D03*
X028939Y028187D03*
X030689Y027437D03*
X030689Y025437D03*
X028939Y024187D03*
X032689Y031187D03*
X032689Y033187D03*
X032689Y035187D03*
X033689Y028687D03*
X034939Y028687D03*
X034939Y024687D03*
X033689Y024687D03*
X035689Y021687D03*
X035689Y019687D03*
X021689Y020687D03*
X021689Y022687D03*
X013189Y024687D03*
X011189Y024687D03*
X005689Y024687D03*
X003689Y024687D03*
X002689Y022187D03*
X002689Y018187D03*
X002689Y015687D03*
X003689Y015687D03*
X037939Y056187D03*
X037939Y060187D03*
X038189Y050187D03*
X038189Y049187D03*
X038189Y046937D03*
X038439Y045437D03*
X038439Y043437D03*
D14*
X032689Y061137D02*
X032689Y061737D01*
X031689Y061737D02*
X031689Y061137D01*
X023939Y051987D02*
X023939Y051387D01*
X023939Y049487D02*
X023939Y048887D01*
X023939Y046987D02*
X023939Y046387D01*
X022939Y046387D02*
X022939Y046987D01*
X021939Y046987D02*
X021939Y046387D01*
X020939Y046387D02*
X020939Y046987D01*
X019939Y046987D02*
X019939Y046387D01*
X022189Y048887D02*
X022189Y049487D01*
X022189Y051387D02*
X022189Y051987D01*
X021689Y036737D02*
X021689Y036137D01*
X022689Y036137D02*
X022689Y036737D01*
X023689Y036737D02*
X023689Y036137D01*
X024689Y036137D02*
X024689Y036737D01*
X025689Y036737D02*
X025689Y036137D01*
X026689Y036137D02*
X026689Y036737D01*
X020689Y036737D02*
X020689Y036137D01*
X019689Y036137D02*
X019689Y036737D01*
X018689Y036737D02*
X018689Y036137D01*
X002989Y012187D02*
X002389Y012187D01*
X002389Y011187D02*
X002989Y011187D01*
X002989Y010187D02*
X002389Y010187D01*
X038139Y020937D02*
X038739Y020937D01*
X038739Y021937D02*
X038139Y021937D01*
X038139Y022937D02*
X038739Y022937D01*
D15*
X023189Y040437D03*
D16*
X024189Y040437D03*
X025189Y040437D03*
X026189Y040437D03*
X027189Y040437D03*
X028189Y040437D03*
X029189Y040437D03*
X030189Y040437D03*
X031189Y040437D03*
X032189Y040437D03*
X033189Y040437D03*
X034189Y040437D03*
X035189Y040437D03*
X036189Y040437D03*
X036189Y043437D03*
X035189Y043437D03*
X034189Y043437D03*
X033189Y043437D03*
X032189Y043437D03*
X031189Y043437D03*
X030189Y043437D03*
X029189Y043437D03*
X028189Y043437D03*
X027189Y043437D03*
X026189Y043437D03*
X025189Y043437D03*
X024189Y043437D03*
X023189Y043437D03*
D17*
X030689Y037687D03*
D18*
X032689Y037687D03*
X009689Y035937D03*
X005689Y035937D03*
D19*
X002689Y034937D03*
X002689Y032937D03*
X002689Y030937D03*
X002689Y028937D03*
X002689Y026937D03*
X002689Y036937D03*
X002689Y038937D03*
X002689Y040937D03*
X002689Y042937D03*
X002689Y044937D03*
X002689Y046937D03*
X005689Y003687D03*
X007689Y003687D03*
X009689Y003687D03*
X011689Y003687D03*
X013689Y003687D03*
X015689Y003687D03*
X017689Y003687D03*
X019689Y003687D03*
X021689Y003687D03*
X023689Y003687D03*
X025689Y003687D03*
X027689Y003687D03*
X029689Y003687D03*
X031689Y003687D03*
X033689Y003687D03*
X035689Y003687D03*
X038689Y007187D03*
X038689Y009187D03*
X038689Y011187D03*
X038689Y013187D03*
X038689Y015187D03*
X038689Y017187D03*
X038689Y026437D03*
X038689Y028437D03*
X038689Y030437D03*
X038689Y032437D03*
X038689Y034437D03*
X038689Y036437D03*
X038689Y038437D03*
D20*
X036189Y013687D03*
X036189Y011687D03*
X036189Y009687D03*
X036189Y007687D03*
X033189Y007687D03*
X032189Y006687D03*
X032189Y008687D03*
X033189Y009687D03*
X032189Y010687D03*
X033189Y011687D03*
X032189Y012687D03*
X033189Y013687D03*
X029189Y012687D03*
X028189Y011687D03*
X029189Y010687D03*
X028189Y009687D03*
X029189Y008687D03*
X028189Y007687D03*
X029189Y006687D03*
X025189Y007687D03*
X024189Y006687D03*
X024189Y008687D03*
X025189Y009687D03*
X024189Y010687D03*
X025189Y011687D03*
X024189Y012687D03*
X025189Y013687D03*
X028189Y013687D03*
X021189Y012687D03*
X020189Y011687D03*
X021189Y010687D03*
X020189Y009687D03*
X021189Y008687D03*
X020189Y007687D03*
X021189Y006687D03*
X017189Y007687D03*
X016189Y006687D03*
X016189Y008687D03*
X017189Y009687D03*
X016189Y010687D03*
X017189Y011687D03*
X016189Y012687D03*
X017189Y013687D03*
X020189Y013687D03*
X013189Y012687D03*
X012189Y011687D03*
X013189Y010687D03*
X012189Y009687D03*
X013189Y008687D03*
X012189Y007687D03*
X013189Y006687D03*
X009189Y007687D03*
X008189Y006687D03*
X008189Y008687D03*
X009189Y009687D03*
X008189Y010687D03*
X009189Y011687D03*
X008189Y012687D03*
X009189Y013687D03*
X012189Y013687D03*
X005189Y012687D03*
X005189Y010687D03*
X005189Y008687D03*
X005189Y006687D03*
D21*
X006189Y026937D03*
X006189Y028937D03*
X006189Y030937D03*
X006189Y033937D03*
X009189Y030937D03*
X009189Y028937D03*
X009189Y026937D03*
D22*
X009189Y033937D03*
D23*
X010049Y038687D02*
X010829Y038687D01*
X011439Y042297D02*
X011439Y043077D01*
X009439Y043077D02*
X009439Y042297D01*
D24*
X006189Y026187D03*
M02*
