G75*
G70*
%OFA0B0*%
%FSLAX24Y24*%
%IPPOS*%
%LPD*%
%AMOC8*
5,1,8,0,0,1.08239X$1,22.5*
%
%ADD10C,0.0000*%
%ADD11C,0.0040*%
%ADD12C,0.0060*%
%ADD13C,0.0050*%
%ADD14R,0.0240X0.0340*%
%ADD15C,0.0100*%
%ADD16R,0.0340X0.0240*%
%ADD17C,0.0020*%
%ADD18C,0.0120*%
%ADD19C,0.0080*%
%ADD20C,0.0070*%
%ADD21R,0.0200X0.0736*%
%ADD22R,0.0250X0.0335*%
%ADD23R,0.0300X0.4200*%
%ADD24R,0.0200X0.0750*%
%ADD25R,0.0200X0.0300*%
%ADD26R,0.0200X0.1000*%
%ADD27R,0.0750X0.0300*%
%ADD28R,0.1250X0.0400*%
%ADD29R,0.0600X0.1050*%
D10*
X001189Y002187D02*
X001189Y065179D01*
X040309Y065179D01*
X040309Y002187D01*
X001189Y002187D01*
X002559Y004187D02*
X002561Y004237D01*
X002567Y004287D01*
X002577Y004336D01*
X002591Y004384D01*
X002608Y004431D01*
X002629Y004476D01*
X002654Y004520D01*
X002682Y004561D01*
X002714Y004600D01*
X002748Y004637D01*
X002785Y004671D01*
X002825Y004701D01*
X002867Y004728D01*
X002911Y004752D01*
X002957Y004773D01*
X003004Y004789D01*
X003052Y004802D01*
X003102Y004811D01*
X003151Y004816D01*
X003202Y004817D01*
X003252Y004814D01*
X003301Y004807D01*
X003350Y004796D01*
X003398Y004781D01*
X003444Y004763D01*
X003489Y004741D01*
X003532Y004715D01*
X003573Y004686D01*
X003612Y004654D01*
X003648Y004619D01*
X003680Y004581D01*
X003710Y004541D01*
X003737Y004498D01*
X003760Y004454D01*
X003779Y004408D01*
X003795Y004360D01*
X003807Y004311D01*
X003815Y004262D01*
X003819Y004212D01*
X003819Y004162D01*
X003815Y004112D01*
X003807Y004063D01*
X003795Y004014D01*
X003779Y003966D01*
X003760Y003920D01*
X003737Y003876D01*
X003710Y003833D01*
X003680Y003793D01*
X003648Y003755D01*
X003612Y003720D01*
X003573Y003688D01*
X003532Y003659D01*
X003489Y003633D01*
X003444Y003611D01*
X003398Y003593D01*
X003350Y003578D01*
X003301Y003567D01*
X003252Y003560D01*
X003202Y003557D01*
X003151Y003558D01*
X003102Y003563D01*
X003052Y003572D01*
X003004Y003585D01*
X002957Y003601D01*
X002911Y003622D01*
X002867Y003646D01*
X002825Y003673D01*
X002785Y003703D01*
X002748Y003737D01*
X002714Y003774D01*
X002682Y003813D01*
X002654Y003854D01*
X002629Y003898D01*
X002608Y003943D01*
X002591Y003990D01*
X002577Y004038D01*
X002567Y004087D01*
X002561Y004137D01*
X002559Y004187D01*
X037559Y004187D02*
X037561Y004237D01*
X037567Y004287D01*
X037577Y004336D01*
X037591Y004384D01*
X037608Y004431D01*
X037629Y004476D01*
X037654Y004520D01*
X037682Y004561D01*
X037714Y004600D01*
X037748Y004637D01*
X037785Y004671D01*
X037825Y004701D01*
X037867Y004728D01*
X037911Y004752D01*
X037957Y004773D01*
X038004Y004789D01*
X038052Y004802D01*
X038102Y004811D01*
X038151Y004816D01*
X038202Y004817D01*
X038252Y004814D01*
X038301Y004807D01*
X038350Y004796D01*
X038398Y004781D01*
X038444Y004763D01*
X038489Y004741D01*
X038532Y004715D01*
X038573Y004686D01*
X038612Y004654D01*
X038648Y004619D01*
X038680Y004581D01*
X038710Y004541D01*
X038737Y004498D01*
X038760Y004454D01*
X038779Y004408D01*
X038795Y004360D01*
X038807Y004311D01*
X038815Y004262D01*
X038819Y004212D01*
X038819Y004162D01*
X038815Y004112D01*
X038807Y004063D01*
X038795Y004014D01*
X038779Y003966D01*
X038760Y003920D01*
X038737Y003876D01*
X038710Y003833D01*
X038680Y003793D01*
X038648Y003755D01*
X038612Y003720D01*
X038573Y003688D01*
X038532Y003659D01*
X038489Y003633D01*
X038444Y003611D01*
X038398Y003593D01*
X038350Y003578D01*
X038301Y003567D01*
X038252Y003560D01*
X038202Y003557D01*
X038151Y003558D01*
X038102Y003563D01*
X038052Y003572D01*
X038004Y003585D01*
X037957Y003601D01*
X037911Y003622D01*
X037867Y003646D01*
X037825Y003673D01*
X037785Y003703D01*
X037748Y003737D01*
X037714Y003774D01*
X037682Y003813D01*
X037654Y003854D01*
X037629Y003898D01*
X037608Y003943D01*
X037591Y003990D01*
X037577Y004038D01*
X037567Y004087D01*
X037561Y004137D01*
X037559Y004187D01*
X037559Y063187D02*
X037561Y063237D01*
X037567Y063287D01*
X037577Y063336D01*
X037591Y063384D01*
X037608Y063431D01*
X037629Y063476D01*
X037654Y063520D01*
X037682Y063561D01*
X037714Y063600D01*
X037748Y063637D01*
X037785Y063671D01*
X037825Y063701D01*
X037867Y063728D01*
X037911Y063752D01*
X037957Y063773D01*
X038004Y063789D01*
X038052Y063802D01*
X038102Y063811D01*
X038151Y063816D01*
X038202Y063817D01*
X038252Y063814D01*
X038301Y063807D01*
X038350Y063796D01*
X038398Y063781D01*
X038444Y063763D01*
X038489Y063741D01*
X038532Y063715D01*
X038573Y063686D01*
X038612Y063654D01*
X038648Y063619D01*
X038680Y063581D01*
X038710Y063541D01*
X038737Y063498D01*
X038760Y063454D01*
X038779Y063408D01*
X038795Y063360D01*
X038807Y063311D01*
X038815Y063262D01*
X038819Y063212D01*
X038819Y063162D01*
X038815Y063112D01*
X038807Y063063D01*
X038795Y063014D01*
X038779Y062966D01*
X038760Y062920D01*
X038737Y062876D01*
X038710Y062833D01*
X038680Y062793D01*
X038648Y062755D01*
X038612Y062720D01*
X038573Y062688D01*
X038532Y062659D01*
X038489Y062633D01*
X038444Y062611D01*
X038398Y062593D01*
X038350Y062578D01*
X038301Y062567D01*
X038252Y062560D01*
X038202Y062557D01*
X038151Y062558D01*
X038102Y062563D01*
X038052Y062572D01*
X038004Y062585D01*
X037957Y062601D01*
X037911Y062622D01*
X037867Y062646D01*
X037825Y062673D01*
X037785Y062703D01*
X037748Y062737D01*
X037714Y062774D01*
X037682Y062813D01*
X037654Y062854D01*
X037629Y062898D01*
X037608Y062943D01*
X037591Y062990D01*
X037577Y063038D01*
X037567Y063087D01*
X037561Y063137D01*
X037559Y063187D01*
X002559Y063187D02*
X002561Y063237D01*
X002567Y063287D01*
X002577Y063336D01*
X002591Y063384D01*
X002608Y063431D01*
X002629Y063476D01*
X002654Y063520D01*
X002682Y063561D01*
X002714Y063600D01*
X002748Y063637D01*
X002785Y063671D01*
X002825Y063701D01*
X002867Y063728D01*
X002911Y063752D01*
X002957Y063773D01*
X003004Y063789D01*
X003052Y063802D01*
X003102Y063811D01*
X003151Y063816D01*
X003202Y063817D01*
X003252Y063814D01*
X003301Y063807D01*
X003350Y063796D01*
X003398Y063781D01*
X003444Y063763D01*
X003489Y063741D01*
X003532Y063715D01*
X003573Y063686D01*
X003612Y063654D01*
X003648Y063619D01*
X003680Y063581D01*
X003710Y063541D01*
X003737Y063498D01*
X003760Y063454D01*
X003779Y063408D01*
X003795Y063360D01*
X003807Y063311D01*
X003815Y063262D01*
X003819Y063212D01*
X003819Y063162D01*
X003815Y063112D01*
X003807Y063063D01*
X003795Y063014D01*
X003779Y062966D01*
X003760Y062920D01*
X003737Y062876D01*
X003710Y062833D01*
X003680Y062793D01*
X003648Y062755D01*
X003612Y062720D01*
X003573Y062688D01*
X003532Y062659D01*
X003489Y062633D01*
X003444Y062611D01*
X003398Y062593D01*
X003350Y062578D01*
X003301Y062567D01*
X003252Y062560D01*
X003202Y062557D01*
X003151Y062558D01*
X003102Y062563D01*
X003052Y062572D01*
X003004Y062585D01*
X002957Y062601D01*
X002911Y062622D01*
X002867Y062646D01*
X002825Y062673D01*
X002785Y062703D01*
X002748Y062737D01*
X002714Y062774D01*
X002682Y062813D01*
X002654Y062854D01*
X002629Y062898D01*
X002608Y062943D01*
X002591Y062990D01*
X002577Y063038D01*
X002567Y063087D01*
X002561Y063137D01*
X002559Y063187D01*
D11*
X004689Y047804D02*
X004689Y047497D01*
X004459Y047727D01*
X004919Y047727D01*
X004843Y047343D02*
X004919Y047266D01*
X004919Y047113D01*
X004843Y047036D01*
X004843Y046883D02*
X004919Y046806D01*
X004919Y046653D01*
X004843Y046576D01*
X004536Y046576D01*
X004459Y046653D01*
X004459Y046806D01*
X004536Y046883D01*
X004536Y047036D02*
X004459Y047113D01*
X004459Y047266D01*
X004536Y047343D01*
X004612Y047343D01*
X004689Y047266D01*
X004766Y047343D01*
X004843Y047343D01*
X004689Y047266D02*
X004689Y047190D01*
X004689Y043804D02*
X004612Y043727D01*
X004612Y043650D01*
X004689Y043497D01*
X004459Y043497D01*
X004459Y043804D01*
X004689Y043804D02*
X004843Y043804D01*
X004919Y043727D01*
X004919Y043573D01*
X004843Y043497D01*
X004843Y043343D02*
X004919Y043266D01*
X004919Y043113D01*
X004843Y043036D01*
X004843Y042883D02*
X004919Y042806D01*
X004919Y042653D01*
X004843Y042576D01*
X004536Y042576D01*
X004459Y042653D01*
X004459Y042806D01*
X004536Y042883D01*
X004536Y043036D02*
X004459Y043113D01*
X004459Y043266D01*
X004536Y043343D01*
X004612Y043343D01*
X004689Y043266D01*
X004766Y043343D01*
X004843Y043343D01*
X004689Y043266D02*
X004689Y043190D01*
X004766Y039804D02*
X004689Y039727D01*
X004689Y039497D01*
X004843Y039497D01*
X004919Y039573D01*
X004919Y039727D01*
X004843Y039804D01*
X004766Y039804D01*
X004536Y039650D02*
X004689Y039497D01*
X004612Y039343D02*
X004689Y039266D01*
X004766Y039343D01*
X004843Y039343D01*
X004919Y039266D01*
X004919Y039113D01*
X004843Y039036D01*
X004843Y038883D02*
X004919Y038806D01*
X004919Y038653D01*
X004843Y038576D01*
X004536Y038576D01*
X004459Y038653D01*
X004459Y038806D01*
X004536Y038883D01*
X004536Y039036D02*
X004459Y039113D01*
X004459Y039266D01*
X004536Y039343D01*
X004612Y039343D01*
X004689Y039266D02*
X004689Y039190D01*
X004536Y039650D02*
X004459Y039804D01*
X004536Y035804D02*
X004612Y035804D01*
X004689Y035727D01*
X004766Y035804D01*
X004843Y035804D01*
X004919Y035727D01*
X004919Y035573D01*
X004843Y035497D01*
X004919Y035343D02*
X004919Y035036D01*
X004919Y035190D02*
X004459Y035190D01*
X004612Y035036D01*
X004536Y034883D02*
X004459Y034806D01*
X004459Y034653D01*
X004536Y034576D01*
X004843Y034576D01*
X004919Y034653D01*
X004919Y034806D01*
X004843Y034883D01*
X004536Y035497D02*
X004459Y035573D01*
X004459Y035727D01*
X004536Y035804D01*
X004689Y035727D02*
X004689Y035650D01*
X004612Y031804D02*
X004689Y031727D01*
X004766Y031804D01*
X004843Y031804D01*
X004919Y031727D01*
X004919Y031573D01*
X004843Y031497D01*
X004843Y031343D02*
X004919Y031266D01*
X004919Y031113D01*
X004843Y031036D01*
X004843Y030883D02*
X004919Y030806D01*
X004919Y030653D01*
X004843Y030576D01*
X004536Y030576D01*
X004459Y030653D01*
X004459Y030806D01*
X004536Y030883D01*
X004536Y031036D02*
X004459Y031113D01*
X004459Y031266D01*
X004536Y031343D01*
X004612Y031343D01*
X004689Y031266D01*
X004766Y031343D01*
X004843Y031343D01*
X004689Y031266D02*
X004689Y031190D01*
X004536Y031497D02*
X004459Y031573D01*
X004459Y031727D01*
X004536Y031804D01*
X004612Y031804D01*
X004689Y031727D02*
X004689Y031650D01*
X008118Y035957D02*
X008118Y036417D01*
X008348Y036417D01*
X008425Y036341D01*
X008425Y036187D01*
X008348Y036111D01*
X008118Y036111D01*
X008271Y036111D02*
X008425Y035957D01*
X008578Y035957D02*
X008578Y036417D01*
X008885Y036417D01*
X009038Y036417D02*
X009038Y035957D01*
X009345Y035957D01*
X009499Y035957D02*
X009806Y035957D01*
X009652Y036187D02*
X009499Y036187D01*
X009499Y036417D02*
X009499Y035957D01*
X009652Y035667D02*
X009652Y035207D01*
X009499Y035207D02*
X009806Y035207D01*
X009499Y035514D02*
X009652Y035667D01*
X009345Y035207D02*
X009039Y035207D01*
X009039Y035667D01*
X008885Y035591D02*
X008885Y035437D01*
X008808Y035361D01*
X008578Y035361D01*
X008732Y035361D02*
X008885Y035207D01*
X008578Y035207D02*
X008578Y035667D01*
X008808Y035667D01*
X008885Y035591D01*
X008885Y035957D02*
X008578Y035957D01*
X008578Y036187D02*
X008732Y036187D01*
X009499Y036417D02*
X009806Y036417D01*
X022789Y042207D02*
X023095Y042514D01*
X023095Y042591D01*
X023019Y042667D01*
X022865Y042667D01*
X022789Y042591D01*
X022789Y042207D02*
X023095Y042207D01*
X023249Y042284D02*
X023249Y042361D01*
X023326Y042437D01*
X023479Y042437D01*
X023556Y042361D01*
X023556Y042284D01*
X023479Y042207D01*
X023326Y042207D01*
X023249Y042284D01*
X023326Y042437D02*
X023249Y042514D01*
X023249Y042591D01*
X023326Y042667D01*
X023479Y042667D01*
X023556Y042591D01*
X023556Y042514D01*
X023479Y042437D01*
X023113Y041667D02*
X023113Y041207D01*
X023266Y041207D02*
X022959Y041207D01*
X022959Y041514D02*
X023113Y041667D01*
X027459Y041784D02*
X027536Y041707D01*
X027689Y041707D01*
X027766Y041784D01*
X027766Y042167D01*
X027920Y042014D02*
X028073Y042167D01*
X028073Y041707D01*
X027920Y041707D02*
X028227Y041707D01*
X027459Y041784D02*
X027459Y042167D01*
X035539Y042207D02*
X035845Y042207D01*
X035692Y042207D02*
X035692Y042667D01*
X035539Y042514D01*
X035999Y042437D02*
X035999Y042667D01*
X036306Y042667D01*
X036229Y042514D02*
X036306Y042437D01*
X036306Y042284D01*
X036229Y042207D01*
X036076Y042207D01*
X035999Y042284D01*
X035999Y042437D02*
X036152Y042514D01*
X036229Y042514D01*
X036229Y041667D02*
X035999Y041437D01*
X036306Y041437D01*
X036229Y041207D02*
X036229Y041667D01*
X035692Y041667D02*
X035692Y041207D01*
X035539Y041207D02*
X035845Y041207D01*
X035539Y041514D02*
X035692Y041667D01*
X036919Y034685D02*
X036919Y034378D01*
X036919Y034531D02*
X036459Y034531D01*
X036612Y034378D01*
X036612Y034224D02*
X036689Y034148D01*
X036766Y034224D01*
X036843Y034224D01*
X036919Y034148D01*
X036919Y033994D01*
X036843Y033917D01*
X036843Y033764D02*
X036919Y033687D01*
X036919Y033534D01*
X036843Y033457D01*
X036536Y033457D01*
X036459Y033534D01*
X036459Y033687D01*
X036536Y033764D01*
X036536Y033917D02*
X036459Y033994D01*
X036459Y034148D01*
X036536Y034224D01*
X036612Y034224D01*
X036689Y034148D02*
X036689Y034071D01*
X036766Y030685D02*
X036689Y030608D01*
X036689Y030378D01*
X036843Y030378D01*
X036919Y030454D01*
X036919Y030608D01*
X036843Y030685D01*
X036766Y030685D01*
X036536Y030531D02*
X036459Y030685D01*
X036536Y030531D02*
X036689Y030378D01*
X036919Y030224D02*
X036919Y029917D01*
X036919Y030071D02*
X036459Y030071D01*
X036612Y029917D01*
X036536Y029764D02*
X036459Y029687D01*
X036459Y029534D01*
X036536Y029457D01*
X036843Y029457D01*
X036919Y029534D01*
X036919Y029687D01*
X036843Y029764D01*
X036843Y026685D02*
X036919Y026608D01*
X036919Y026454D01*
X036843Y026378D01*
X036689Y026378D02*
X036612Y026531D01*
X036612Y026608D01*
X036689Y026685D01*
X036843Y026685D01*
X036689Y026378D02*
X036459Y026378D01*
X036459Y026685D01*
X036459Y026071D02*
X036919Y026071D01*
X036919Y026224D02*
X036919Y025917D01*
X036843Y025764D02*
X036919Y025687D01*
X036919Y025534D01*
X036843Y025457D01*
X036536Y025457D01*
X036459Y025534D01*
X036459Y025687D01*
X036536Y025764D01*
X036612Y025917D02*
X036459Y026071D01*
X036919Y015435D02*
X036919Y015128D01*
X036919Y015281D02*
X036459Y015281D01*
X036612Y015128D01*
X036459Y014821D02*
X036919Y014821D01*
X036919Y014974D02*
X036919Y014667D01*
X036843Y014514D02*
X036919Y014437D01*
X036919Y014284D01*
X036843Y014207D01*
X036536Y014207D01*
X036459Y014284D01*
X036459Y014437D01*
X036536Y014514D01*
X036612Y014667D02*
X036459Y014821D01*
X036536Y011435D02*
X036459Y011358D01*
X036459Y011204D01*
X036536Y011128D01*
X036536Y011435D02*
X036612Y011435D01*
X036919Y011128D01*
X036919Y011435D01*
X036919Y010974D02*
X036919Y010667D01*
X036919Y010821D02*
X036459Y010821D01*
X036612Y010667D01*
X036536Y010514D02*
X036459Y010437D01*
X036459Y010284D01*
X036536Y010207D01*
X036843Y010207D01*
X036919Y010284D01*
X036919Y010437D01*
X036843Y010514D01*
X036689Y007435D02*
X036689Y007128D01*
X036459Y007358D01*
X036919Y007358D01*
X036919Y006974D02*
X036919Y006667D01*
X036919Y006821D02*
X036459Y006821D01*
X036612Y006667D01*
X036536Y006514D02*
X036459Y006437D01*
X036459Y006284D01*
X036536Y006207D01*
X036843Y006207D01*
X036919Y006284D01*
X036919Y006437D01*
X036843Y006514D01*
X033937Y005841D02*
X033937Y005764D01*
X033860Y005687D01*
X033937Y005611D01*
X033937Y005534D01*
X033860Y005457D01*
X033707Y005457D01*
X033630Y005534D01*
X033477Y005457D02*
X033170Y005457D01*
X033477Y005764D01*
X033477Y005841D01*
X033400Y005917D01*
X033246Y005917D01*
X033170Y005841D01*
X033016Y005841D02*
X032939Y005917D01*
X032786Y005917D01*
X032709Y005841D01*
X032709Y005534D01*
X032786Y005457D01*
X032939Y005457D01*
X033016Y005534D01*
X033630Y005841D02*
X033707Y005917D01*
X033860Y005917D01*
X033937Y005841D01*
X033860Y005687D02*
X033783Y005687D01*
X029937Y005687D02*
X029630Y005687D01*
X029860Y005917D01*
X029860Y005457D01*
X029477Y005457D02*
X029170Y005457D01*
X029477Y005764D01*
X029477Y005841D01*
X029400Y005917D01*
X029246Y005917D01*
X029170Y005841D01*
X029016Y005841D02*
X028939Y005917D01*
X028786Y005917D01*
X028709Y005841D01*
X028709Y005534D01*
X028786Y005457D01*
X028939Y005457D01*
X029016Y005534D01*
X025937Y005534D02*
X025860Y005457D01*
X025707Y005457D01*
X025630Y005534D01*
X025630Y005687D02*
X025783Y005764D01*
X025860Y005764D01*
X025937Y005687D01*
X025937Y005534D01*
X025630Y005687D02*
X025630Y005917D01*
X025937Y005917D01*
X025477Y005841D02*
X025400Y005917D01*
X025246Y005917D01*
X025170Y005841D01*
X025016Y005841D02*
X024939Y005917D01*
X024786Y005917D01*
X024709Y005841D01*
X024709Y005534D01*
X024786Y005457D01*
X024939Y005457D01*
X025016Y005534D01*
X025170Y005457D02*
X025477Y005764D01*
X025477Y005841D01*
X025477Y005457D02*
X025170Y005457D01*
X021937Y005534D02*
X021937Y005611D01*
X021860Y005687D01*
X021630Y005687D01*
X021630Y005534D01*
X021707Y005457D01*
X021860Y005457D01*
X021937Y005534D01*
X021783Y005841D02*
X021630Y005687D01*
X021477Y005764D02*
X021477Y005841D01*
X021400Y005917D01*
X021246Y005917D01*
X021170Y005841D01*
X021016Y005841D02*
X020939Y005917D01*
X020786Y005917D01*
X020709Y005841D01*
X020709Y005534D01*
X020786Y005457D01*
X020939Y005457D01*
X021016Y005534D01*
X021170Y005457D02*
X021477Y005764D01*
X021477Y005457D02*
X021170Y005457D01*
X021783Y005841D02*
X021937Y005917D01*
X017937Y005917D02*
X017937Y005841D01*
X017630Y005534D01*
X017630Y005457D01*
X017477Y005457D02*
X017170Y005457D01*
X017477Y005764D01*
X017477Y005841D01*
X017400Y005917D01*
X017246Y005917D01*
X017170Y005841D01*
X017016Y005841D02*
X016939Y005917D01*
X016786Y005917D01*
X016709Y005841D01*
X016709Y005534D01*
X016786Y005457D01*
X016939Y005457D01*
X017016Y005534D01*
X017630Y005917D02*
X017937Y005917D01*
X013937Y005841D02*
X013937Y005764D01*
X013860Y005687D01*
X013707Y005687D01*
X013630Y005764D01*
X013630Y005841D01*
X013707Y005917D01*
X013860Y005917D01*
X013937Y005841D01*
X013860Y005687D02*
X013937Y005611D01*
X013937Y005534D01*
X013860Y005457D01*
X013707Y005457D01*
X013630Y005534D01*
X013630Y005611D01*
X013707Y005687D01*
X013477Y005764D02*
X013477Y005841D01*
X013400Y005917D01*
X013246Y005917D01*
X013170Y005841D01*
X013016Y005841D02*
X012939Y005917D01*
X012786Y005917D01*
X012709Y005841D01*
X012709Y005534D01*
X012786Y005457D01*
X012939Y005457D01*
X013016Y005534D01*
X013170Y005457D02*
X013477Y005764D01*
X013477Y005457D02*
X013170Y005457D01*
X009937Y005534D02*
X009937Y005841D01*
X009860Y005917D01*
X009707Y005917D01*
X009630Y005841D01*
X009630Y005764D01*
X009707Y005687D01*
X009937Y005687D01*
X009937Y005534D02*
X009860Y005457D01*
X009707Y005457D01*
X009630Y005534D01*
X009477Y005457D02*
X009170Y005457D01*
X009477Y005764D01*
X009477Y005841D01*
X009400Y005917D01*
X009246Y005917D01*
X009170Y005841D01*
X009016Y005841D02*
X008939Y005917D01*
X008786Y005917D01*
X008709Y005841D01*
X008709Y005534D01*
X008786Y005457D01*
X008939Y005457D01*
X009016Y005534D01*
X005937Y005534D02*
X005860Y005457D01*
X005707Y005457D01*
X005630Y005534D01*
X005937Y005841D01*
X005937Y005534D01*
X005937Y005841D02*
X005860Y005917D01*
X005707Y005917D01*
X005630Y005841D01*
X005630Y005534D01*
X005477Y005534D02*
X005400Y005457D01*
X005246Y005457D01*
X005170Y005534D01*
X005016Y005534D02*
X004939Y005457D01*
X004786Y005457D01*
X004709Y005534D01*
X004709Y005841D01*
X004786Y005917D01*
X004939Y005917D01*
X005016Y005841D01*
X005170Y005841D02*
X005246Y005917D01*
X005400Y005917D01*
X005477Y005841D01*
X005477Y005764D01*
X005400Y005687D01*
X005477Y005611D01*
X005477Y005534D01*
X005400Y005687D02*
X005323Y005687D01*
X036359Y055929D02*
X036359Y056083D01*
X036359Y056006D02*
X036819Y056006D01*
X036819Y055929D02*
X036819Y056083D01*
X036743Y056236D02*
X036819Y056313D01*
X036819Y056466D01*
X036743Y056543D01*
X036819Y056697D02*
X036819Y057004D01*
X036819Y056850D02*
X036359Y056850D01*
X036512Y056697D01*
X036436Y056543D02*
X036359Y056466D01*
X036359Y056313D01*
X036436Y056236D01*
X036743Y056236D01*
D12*
X036189Y056337D02*
X036189Y057087D01*
X026189Y057087D01*
X026189Y054787D01*
X036189Y054787D01*
X036189Y055537D01*
X036150Y055539D01*
X036111Y055545D01*
X036073Y055554D01*
X036036Y055567D01*
X036000Y055584D01*
X035967Y055604D01*
X035935Y055628D01*
X035906Y055654D01*
X035880Y055683D01*
X035856Y055715D01*
X035836Y055748D01*
X035819Y055784D01*
X035806Y055821D01*
X035797Y055859D01*
X035791Y055898D01*
X035789Y055937D01*
X035791Y055976D01*
X035797Y056015D01*
X035806Y056053D01*
X035819Y056090D01*
X035836Y056126D01*
X035856Y056159D01*
X035880Y056191D01*
X035906Y056220D01*
X035935Y056246D01*
X035967Y056270D01*
X036000Y056290D01*
X036036Y056307D01*
X036073Y056320D01*
X036111Y056329D01*
X036150Y056335D01*
X036189Y056337D01*
X037489Y057037D02*
X037489Y057187D01*
X037539Y057237D01*
X037539Y059137D01*
X037489Y059187D01*
X037489Y059337D01*
X037491Y059354D01*
X037495Y059371D01*
X037502Y059387D01*
X037512Y059401D01*
X037525Y059414D01*
X037539Y059424D01*
X037555Y059431D01*
X037572Y059435D01*
X037589Y059437D01*
X038289Y059437D01*
X038306Y059435D01*
X038323Y059431D01*
X038339Y059424D01*
X038353Y059414D01*
X038366Y059401D01*
X038376Y059387D01*
X038383Y059371D01*
X038387Y059354D01*
X038389Y059337D01*
X038389Y059187D01*
X038339Y059137D01*
X038339Y057237D01*
X038389Y057187D01*
X038389Y057037D01*
X038387Y057020D01*
X038383Y057003D01*
X038376Y056987D01*
X038366Y056973D01*
X038353Y056960D01*
X038339Y056950D01*
X038323Y056943D01*
X038306Y056939D01*
X038289Y056937D01*
X037589Y056937D01*
X037572Y056939D01*
X037555Y056943D01*
X037539Y056950D01*
X037525Y056960D01*
X037512Y056973D01*
X037502Y056987D01*
X037495Y057003D01*
X037491Y057020D01*
X037489Y057037D01*
X035039Y051437D02*
X034339Y051437D01*
X034322Y051435D01*
X034305Y051431D01*
X034289Y051424D01*
X034275Y051414D01*
X034262Y051401D01*
X034252Y051387D01*
X034245Y051371D01*
X034241Y051354D01*
X034239Y051337D01*
X034239Y051187D01*
X034289Y051137D01*
X034289Y049237D01*
X034239Y049187D01*
X034239Y049037D01*
X034241Y049020D01*
X034245Y049003D01*
X034252Y048987D01*
X034262Y048973D01*
X034275Y048960D01*
X034289Y048950D01*
X034305Y048943D01*
X034322Y048939D01*
X034339Y048937D01*
X035039Y048937D01*
X035056Y048939D01*
X035073Y048943D01*
X035089Y048950D01*
X035103Y048960D01*
X035116Y048973D01*
X035126Y048987D01*
X035133Y049003D01*
X035137Y049020D01*
X035139Y049037D01*
X035139Y049187D01*
X035089Y049237D01*
X035089Y051137D01*
X035139Y051187D01*
X035139Y051337D01*
X035137Y051354D01*
X035133Y051371D01*
X035126Y051387D01*
X035116Y051401D01*
X035103Y051414D01*
X035089Y051424D01*
X035073Y051431D01*
X035056Y051435D01*
X035039Y051437D01*
X033889Y051337D02*
X033889Y051187D01*
X033839Y051137D01*
X033839Y049237D01*
X033889Y049187D01*
X033889Y049037D01*
X033887Y049020D01*
X033883Y049003D01*
X033876Y048987D01*
X033866Y048973D01*
X033853Y048960D01*
X033839Y048950D01*
X033823Y048943D01*
X033806Y048939D01*
X033789Y048937D01*
X033089Y048937D01*
X033072Y048939D01*
X033055Y048943D01*
X033039Y048950D01*
X033025Y048960D01*
X033012Y048973D01*
X033002Y048987D01*
X032995Y049003D01*
X032991Y049020D01*
X032989Y049037D01*
X032989Y049187D01*
X033039Y049237D01*
X033039Y051137D01*
X032989Y051187D01*
X032989Y051337D01*
X032991Y051354D01*
X032995Y051371D01*
X033002Y051387D01*
X033012Y051401D01*
X033025Y051414D01*
X033039Y051424D01*
X033055Y051431D01*
X033072Y051435D01*
X033089Y051437D01*
X033789Y051437D01*
X033806Y051435D01*
X033823Y051431D01*
X033839Y051424D01*
X033853Y051414D01*
X033866Y051401D01*
X033876Y051387D01*
X033883Y051371D01*
X033887Y051354D01*
X033889Y051337D01*
X032639Y051337D02*
X032639Y051187D01*
X032589Y051137D01*
X032589Y049237D01*
X032639Y049187D01*
X032639Y049037D01*
X032637Y049020D01*
X032633Y049003D01*
X032626Y048987D01*
X032616Y048973D01*
X032603Y048960D01*
X032589Y048950D01*
X032573Y048943D01*
X032556Y048939D01*
X032539Y048937D01*
X031839Y048937D01*
X031822Y048939D01*
X031805Y048943D01*
X031789Y048950D01*
X031775Y048960D01*
X031762Y048973D01*
X031752Y048987D01*
X031745Y049003D01*
X031741Y049020D01*
X031739Y049037D01*
X031739Y049187D01*
X031789Y049237D01*
X031789Y051137D01*
X031739Y051187D01*
X031739Y051337D01*
X031741Y051354D01*
X031745Y051371D01*
X031752Y051387D01*
X031762Y051401D01*
X031775Y051414D01*
X031789Y051424D01*
X031805Y051431D01*
X031822Y051435D01*
X031839Y051437D01*
X032539Y051437D01*
X032556Y051435D01*
X032573Y051431D01*
X032589Y051424D01*
X032603Y051414D01*
X032616Y051401D01*
X032626Y051387D01*
X032633Y051371D01*
X032637Y051354D01*
X032639Y051337D01*
X031389Y051337D02*
X031389Y051187D01*
X031339Y051137D01*
X031339Y049237D01*
X031389Y049187D01*
X031389Y049037D01*
X031387Y049020D01*
X031383Y049003D01*
X031376Y048987D01*
X031366Y048973D01*
X031353Y048960D01*
X031339Y048950D01*
X031323Y048943D01*
X031306Y048939D01*
X031289Y048937D01*
X030589Y048937D01*
X030572Y048939D01*
X030555Y048943D01*
X030539Y048950D01*
X030525Y048960D01*
X030512Y048973D01*
X030502Y048987D01*
X030495Y049003D01*
X030491Y049020D01*
X030489Y049037D01*
X030489Y049187D01*
X030539Y049237D01*
X030539Y051137D01*
X030489Y051187D01*
X030489Y051337D01*
X030491Y051354D01*
X030495Y051371D01*
X030502Y051387D01*
X030512Y051401D01*
X030525Y051414D01*
X030539Y051424D01*
X030555Y051431D01*
X030572Y051435D01*
X030589Y051437D01*
X031289Y051437D01*
X031306Y051435D01*
X031323Y051431D01*
X031339Y051424D01*
X031353Y051414D01*
X031366Y051401D01*
X031376Y051387D01*
X031383Y051371D01*
X031387Y051354D01*
X031389Y051337D01*
X030139Y051337D02*
X030139Y051187D01*
X030089Y051137D01*
X030089Y049237D01*
X030139Y049187D01*
X030139Y049037D01*
X030137Y049020D01*
X030133Y049003D01*
X030126Y048987D01*
X030116Y048973D01*
X030103Y048960D01*
X030089Y048950D01*
X030073Y048943D01*
X030056Y048939D01*
X030039Y048937D01*
X029339Y048937D01*
X029322Y048939D01*
X029305Y048943D01*
X029289Y048950D01*
X029275Y048960D01*
X029262Y048973D01*
X029252Y048987D01*
X029245Y049003D01*
X029241Y049020D01*
X029239Y049037D01*
X029239Y049187D01*
X029289Y049237D01*
X029289Y051137D01*
X029239Y051187D01*
X029239Y051337D01*
X029241Y051354D01*
X029245Y051371D01*
X029252Y051387D01*
X029262Y051401D01*
X029275Y051414D01*
X029289Y051424D01*
X029305Y051431D01*
X029322Y051435D01*
X029339Y051437D01*
X030039Y051437D01*
X030056Y051435D01*
X030073Y051431D01*
X030089Y051424D01*
X030103Y051414D01*
X030116Y051401D01*
X030126Y051387D01*
X030133Y051371D01*
X030137Y051354D01*
X030139Y051337D01*
X028889Y051337D02*
X028889Y051187D01*
X028839Y051137D01*
X028839Y049237D01*
X028889Y049187D01*
X028889Y049037D01*
X028887Y049020D01*
X028883Y049003D01*
X028876Y048987D01*
X028866Y048973D01*
X028853Y048960D01*
X028839Y048950D01*
X028823Y048943D01*
X028806Y048939D01*
X028789Y048937D01*
X028089Y048937D01*
X028072Y048939D01*
X028055Y048943D01*
X028039Y048950D01*
X028025Y048960D01*
X028012Y048973D01*
X028002Y048987D01*
X027995Y049003D01*
X027991Y049020D01*
X027989Y049037D01*
X027989Y049187D01*
X028039Y049237D01*
X028039Y051137D01*
X027989Y051187D01*
X027989Y051337D01*
X027991Y051354D01*
X027995Y051371D01*
X028002Y051387D01*
X028012Y051401D01*
X028025Y051414D01*
X028039Y051424D01*
X028055Y051431D01*
X028072Y051435D01*
X028089Y051437D01*
X028789Y051437D01*
X028806Y051435D01*
X028823Y051431D01*
X028839Y051424D01*
X028853Y051414D01*
X028866Y051401D01*
X028876Y051387D01*
X028883Y051371D01*
X028887Y051354D01*
X028889Y051337D01*
X027639Y051337D02*
X027639Y051187D01*
X027589Y051137D01*
X027589Y049237D01*
X027639Y049187D01*
X027639Y049037D01*
X027637Y049020D01*
X027633Y049003D01*
X027626Y048987D01*
X027616Y048973D01*
X027603Y048960D01*
X027589Y048950D01*
X027573Y048943D01*
X027556Y048939D01*
X027539Y048937D01*
X026839Y048937D01*
X026822Y048939D01*
X026805Y048943D01*
X026789Y048950D01*
X026775Y048960D01*
X026762Y048973D01*
X026752Y048987D01*
X026745Y049003D01*
X026741Y049020D01*
X026739Y049037D01*
X026739Y049187D01*
X026789Y049237D01*
X026789Y051137D01*
X026739Y051187D01*
X026739Y051337D01*
X026741Y051354D01*
X026745Y051371D01*
X026752Y051387D01*
X026762Y051401D01*
X026775Y051414D01*
X026789Y051424D01*
X026805Y051431D01*
X026822Y051435D01*
X026839Y051437D01*
X027539Y051437D01*
X027556Y051435D01*
X027573Y051431D01*
X027589Y051424D01*
X027603Y051414D01*
X027616Y051401D01*
X027626Y051387D01*
X027633Y051371D01*
X027637Y051354D01*
X027639Y051337D01*
X026389Y051337D02*
X026389Y051187D01*
X026339Y051137D01*
X026339Y049237D01*
X026389Y049187D01*
X026389Y049037D01*
X026387Y049020D01*
X026383Y049003D01*
X026376Y048987D01*
X026366Y048973D01*
X026353Y048960D01*
X026339Y048950D01*
X026323Y048943D01*
X026306Y048939D01*
X026289Y048937D01*
X025589Y048937D01*
X025572Y048939D01*
X025555Y048943D01*
X025539Y048950D01*
X025525Y048960D01*
X025512Y048973D01*
X025502Y048987D01*
X025495Y049003D01*
X025491Y049020D01*
X025489Y049037D01*
X025489Y049187D01*
X025539Y049237D01*
X025539Y051137D01*
X025489Y051187D01*
X025489Y051337D01*
X025491Y051354D01*
X025495Y051371D01*
X025502Y051387D01*
X025512Y051401D01*
X025525Y051414D01*
X025539Y051424D01*
X025555Y051431D01*
X025572Y051435D01*
X025589Y051437D01*
X026289Y051437D01*
X026306Y051435D01*
X026323Y051431D01*
X026339Y051424D01*
X026353Y051414D01*
X026366Y051401D01*
X026376Y051387D01*
X026383Y051371D01*
X026387Y051354D01*
X026389Y051337D01*
X024189Y047187D02*
X023689Y047187D01*
X023439Y046937D01*
X023189Y047187D01*
X022689Y047187D01*
X022439Y046937D01*
X022189Y047187D01*
X021689Y047187D01*
X021439Y046937D01*
X021189Y047187D01*
X020689Y047187D01*
X020439Y046937D01*
X020189Y047187D01*
X019689Y047187D01*
X019439Y046937D01*
X019439Y046437D01*
X019689Y046187D01*
X020189Y046187D01*
X020439Y046437D01*
X020689Y046187D01*
X021189Y046187D01*
X021439Y046437D01*
X021689Y046187D01*
X022189Y046187D01*
X022439Y046437D01*
X022689Y046187D01*
X023189Y046187D01*
X023439Y046437D01*
X023689Y046187D01*
X024189Y046187D01*
X024439Y046437D01*
X024439Y046937D01*
X024189Y047187D01*
X020389Y049287D02*
X020389Y049437D01*
X020339Y049487D01*
X020339Y051387D01*
X020389Y051437D01*
X020389Y051587D01*
X020387Y051604D01*
X020383Y051621D01*
X020376Y051637D01*
X020366Y051651D01*
X020353Y051664D01*
X020339Y051674D01*
X020323Y051681D01*
X020306Y051685D01*
X020289Y051687D01*
X019589Y051687D01*
X019572Y051685D01*
X019555Y051681D01*
X019539Y051674D01*
X019525Y051664D01*
X019512Y051651D01*
X019502Y051637D01*
X019495Y051621D01*
X019491Y051604D01*
X019489Y051587D01*
X019489Y051437D01*
X019539Y051387D01*
X019539Y049487D01*
X019489Y049437D01*
X019489Y049287D01*
X019491Y049270D01*
X019495Y049253D01*
X019502Y049237D01*
X019512Y049223D01*
X019525Y049210D01*
X019539Y049200D01*
X019555Y049193D01*
X019572Y049189D01*
X019589Y049187D01*
X020289Y049187D01*
X020306Y049189D01*
X020323Y049193D01*
X020339Y049200D01*
X020353Y049210D01*
X020366Y049223D01*
X020376Y049237D01*
X020383Y049253D01*
X020387Y049270D01*
X020389Y049287D01*
X020089Y044637D02*
X019939Y044637D01*
X019889Y044587D01*
X017989Y044587D01*
X017939Y044637D01*
X017789Y044637D01*
X017772Y044635D01*
X017755Y044631D01*
X017739Y044624D01*
X017725Y044614D01*
X017712Y044601D01*
X017702Y044587D01*
X017695Y044571D01*
X017691Y044554D01*
X017689Y044537D01*
X017689Y043837D01*
X017691Y043820D01*
X017695Y043803D01*
X017702Y043787D01*
X017712Y043773D01*
X017725Y043760D01*
X017739Y043750D01*
X017755Y043743D01*
X017772Y043739D01*
X017789Y043737D01*
X017939Y043737D01*
X017989Y043787D01*
X019889Y043787D01*
X019939Y043737D01*
X020089Y043737D01*
X020106Y043739D01*
X020123Y043743D01*
X020139Y043750D01*
X020153Y043760D01*
X020166Y043773D01*
X020176Y043787D01*
X020183Y043803D01*
X020187Y043820D01*
X020189Y043837D01*
X020189Y044537D01*
X020187Y044554D01*
X020183Y044571D01*
X020176Y044587D01*
X020166Y044601D01*
X020153Y044614D01*
X020139Y044624D01*
X020123Y044631D01*
X020106Y044635D01*
X020089Y044637D01*
X020089Y043387D02*
X019939Y043387D01*
X019889Y043337D01*
X017989Y043337D01*
X017939Y043387D01*
X017789Y043387D01*
X017772Y043385D01*
X017755Y043381D01*
X017739Y043374D01*
X017725Y043364D01*
X017712Y043351D01*
X017702Y043337D01*
X017695Y043321D01*
X017691Y043304D01*
X017689Y043287D01*
X017689Y042587D01*
X017691Y042570D01*
X017695Y042553D01*
X017702Y042537D01*
X017712Y042523D01*
X017725Y042510D01*
X017739Y042500D01*
X017755Y042493D01*
X017772Y042489D01*
X017789Y042487D01*
X017939Y042487D01*
X017989Y042537D01*
X019889Y042537D01*
X019939Y042487D01*
X020089Y042487D01*
X020106Y042489D01*
X020123Y042493D01*
X020139Y042500D01*
X020153Y042510D01*
X020166Y042523D01*
X020176Y042537D01*
X020183Y042553D01*
X020187Y042570D01*
X020189Y042587D01*
X020189Y043287D01*
X020187Y043304D01*
X020183Y043321D01*
X020176Y043337D01*
X020166Y043351D01*
X020153Y043364D01*
X020139Y043374D01*
X020123Y043381D01*
X020106Y043385D01*
X020089Y043387D01*
X020089Y041887D02*
X019939Y041887D01*
X019889Y041837D01*
X017989Y041837D01*
X017939Y041887D01*
X017789Y041887D01*
X017772Y041885D01*
X017755Y041881D01*
X017739Y041874D01*
X017725Y041864D01*
X017712Y041851D01*
X017702Y041837D01*
X017695Y041821D01*
X017691Y041804D01*
X017689Y041787D01*
X017689Y041087D01*
X017691Y041070D01*
X017695Y041053D01*
X017702Y041037D01*
X017712Y041023D01*
X017725Y041010D01*
X017739Y041000D01*
X017755Y040993D01*
X017772Y040989D01*
X017789Y040987D01*
X017939Y040987D01*
X017989Y041037D01*
X019889Y041037D01*
X019939Y040987D01*
X020089Y040987D01*
X020106Y040989D01*
X020123Y040993D01*
X020139Y041000D01*
X020153Y041010D01*
X020166Y041023D01*
X020176Y041037D01*
X020183Y041053D01*
X020187Y041070D01*
X020189Y041087D01*
X020189Y041787D01*
X020187Y041804D01*
X020183Y041821D01*
X020176Y041837D01*
X020166Y041851D01*
X020153Y041864D01*
X020139Y041874D01*
X020123Y041881D01*
X020106Y041885D01*
X020089Y041887D01*
X019939Y036937D02*
X019439Y036937D01*
X019189Y036687D01*
X018939Y036937D01*
X018439Y036937D01*
X018189Y036687D01*
X018189Y036187D01*
X018439Y035937D01*
X018939Y035937D01*
X019189Y036187D01*
X019439Y035937D01*
X019939Y035937D01*
X020189Y036187D01*
X020439Y035937D01*
X020939Y035937D01*
X021189Y036187D01*
X021439Y035937D01*
X021939Y035937D01*
X022189Y036187D01*
X022439Y035937D01*
X022939Y035937D01*
X023189Y036187D01*
X023439Y035937D01*
X023939Y035937D01*
X024189Y036187D01*
X024439Y035937D01*
X024939Y035937D01*
X025189Y036187D01*
X025439Y035937D01*
X025939Y035937D01*
X026189Y036187D01*
X026439Y035937D01*
X026939Y035937D01*
X027189Y036187D01*
X027189Y036687D01*
X026939Y036937D01*
X026439Y036937D01*
X026189Y036687D01*
X025939Y036937D01*
X025439Y036937D01*
X025189Y036687D01*
X024939Y036937D01*
X024439Y036937D01*
X024189Y036687D01*
X023939Y036937D01*
X023439Y036937D01*
X023189Y036687D01*
X022939Y036937D01*
X022439Y036937D01*
X022189Y036687D01*
X021939Y036937D01*
X021439Y036937D01*
X021189Y036687D01*
X020939Y036937D01*
X020439Y036937D01*
X020189Y036687D01*
X019939Y036937D01*
X022339Y034537D02*
X022339Y031837D01*
X022341Y031820D01*
X022345Y031803D01*
X022352Y031787D01*
X022362Y031773D01*
X022375Y031760D01*
X022389Y031750D01*
X022405Y031743D01*
X022422Y031739D01*
X022439Y031737D01*
X023439Y031737D01*
X023456Y031739D01*
X023473Y031743D01*
X023489Y031750D01*
X023503Y031760D01*
X023516Y031773D01*
X023526Y031787D01*
X023533Y031803D01*
X023537Y031820D01*
X023539Y031837D01*
X023539Y034537D01*
X023537Y034554D01*
X023533Y034571D01*
X023526Y034587D01*
X023516Y034601D01*
X023503Y034614D01*
X023489Y034624D01*
X023473Y034631D01*
X023456Y034635D01*
X023439Y034637D01*
X022439Y034637D01*
X022422Y034635D01*
X022405Y034631D01*
X022389Y034624D01*
X022375Y034614D01*
X022362Y034601D01*
X022352Y034587D01*
X022345Y034571D01*
X022341Y034554D01*
X022339Y034537D01*
X022939Y033787D02*
X022939Y033317D01*
X022939Y033067D02*
X022939Y032587D01*
X026669Y033087D02*
X026669Y034787D01*
X026671Y034810D01*
X026676Y034833D01*
X026685Y034855D01*
X026698Y034875D01*
X026713Y034893D01*
X026731Y034908D01*
X026751Y034921D01*
X026773Y034930D01*
X026796Y034935D01*
X026819Y034937D01*
X027239Y034937D01*
X027639Y034937D01*
X028059Y034937D01*
X028082Y034935D01*
X028105Y034930D01*
X028127Y034921D01*
X028147Y034908D01*
X028165Y034893D01*
X028180Y034875D01*
X028193Y034855D01*
X028202Y034833D01*
X028207Y034810D01*
X028209Y034787D01*
X028209Y033087D01*
X028207Y033064D01*
X028202Y033041D01*
X028193Y033019D01*
X028180Y032999D01*
X028165Y032981D01*
X028147Y032966D01*
X028127Y032953D01*
X028105Y032944D01*
X028082Y032939D01*
X028059Y032937D01*
X026819Y032937D01*
X026796Y032939D01*
X026773Y032944D01*
X026751Y032953D01*
X026731Y032966D01*
X026713Y032981D01*
X026698Y032999D01*
X026685Y033019D01*
X026676Y033041D01*
X026671Y033064D01*
X026669Y033087D01*
X027239Y034937D02*
X027241Y034910D01*
X027246Y034883D01*
X027256Y034857D01*
X027268Y034833D01*
X027284Y034811D01*
X027302Y034791D01*
X027324Y034774D01*
X027347Y034759D01*
X027372Y034749D01*
X027398Y034741D01*
X027425Y034737D01*
X027453Y034737D01*
X027480Y034741D01*
X027506Y034749D01*
X027531Y034759D01*
X027554Y034774D01*
X027576Y034791D01*
X027594Y034811D01*
X027610Y034833D01*
X027622Y034857D01*
X027632Y034883D01*
X027637Y034910D01*
X027639Y034937D01*
X026589Y037987D02*
X026439Y037987D01*
X026389Y038037D01*
X024489Y038037D01*
X024439Y037987D01*
X024289Y037987D01*
X024272Y037989D01*
X024255Y037993D01*
X024239Y038000D01*
X024225Y038010D01*
X024212Y038023D01*
X024202Y038037D01*
X024195Y038053D01*
X024191Y038070D01*
X024189Y038087D01*
X024189Y038787D01*
X024191Y038804D01*
X024195Y038821D01*
X024202Y038837D01*
X024212Y038851D01*
X024225Y038864D01*
X024239Y038874D01*
X024255Y038881D01*
X024272Y038885D01*
X024289Y038887D01*
X024439Y038887D01*
X024489Y038837D01*
X026389Y038837D01*
X026439Y038887D01*
X026589Y038887D01*
X026606Y038885D01*
X026623Y038881D01*
X026639Y038874D01*
X026653Y038864D01*
X026666Y038851D01*
X026676Y038837D01*
X026683Y038821D01*
X026687Y038804D01*
X026689Y038787D01*
X026689Y038087D01*
X026687Y038070D01*
X026683Y038053D01*
X026676Y038037D01*
X026666Y038023D01*
X026653Y038010D01*
X026639Y038000D01*
X026623Y037993D01*
X026606Y037989D01*
X026589Y037987D01*
X030089Y035537D02*
X030089Y032837D01*
X030091Y032820D01*
X030095Y032803D01*
X030102Y032787D01*
X030112Y032773D01*
X030125Y032760D01*
X030139Y032750D01*
X030155Y032743D01*
X030172Y032739D01*
X030189Y032737D01*
X031189Y032737D01*
X031206Y032739D01*
X031223Y032743D01*
X031239Y032750D01*
X031253Y032760D01*
X031266Y032773D01*
X031276Y032787D01*
X031283Y032803D01*
X031287Y032820D01*
X031289Y032837D01*
X031289Y035537D01*
X031287Y035554D01*
X031283Y035571D01*
X031276Y035587D01*
X031266Y035601D01*
X031253Y035614D01*
X031239Y035624D01*
X031223Y035631D01*
X031206Y035635D01*
X031189Y035637D01*
X030189Y035637D01*
X030172Y035635D01*
X030155Y035631D01*
X030139Y035624D01*
X030125Y035614D01*
X030112Y035601D01*
X030102Y035587D01*
X030095Y035571D01*
X030091Y035554D01*
X030089Y035537D01*
X030689Y034787D02*
X030689Y034307D01*
X030689Y034057D02*
X030689Y033587D01*
X032089Y032837D02*
X032089Y035537D01*
X032091Y035554D01*
X032095Y035571D01*
X032102Y035587D01*
X032112Y035601D01*
X032125Y035614D01*
X032139Y035624D01*
X032155Y035631D01*
X032172Y035635D01*
X032189Y035637D01*
X033189Y035637D01*
X033206Y035635D01*
X033223Y035631D01*
X033239Y035624D01*
X033253Y035614D01*
X033266Y035601D01*
X033276Y035587D01*
X033283Y035571D01*
X033287Y035554D01*
X033289Y035537D01*
X033289Y032837D01*
X033287Y032820D01*
X033283Y032803D01*
X033276Y032787D01*
X033266Y032773D01*
X033253Y032760D01*
X033239Y032750D01*
X033223Y032743D01*
X033206Y032739D01*
X033189Y032737D01*
X032189Y032737D01*
X032172Y032739D01*
X032155Y032743D01*
X032139Y032750D01*
X032125Y032760D01*
X032112Y032773D01*
X032102Y032787D01*
X032095Y032803D01*
X032091Y032820D01*
X032089Y032837D01*
X032689Y033587D02*
X032689Y034057D01*
X032689Y034307D02*
X032689Y034787D01*
X033039Y031787D02*
X030339Y031787D01*
X030322Y031785D01*
X030305Y031781D01*
X030289Y031774D01*
X030275Y031764D01*
X030262Y031751D01*
X030252Y031737D01*
X030245Y031721D01*
X030241Y031704D01*
X030239Y031687D01*
X030239Y030687D01*
X030241Y030670D01*
X030245Y030653D01*
X030252Y030637D01*
X030262Y030623D01*
X030275Y030610D01*
X030289Y030600D01*
X030305Y030593D01*
X030322Y030589D01*
X030339Y030587D01*
X033039Y030587D01*
X033056Y030589D01*
X033073Y030593D01*
X033089Y030600D01*
X033103Y030610D01*
X033116Y030623D01*
X033126Y030637D01*
X033133Y030653D01*
X033137Y030670D01*
X033139Y030687D01*
X033139Y031687D01*
X033137Y031704D01*
X033133Y031721D01*
X033126Y031737D01*
X033116Y031751D01*
X033103Y031764D01*
X033089Y031774D01*
X033073Y031781D01*
X033056Y031785D01*
X033039Y031787D01*
X032289Y031187D02*
X031819Y031187D01*
X031569Y031187D02*
X031089Y031187D01*
X031189Y027887D02*
X030189Y027887D01*
X030172Y027885D01*
X030155Y027881D01*
X030139Y027874D01*
X030125Y027864D01*
X030112Y027851D01*
X030102Y027837D01*
X030095Y027821D01*
X030091Y027804D01*
X030089Y027787D01*
X030089Y025087D01*
X030091Y025070D01*
X030095Y025053D01*
X030102Y025037D01*
X030112Y025023D01*
X030125Y025010D01*
X030139Y025000D01*
X030155Y024993D01*
X030172Y024989D01*
X030189Y024987D01*
X031189Y024987D01*
X031206Y024989D01*
X031223Y024993D01*
X031239Y025000D01*
X031253Y025010D01*
X031266Y025023D01*
X031276Y025037D01*
X031283Y025053D01*
X031287Y025070D01*
X031289Y025087D01*
X031289Y027787D01*
X031287Y027804D01*
X031283Y027821D01*
X031276Y027837D01*
X031266Y027851D01*
X031253Y027864D01*
X031239Y027874D01*
X031223Y027881D01*
X031206Y027885D01*
X031189Y027887D01*
X030689Y027037D02*
X030689Y026557D01*
X030689Y026307D02*
X030689Y025837D01*
X031539Y024187D02*
X032289Y024187D01*
X032291Y024148D01*
X032297Y024109D01*
X032306Y024071D01*
X032319Y024034D01*
X032336Y023998D01*
X032356Y023965D01*
X032380Y023933D01*
X032406Y023904D01*
X032435Y023878D01*
X032467Y023854D01*
X032500Y023834D01*
X032536Y023817D01*
X032573Y023804D01*
X032611Y023795D01*
X032650Y023789D01*
X032689Y023787D01*
X032728Y023789D01*
X032767Y023795D01*
X032805Y023804D01*
X032842Y023817D01*
X032878Y023834D01*
X032911Y023854D01*
X032943Y023878D01*
X032972Y023904D01*
X032998Y023933D01*
X033022Y023965D01*
X033042Y023998D01*
X033059Y024034D01*
X033072Y024071D01*
X033081Y024109D01*
X033087Y024148D01*
X033089Y024187D01*
X033839Y024187D01*
X033839Y016187D01*
X031539Y016187D01*
X031539Y024187D01*
X033239Y025537D02*
X033239Y025687D01*
X033289Y025737D01*
X033289Y027637D01*
X033239Y027687D01*
X033239Y027837D01*
X033241Y027854D01*
X033245Y027871D01*
X033252Y027887D01*
X033262Y027901D01*
X033275Y027914D01*
X033289Y027924D01*
X033305Y027931D01*
X033322Y027935D01*
X033339Y027937D01*
X034039Y027937D01*
X034056Y027935D01*
X034073Y027931D01*
X034089Y027924D01*
X034103Y027914D01*
X034116Y027901D01*
X034126Y027887D01*
X034133Y027871D01*
X034137Y027854D01*
X034139Y027837D01*
X034139Y027687D01*
X034089Y027637D01*
X034089Y025737D01*
X034139Y025687D01*
X034139Y025537D01*
X034137Y025520D01*
X034133Y025503D01*
X034126Y025487D01*
X034116Y025473D01*
X034103Y025460D01*
X034089Y025450D01*
X034073Y025443D01*
X034056Y025439D01*
X034039Y025437D01*
X033339Y025437D01*
X033322Y025439D01*
X033305Y025443D01*
X033289Y025450D01*
X033275Y025460D01*
X033262Y025473D01*
X033252Y025487D01*
X033245Y025503D01*
X033241Y025520D01*
X033239Y025537D01*
X034489Y025537D02*
X034489Y025687D01*
X034539Y025737D01*
X034539Y027637D01*
X034489Y027687D01*
X034489Y027837D01*
X034491Y027854D01*
X034495Y027871D01*
X034502Y027887D01*
X034512Y027901D01*
X034525Y027914D01*
X034539Y027924D01*
X034555Y027931D01*
X034572Y027935D01*
X034589Y027937D01*
X035289Y027937D01*
X035306Y027935D01*
X035323Y027931D01*
X035339Y027924D01*
X035353Y027914D01*
X035366Y027901D01*
X035376Y027887D01*
X035383Y027871D01*
X035387Y027854D01*
X035389Y027837D01*
X035389Y027687D01*
X035339Y027637D01*
X035339Y025737D01*
X035389Y025687D01*
X035389Y025537D01*
X035387Y025520D01*
X035383Y025503D01*
X035376Y025487D01*
X035366Y025473D01*
X035353Y025460D01*
X035339Y025450D01*
X035323Y025443D01*
X035306Y025439D01*
X035289Y025437D01*
X034589Y025437D01*
X034572Y025439D01*
X034555Y025443D01*
X034539Y025450D01*
X034525Y025460D01*
X034512Y025473D01*
X034502Y025487D01*
X034495Y025503D01*
X034491Y025520D01*
X034489Y025537D01*
X035189Y022137D02*
X036189Y022137D01*
X036206Y022135D01*
X036223Y022131D01*
X036239Y022124D01*
X036253Y022114D01*
X036266Y022101D01*
X036276Y022087D01*
X036283Y022071D01*
X036287Y022054D01*
X036289Y022037D01*
X036289Y019337D01*
X036287Y019320D01*
X036283Y019303D01*
X036276Y019287D01*
X036266Y019273D01*
X036253Y019260D01*
X036239Y019250D01*
X036223Y019243D01*
X036206Y019239D01*
X036189Y019237D01*
X035189Y019237D01*
X035172Y019239D01*
X035155Y019243D01*
X035139Y019250D01*
X035125Y019260D01*
X035112Y019273D01*
X035102Y019287D01*
X035095Y019303D01*
X035091Y019320D01*
X035089Y019337D01*
X035089Y022037D01*
X035091Y022054D01*
X035095Y022071D01*
X035102Y022087D01*
X035112Y022101D01*
X035125Y022114D01*
X035139Y022124D01*
X035155Y022131D01*
X035172Y022135D01*
X035189Y022137D01*
X035689Y021287D02*
X035689Y020817D01*
X035689Y020567D02*
X035689Y020087D01*
X035509Y014049D02*
X033870Y014049D01*
X033870Y013325D01*
X035509Y013325D01*
X035509Y014049D01*
X034939Y013687D02*
X034689Y013687D01*
X034689Y013937D01*
X034689Y013687D02*
X034689Y013437D01*
X034689Y013687D02*
X034289Y013437D01*
X034289Y013937D01*
X034689Y013687D01*
X034089Y013687D01*
X033870Y012049D02*
X033870Y011325D01*
X035509Y011325D01*
X035509Y012049D01*
X033870Y012049D01*
X034439Y011687D02*
X034689Y011687D01*
X034689Y011437D01*
X034689Y011687D02*
X034689Y011937D01*
X034689Y011687D02*
X035089Y011937D01*
X035089Y011437D01*
X034689Y011687D01*
X035289Y011687D01*
X035509Y010049D02*
X033870Y010049D01*
X033870Y009325D01*
X035509Y009325D01*
X035509Y010049D01*
X035289Y009687D02*
X034689Y009687D01*
X034689Y009437D01*
X034689Y009687D02*
X034689Y009937D01*
X034689Y009687D02*
X035089Y009937D01*
X035089Y009437D01*
X034689Y009687D01*
X034439Y009687D01*
X033870Y008049D02*
X033870Y007325D01*
X035509Y007325D01*
X035509Y008049D01*
X033870Y008049D01*
X034089Y007687D02*
X034689Y007687D01*
X034689Y007937D01*
X034689Y007687D02*
X034689Y007437D01*
X034689Y007687D02*
X034289Y007437D01*
X034289Y007937D01*
X034689Y007687D01*
X034939Y007687D01*
X031509Y007049D02*
X031509Y006325D01*
X029870Y006325D01*
X029870Y007049D01*
X031509Y007049D01*
X030939Y006687D02*
X030689Y006687D01*
X030689Y006937D01*
X030689Y006687D02*
X030689Y006437D01*
X030689Y006687D02*
X030089Y006687D01*
X030289Y006437D02*
X030289Y006937D01*
X030689Y006687D01*
X030289Y006437D01*
X029870Y008325D02*
X029870Y009049D01*
X031509Y009049D01*
X031509Y008325D01*
X029870Y008325D01*
X030439Y008687D02*
X030689Y008687D01*
X030689Y008437D01*
X030689Y008687D02*
X030689Y008937D01*
X030689Y008687D02*
X031089Y008937D01*
X031089Y008437D01*
X030689Y008687D01*
X031289Y008687D01*
X031509Y010325D02*
X031509Y011049D01*
X029870Y011049D01*
X029870Y010325D01*
X031509Y010325D01*
X031289Y010687D02*
X030689Y010687D01*
X030689Y010437D01*
X030689Y010687D02*
X030439Y010687D01*
X030689Y010687D02*
X030689Y010937D01*
X030689Y010687D02*
X031089Y010937D01*
X031089Y010437D01*
X030689Y010687D01*
X030689Y012437D02*
X030689Y012687D01*
X030689Y012937D01*
X030689Y012687D02*
X030289Y012437D01*
X030289Y012937D01*
X030689Y012687D01*
X030089Y012687D01*
X029870Y012325D02*
X031509Y012325D01*
X031509Y013049D01*
X029870Y013049D01*
X029870Y012325D01*
X030689Y012687D02*
X030939Y012687D01*
X027509Y012049D02*
X027509Y011325D01*
X025870Y011325D01*
X025870Y012049D01*
X027509Y012049D01*
X027289Y011687D02*
X026689Y011687D01*
X026689Y011437D01*
X026689Y011687D02*
X026689Y011937D01*
X026689Y011687D02*
X027089Y011937D01*
X027089Y011437D01*
X026689Y011687D01*
X026439Y011687D01*
X025870Y010049D02*
X025870Y009325D01*
X027509Y009325D01*
X027509Y010049D01*
X025870Y010049D01*
X026439Y009687D02*
X026689Y009687D01*
X026689Y009437D01*
X026689Y009687D02*
X026689Y009937D01*
X026689Y009687D02*
X027089Y009937D01*
X027089Y009437D01*
X026689Y009687D01*
X027289Y009687D01*
X027509Y008049D02*
X027509Y007325D01*
X025870Y007325D01*
X025870Y008049D01*
X027509Y008049D01*
X026939Y007687D02*
X026689Y007687D01*
X026689Y007937D01*
X026689Y007687D02*
X026689Y007437D01*
X026689Y007687D02*
X026289Y007437D01*
X026289Y007937D01*
X026689Y007687D01*
X026089Y007687D01*
X023509Y007049D02*
X023509Y006325D01*
X021870Y006325D01*
X021870Y007049D01*
X023509Y007049D01*
X022939Y006687D02*
X022689Y006687D01*
X022689Y006937D01*
X022689Y006687D02*
X022689Y006437D01*
X022689Y006687D02*
X022089Y006687D01*
X022289Y006437D02*
X022289Y006937D01*
X022689Y006687D01*
X022289Y006437D01*
X021870Y008325D02*
X021870Y009049D01*
X023509Y009049D01*
X023509Y008325D01*
X021870Y008325D01*
X022439Y008687D02*
X022689Y008687D01*
X022689Y008437D01*
X022689Y008687D02*
X022689Y008937D01*
X022689Y008687D02*
X023089Y008937D01*
X023089Y008437D01*
X022689Y008687D01*
X023289Y008687D01*
X023509Y010325D02*
X023509Y011049D01*
X021870Y011049D01*
X021870Y010325D01*
X023509Y010325D01*
X023289Y010687D02*
X022689Y010687D01*
X022689Y010437D01*
X022689Y010687D02*
X022439Y010687D01*
X022689Y010687D02*
X022689Y010937D01*
X022689Y010687D02*
X023089Y010937D01*
X023089Y010437D01*
X022689Y010687D01*
X022689Y012437D02*
X022689Y012687D01*
X022689Y012937D01*
X022689Y012687D02*
X022289Y012437D01*
X022289Y012937D01*
X022689Y012687D01*
X022089Y012687D01*
X021870Y012325D02*
X023509Y012325D01*
X023509Y013049D01*
X021870Y013049D01*
X021870Y012325D01*
X022689Y012687D02*
X022939Y012687D01*
X023539Y016187D02*
X025839Y016187D01*
X025839Y024187D01*
X025089Y024187D01*
X025087Y024148D01*
X025081Y024109D01*
X025072Y024071D01*
X025059Y024034D01*
X025042Y023998D01*
X025022Y023965D01*
X024998Y023933D01*
X024972Y023904D01*
X024943Y023878D01*
X024911Y023854D01*
X024878Y023834D01*
X024842Y023817D01*
X024805Y023804D01*
X024767Y023795D01*
X024728Y023789D01*
X024689Y023787D01*
X024650Y023789D01*
X024611Y023795D01*
X024573Y023804D01*
X024536Y023817D01*
X024500Y023834D01*
X024467Y023854D01*
X024435Y023878D01*
X024406Y023904D01*
X024380Y023933D01*
X024356Y023965D01*
X024336Y023998D01*
X024319Y024034D01*
X024306Y024071D01*
X024297Y024109D01*
X024291Y024148D01*
X024289Y024187D01*
X023539Y024187D01*
X023539Y016187D01*
X025870Y014049D02*
X025870Y013325D01*
X027509Y013325D01*
X027509Y014049D01*
X025870Y014049D01*
X026089Y013687D02*
X026689Y013687D01*
X026689Y013937D01*
X026689Y013687D02*
X026689Y013437D01*
X026689Y013687D02*
X026289Y013437D01*
X026289Y013937D01*
X026689Y013687D01*
X026939Y013687D01*
X022189Y020237D02*
X021189Y020237D01*
X021172Y020239D01*
X021155Y020243D01*
X021139Y020250D01*
X021125Y020260D01*
X021112Y020273D01*
X021102Y020287D01*
X021095Y020303D01*
X021091Y020320D01*
X021089Y020337D01*
X021089Y023037D01*
X021091Y023054D01*
X021095Y023071D01*
X021102Y023087D01*
X021112Y023101D01*
X021125Y023114D01*
X021139Y023124D01*
X021155Y023131D01*
X021172Y023135D01*
X021189Y023137D01*
X022189Y023137D01*
X022206Y023135D01*
X022223Y023131D01*
X022239Y023124D01*
X022253Y023114D01*
X022266Y023101D01*
X022276Y023087D01*
X022283Y023071D01*
X022287Y023054D01*
X022289Y023037D01*
X022289Y020337D01*
X022287Y020320D01*
X022283Y020303D01*
X022276Y020287D01*
X022266Y020273D01*
X022253Y020260D01*
X022239Y020250D01*
X022223Y020243D01*
X022206Y020239D01*
X022189Y020237D01*
X021689Y021087D02*
X021689Y021567D01*
X021689Y021817D02*
X021689Y022287D01*
X017839Y024187D02*
X017839Y016187D01*
X015539Y016187D01*
X015539Y024187D01*
X016289Y024187D01*
X016291Y024148D01*
X016297Y024109D01*
X016306Y024071D01*
X016319Y024034D01*
X016336Y023998D01*
X016356Y023965D01*
X016380Y023933D01*
X016406Y023904D01*
X016435Y023878D01*
X016467Y023854D01*
X016500Y023834D01*
X016536Y023817D01*
X016573Y023804D01*
X016611Y023795D01*
X016650Y023789D01*
X016689Y023787D01*
X016728Y023789D01*
X016767Y023795D01*
X016805Y023804D01*
X016842Y023817D01*
X016878Y023834D01*
X016911Y023854D01*
X016943Y023878D01*
X016972Y023904D01*
X016998Y023933D01*
X017022Y023965D01*
X017042Y023998D01*
X017059Y024034D01*
X017072Y024071D01*
X017081Y024109D01*
X017087Y024148D01*
X017089Y024187D01*
X017839Y024187D01*
X013989Y028437D02*
X027939Y028437D01*
X027939Y030437D01*
X013939Y030437D01*
X013939Y029937D01*
X013983Y029935D01*
X014026Y029929D01*
X014068Y029920D01*
X014110Y029907D01*
X014150Y029890D01*
X014189Y029870D01*
X014226Y029847D01*
X014260Y029820D01*
X014293Y029791D01*
X014322Y029758D01*
X014349Y029724D01*
X014372Y029687D01*
X014392Y029648D01*
X014409Y029608D01*
X014422Y029566D01*
X014431Y029524D01*
X014437Y029481D01*
X014439Y029437D01*
X014437Y029393D01*
X014431Y029350D01*
X014422Y029308D01*
X014409Y029266D01*
X014392Y029226D01*
X014372Y029187D01*
X014349Y029150D01*
X014322Y029116D01*
X014293Y029083D01*
X014260Y029054D01*
X014226Y029027D01*
X014189Y029004D01*
X014150Y028984D01*
X014110Y028967D01*
X014068Y028954D01*
X014026Y028945D01*
X013983Y028939D01*
X013939Y028937D01*
X013939Y028437D01*
X013539Y025287D02*
X010839Y025287D01*
X010822Y025285D01*
X010805Y025281D01*
X010789Y025274D01*
X010775Y025264D01*
X010762Y025251D01*
X010752Y025237D01*
X010745Y025221D01*
X010741Y025204D01*
X010739Y025187D01*
X010739Y024187D01*
X010741Y024170D01*
X010745Y024153D01*
X010752Y024137D01*
X010762Y024123D01*
X010775Y024110D01*
X010789Y024100D01*
X010805Y024093D01*
X010822Y024089D01*
X010839Y024087D01*
X013539Y024087D01*
X013556Y024089D01*
X013573Y024093D01*
X013589Y024100D01*
X013603Y024110D01*
X013616Y024123D01*
X013626Y024137D01*
X013633Y024153D01*
X013637Y024170D01*
X013639Y024187D01*
X013639Y025187D01*
X013637Y025204D01*
X013633Y025221D01*
X013626Y025237D01*
X013616Y025251D01*
X013603Y025264D01*
X013589Y025274D01*
X013573Y025281D01*
X013556Y025285D01*
X013539Y025287D01*
X012789Y024687D02*
X012319Y024687D01*
X012069Y024687D02*
X011589Y024687D01*
X009839Y024187D02*
X009089Y024187D01*
X009087Y024148D01*
X009081Y024109D01*
X009072Y024071D01*
X009059Y024034D01*
X009042Y023998D01*
X009022Y023965D01*
X008998Y023933D01*
X008972Y023904D01*
X008943Y023878D01*
X008911Y023854D01*
X008878Y023834D01*
X008842Y023817D01*
X008805Y023804D01*
X008767Y023795D01*
X008728Y023789D01*
X008689Y023787D01*
X008650Y023789D01*
X008611Y023795D01*
X008573Y023804D01*
X008536Y023817D01*
X008500Y023834D01*
X008467Y023854D01*
X008435Y023878D01*
X008406Y023904D01*
X008380Y023933D01*
X008356Y023965D01*
X008336Y023998D01*
X008319Y024034D01*
X008306Y024071D01*
X008297Y024109D01*
X008291Y024148D01*
X008289Y024187D01*
X007539Y024187D01*
X007539Y016187D01*
X009839Y016187D01*
X009839Y024187D01*
X006139Y024187D02*
X006139Y025187D01*
X006137Y025204D01*
X006133Y025221D01*
X006126Y025237D01*
X006116Y025251D01*
X006103Y025264D01*
X006089Y025274D01*
X006073Y025281D01*
X006056Y025285D01*
X006039Y025287D01*
X003339Y025287D01*
X003322Y025285D01*
X003305Y025281D01*
X003289Y025274D01*
X003275Y025264D01*
X003262Y025251D01*
X003252Y025237D01*
X003245Y025221D01*
X003241Y025204D01*
X003239Y025187D01*
X003239Y024187D01*
X003241Y024170D01*
X003245Y024153D01*
X003252Y024137D01*
X003262Y024123D01*
X003275Y024110D01*
X003289Y024100D01*
X003305Y024093D01*
X003322Y024089D01*
X003339Y024087D01*
X006039Y024087D01*
X006056Y024089D01*
X006073Y024093D01*
X006089Y024100D01*
X006103Y024110D01*
X006116Y024123D01*
X006126Y024137D01*
X006133Y024153D01*
X006137Y024170D01*
X006139Y024187D01*
X005289Y024687D02*
X004809Y024687D01*
X004559Y024687D02*
X004089Y024687D01*
X003039Y021437D02*
X002339Y021437D01*
X002322Y021435D01*
X002305Y021431D01*
X002289Y021424D01*
X002275Y021414D01*
X002262Y021401D01*
X002252Y021387D01*
X002245Y021371D01*
X002241Y021354D01*
X002239Y021337D01*
X002239Y021187D01*
X002289Y021137D01*
X002289Y019237D01*
X002239Y019187D01*
X002239Y019037D01*
X002241Y019020D01*
X002245Y019003D01*
X002252Y018987D01*
X002262Y018973D01*
X002275Y018960D01*
X002289Y018950D01*
X002305Y018943D01*
X002322Y018939D01*
X002339Y018937D01*
X003039Y018937D01*
X003056Y018939D01*
X003073Y018943D01*
X003089Y018950D01*
X003103Y018960D01*
X003116Y018973D01*
X003126Y018987D01*
X003133Y019003D01*
X003137Y019020D01*
X003139Y019037D01*
X003139Y019187D01*
X003089Y019237D01*
X003089Y021137D01*
X003139Y021187D01*
X003139Y021337D01*
X003137Y021354D01*
X003133Y021371D01*
X003126Y021387D01*
X003116Y021401D01*
X003103Y021414D01*
X003089Y021424D01*
X003073Y021431D01*
X003056Y021435D01*
X003039Y021437D01*
X002189Y015687D02*
X002191Y015750D01*
X002197Y015812D01*
X002207Y015874D01*
X002220Y015936D01*
X002238Y015996D01*
X002259Y016055D01*
X002284Y016113D01*
X002313Y016169D01*
X002345Y016223D01*
X002380Y016275D01*
X002418Y016324D01*
X002460Y016372D01*
X002504Y016416D01*
X002552Y016458D01*
X002601Y016496D01*
X002653Y016531D01*
X002707Y016563D01*
X002763Y016592D01*
X002821Y016617D01*
X002880Y016638D01*
X002940Y016656D01*
X003002Y016669D01*
X003064Y016679D01*
X003126Y016685D01*
X003189Y016687D01*
X003252Y016685D01*
X003314Y016679D01*
X003376Y016669D01*
X003438Y016656D01*
X003498Y016638D01*
X003557Y016617D01*
X003615Y016592D01*
X003671Y016563D01*
X003725Y016531D01*
X003777Y016496D01*
X003826Y016458D01*
X003874Y016416D01*
X003918Y016372D01*
X003960Y016324D01*
X003998Y016275D01*
X004033Y016223D01*
X004065Y016169D01*
X004094Y016113D01*
X004119Y016055D01*
X004140Y015996D01*
X004158Y015936D01*
X004171Y015874D01*
X004181Y015812D01*
X004187Y015750D01*
X004189Y015687D01*
X004187Y015624D01*
X004181Y015562D01*
X004171Y015500D01*
X004158Y015438D01*
X004140Y015378D01*
X004119Y015319D01*
X004094Y015261D01*
X004065Y015205D01*
X004033Y015151D01*
X003998Y015099D01*
X003960Y015050D01*
X003918Y015002D01*
X003874Y014958D01*
X003826Y014916D01*
X003777Y014878D01*
X003725Y014843D01*
X003671Y014811D01*
X003615Y014782D01*
X003557Y014757D01*
X003498Y014736D01*
X003438Y014718D01*
X003376Y014705D01*
X003314Y014695D01*
X003252Y014689D01*
X003189Y014687D01*
X003126Y014689D01*
X003064Y014695D01*
X003002Y014705D01*
X002940Y014718D01*
X002880Y014736D01*
X002821Y014757D01*
X002763Y014782D01*
X002707Y014811D01*
X002653Y014843D01*
X002601Y014878D01*
X002552Y014916D01*
X002504Y014958D01*
X002460Y015002D01*
X002418Y015050D01*
X002380Y015099D01*
X002345Y015151D01*
X002313Y015205D01*
X002284Y015261D01*
X002259Y015319D01*
X002238Y015378D01*
X002220Y015438D01*
X002207Y015500D01*
X002197Y015562D01*
X002191Y015624D01*
X002189Y015687D01*
X005870Y013049D02*
X005870Y012325D01*
X007509Y012325D01*
X007509Y013049D01*
X005870Y013049D01*
X006089Y012687D02*
X006689Y012687D01*
X006689Y012937D01*
X006689Y012687D02*
X006689Y012437D01*
X006689Y012687D02*
X006289Y012937D01*
X006289Y012437D01*
X006689Y012687D01*
X006939Y012687D01*
X007509Y011049D02*
X005870Y011049D01*
X005870Y010325D01*
X007509Y010325D01*
X007509Y011049D01*
X007289Y010687D02*
X006689Y010687D01*
X006689Y010437D01*
X006689Y010687D02*
X006689Y010937D01*
X006689Y010687D02*
X007089Y010937D01*
X007089Y010437D01*
X006689Y010687D01*
X006439Y010687D01*
X005870Y009049D02*
X005870Y008325D01*
X007509Y008325D01*
X007509Y009049D01*
X005870Y009049D01*
X006439Y008687D02*
X006689Y008687D01*
X006689Y008437D01*
X006689Y008687D02*
X006689Y008937D01*
X006689Y008687D02*
X007089Y008937D01*
X007089Y008437D01*
X006689Y008687D01*
X007289Y008687D01*
X007509Y007049D02*
X007509Y006325D01*
X005870Y006325D01*
X005870Y007049D01*
X007509Y007049D01*
X006939Y006687D02*
X006689Y006687D01*
X006689Y006937D01*
X006689Y006687D02*
X006689Y006437D01*
X006689Y006687D02*
X006089Y006687D01*
X006289Y006437D02*
X006289Y006937D01*
X006689Y006687D01*
X006289Y006437D01*
X009870Y007325D02*
X011509Y007325D01*
X011509Y008049D01*
X009870Y008049D01*
X009870Y007325D01*
X010089Y007687D02*
X010689Y007687D01*
X010689Y007937D01*
X010689Y007687D02*
X010689Y007437D01*
X010689Y007687D02*
X010289Y007437D01*
X010289Y007937D01*
X010689Y007687D01*
X010939Y007687D01*
X011509Y009325D02*
X009870Y009325D01*
X009870Y010049D01*
X011509Y010049D01*
X011509Y009325D01*
X011289Y009687D02*
X010689Y009687D01*
X010689Y009437D01*
X010689Y009687D02*
X010689Y009937D01*
X010689Y009687D02*
X011089Y009937D01*
X011089Y009437D01*
X010689Y009687D01*
X010439Y009687D01*
X009870Y011325D02*
X009870Y012049D01*
X011509Y012049D01*
X011509Y011325D01*
X009870Y011325D01*
X010439Y011687D02*
X010689Y011687D01*
X010689Y011437D01*
X010689Y011687D02*
X010689Y011937D01*
X010689Y011687D02*
X011089Y011937D01*
X011089Y011437D01*
X010689Y011687D01*
X011289Y011687D01*
X011509Y013325D02*
X009870Y013325D01*
X009870Y014049D01*
X011509Y014049D01*
X011509Y013325D01*
X010939Y013687D02*
X010689Y013687D01*
X010689Y013937D01*
X010689Y013687D02*
X010689Y013437D01*
X010689Y013687D02*
X010289Y013437D01*
X010289Y013937D01*
X010689Y013687D01*
X010089Y013687D01*
X013870Y013049D02*
X013870Y012325D01*
X015509Y012325D01*
X015509Y013049D01*
X013870Y013049D01*
X014089Y012687D02*
X014689Y012687D01*
X014689Y012937D01*
X014689Y012687D02*
X014689Y012437D01*
X014689Y012687D02*
X014289Y012937D01*
X014289Y012437D01*
X014689Y012687D01*
X014939Y012687D01*
X015509Y011049D02*
X013870Y011049D01*
X013870Y010325D01*
X015509Y010325D01*
X015509Y011049D01*
X015289Y010687D02*
X014689Y010687D01*
X014689Y010437D01*
X014689Y010687D02*
X014689Y010937D01*
X014689Y010687D02*
X015089Y010937D01*
X015089Y010437D01*
X014689Y010687D01*
X014439Y010687D01*
X013870Y009049D02*
X013870Y008325D01*
X015509Y008325D01*
X015509Y009049D01*
X013870Y009049D01*
X014439Y008687D02*
X014689Y008687D01*
X014689Y008437D01*
X014689Y008687D02*
X014689Y008937D01*
X014689Y008687D02*
X015089Y008937D01*
X015089Y008437D01*
X014689Y008687D01*
X015289Y008687D01*
X015509Y007049D02*
X015509Y006325D01*
X013870Y006325D01*
X013870Y007049D01*
X015509Y007049D01*
X014939Y006687D02*
X014689Y006687D01*
X014689Y006937D01*
X014689Y006687D02*
X014689Y006437D01*
X014689Y006687D02*
X014089Y006687D01*
X014289Y006437D02*
X014289Y006937D01*
X014689Y006687D01*
X014289Y006437D01*
X017870Y007325D02*
X019509Y007325D01*
X019509Y008049D01*
X017870Y008049D01*
X017870Y007325D01*
X018089Y007687D02*
X018689Y007687D01*
X018689Y007937D01*
X018689Y007687D02*
X018689Y007437D01*
X018689Y007687D02*
X018289Y007437D01*
X018289Y007937D01*
X018689Y007687D01*
X018939Y007687D01*
X019509Y009325D02*
X017870Y009325D01*
X017870Y010049D01*
X019509Y010049D01*
X019509Y009325D01*
X019289Y009687D02*
X018689Y009687D01*
X018689Y009437D01*
X018689Y009687D02*
X018689Y009937D01*
X018689Y009687D02*
X019089Y009937D01*
X019089Y009437D01*
X018689Y009687D01*
X018439Y009687D01*
X017870Y011325D02*
X017870Y012049D01*
X019509Y012049D01*
X019509Y011325D01*
X017870Y011325D01*
X018439Y011687D02*
X018689Y011687D01*
X018689Y011437D01*
X018689Y011687D02*
X018689Y011937D01*
X018689Y011687D02*
X019089Y011937D01*
X019089Y011437D01*
X018689Y011687D01*
X019289Y011687D01*
X019509Y013325D02*
X017870Y013325D01*
X017870Y014049D01*
X019509Y014049D01*
X019509Y013325D01*
X018939Y013687D02*
X018689Y013687D01*
X018689Y013937D01*
X018689Y013687D02*
X018689Y013437D01*
X018689Y013687D02*
X018289Y013437D01*
X018289Y013937D01*
X018689Y013687D01*
X018089Y013687D01*
X028589Y024937D02*
X029289Y024937D01*
X029306Y024939D01*
X029323Y024943D01*
X029339Y024950D01*
X029353Y024960D01*
X029366Y024973D01*
X029376Y024987D01*
X029383Y025003D01*
X029387Y025020D01*
X029389Y025037D01*
X029389Y025187D01*
X029339Y025237D01*
X029339Y027137D01*
X029389Y027187D01*
X029389Y027337D01*
X029387Y027354D01*
X029383Y027371D01*
X029376Y027387D01*
X029366Y027401D01*
X029353Y027414D01*
X029339Y027424D01*
X029323Y027431D01*
X029306Y027435D01*
X029289Y027437D01*
X028589Y027437D01*
X028572Y027435D01*
X028555Y027431D01*
X028539Y027424D01*
X028525Y027414D01*
X028512Y027401D01*
X028502Y027387D01*
X028495Y027371D01*
X028491Y027354D01*
X028489Y027337D01*
X028489Y027187D01*
X028539Y027137D01*
X028539Y025237D01*
X028489Y025187D01*
X028489Y025037D01*
X028491Y025020D01*
X028495Y025003D01*
X028502Y024987D01*
X028512Y024973D01*
X028525Y024960D01*
X028539Y024950D01*
X028555Y024943D01*
X028572Y024939D01*
X028589Y024937D01*
X037939Y042987D02*
X038939Y042987D01*
X038956Y042989D01*
X038973Y042993D01*
X038989Y043000D01*
X039003Y043010D01*
X039016Y043023D01*
X039026Y043037D01*
X039033Y043053D01*
X039037Y043070D01*
X039039Y043087D01*
X039039Y045787D01*
X039037Y045804D01*
X039033Y045821D01*
X039026Y045837D01*
X039016Y045851D01*
X039003Y045864D01*
X038989Y045874D01*
X038973Y045881D01*
X038956Y045885D01*
X038939Y045887D01*
X037939Y045887D01*
X037922Y045885D01*
X037905Y045881D01*
X037889Y045874D01*
X037875Y045864D01*
X037862Y045851D01*
X037852Y045837D01*
X037845Y045821D01*
X037841Y045804D01*
X037839Y045787D01*
X037839Y043087D01*
X037841Y043070D01*
X037845Y043053D01*
X037852Y043037D01*
X037862Y043023D01*
X037875Y043010D01*
X037889Y043000D01*
X037905Y042993D01*
X037922Y042989D01*
X037939Y042987D01*
X038439Y043837D02*
X038439Y044317D01*
X038439Y044567D02*
X038439Y045037D01*
X037339Y046487D02*
X037189Y046487D01*
X037139Y046537D01*
X035239Y046537D01*
X035189Y046487D01*
X035039Y046487D01*
X035022Y046489D01*
X035005Y046493D01*
X034989Y046500D01*
X034975Y046510D01*
X034962Y046523D01*
X034952Y046537D01*
X034945Y046553D01*
X034941Y046570D01*
X034939Y046587D01*
X034939Y047287D01*
X034941Y047304D01*
X034945Y047321D01*
X034952Y047337D01*
X034962Y047351D01*
X034975Y047364D01*
X034989Y047374D01*
X035005Y047381D01*
X035022Y047385D01*
X035039Y047387D01*
X035189Y047387D01*
X035239Y047337D01*
X037139Y047337D01*
X037189Y047387D01*
X037339Y047387D01*
X037356Y047385D01*
X037373Y047381D01*
X037389Y047374D01*
X037403Y047364D01*
X037416Y047351D01*
X037426Y047337D01*
X037433Y047321D01*
X037437Y047304D01*
X037439Y047287D01*
X037439Y046587D01*
X037437Y046570D01*
X037433Y046553D01*
X037426Y046537D01*
X037416Y046523D01*
X037403Y046510D01*
X037389Y046500D01*
X037373Y046493D01*
X037356Y046489D01*
X037339Y046487D01*
X037189Y049687D02*
X037191Y049750D01*
X037197Y049812D01*
X037207Y049874D01*
X037220Y049936D01*
X037238Y049996D01*
X037259Y050055D01*
X037284Y050113D01*
X037313Y050169D01*
X037345Y050223D01*
X037380Y050275D01*
X037418Y050324D01*
X037460Y050372D01*
X037504Y050416D01*
X037552Y050458D01*
X037601Y050496D01*
X037653Y050531D01*
X037707Y050563D01*
X037763Y050592D01*
X037821Y050617D01*
X037880Y050638D01*
X037940Y050656D01*
X038002Y050669D01*
X038064Y050679D01*
X038126Y050685D01*
X038189Y050687D01*
X038252Y050685D01*
X038314Y050679D01*
X038376Y050669D01*
X038438Y050656D01*
X038498Y050638D01*
X038557Y050617D01*
X038615Y050592D01*
X038671Y050563D01*
X038725Y050531D01*
X038777Y050496D01*
X038826Y050458D01*
X038874Y050416D01*
X038918Y050372D01*
X038960Y050324D01*
X038998Y050275D01*
X039033Y050223D01*
X039065Y050169D01*
X039094Y050113D01*
X039119Y050055D01*
X039140Y049996D01*
X039158Y049936D01*
X039171Y049874D01*
X039181Y049812D01*
X039187Y049750D01*
X039189Y049687D01*
X039187Y049624D01*
X039181Y049562D01*
X039171Y049500D01*
X039158Y049438D01*
X039140Y049378D01*
X039119Y049319D01*
X039094Y049261D01*
X039065Y049205D01*
X039033Y049151D01*
X038998Y049099D01*
X038960Y049050D01*
X038918Y049002D01*
X038874Y048958D01*
X038826Y048916D01*
X038777Y048878D01*
X038725Y048843D01*
X038671Y048811D01*
X038615Y048782D01*
X038557Y048757D01*
X038498Y048736D01*
X038438Y048718D01*
X038376Y048705D01*
X038314Y048695D01*
X038252Y048689D01*
X038189Y048687D01*
X038126Y048689D01*
X038064Y048695D01*
X038002Y048705D01*
X037940Y048718D01*
X037880Y048736D01*
X037821Y048757D01*
X037763Y048782D01*
X037707Y048811D01*
X037653Y048843D01*
X037601Y048878D01*
X037552Y048916D01*
X037504Y048958D01*
X037460Y049002D01*
X037418Y049050D01*
X037380Y049099D01*
X037345Y049151D01*
X037313Y049205D01*
X037284Y049261D01*
X037259Y049319D01*
X037238Y049378D01*
X037220Y049438D01*
X037207Y049500D01*
X037197Y049562D01*
X037191Y049624D01*
X037189Y049687D01*
X025889Y056287D02*
X025889Y057087D01*
X025887Y057104D01*
X025883Y057121D01*
X025876Y057137D01*
X025866Y057151D01*
X025853Y057164D01*
X025839Y057174D01*
X025823Y057181D01*
X025806Y057185D01*
X025789Y057187D01*
X024089Y057187D01*
X024072Y057185D01*
X024055Y057181D01*
X024039Y057174D01*
X024025Y057164D01*
X024012Y057151D01*
X024002Y057137D01*
X023995Y057121D01*
X023991Y057104D01*
X023989Y057087D01*
X023989Y056287D01*
X023991Y056270D01*
X023995Y056253D01*
X024002Y056237D01*
X024012Y056223D01*
X024025Y056210D01*
X024039Y056200D01*
X024055Y056193D01*
X024072Y056189D01*
X024089Y056187D01*
X025789Y056187D01*
X025806Y056189D01*
X025823Y056193D01*
X025839Y056200D01*
X025853Y056210D01*
X025866Y056223D01*
X025876Y056237D01*
X025883Y056253D01*
X025887Y056270D01*
X025889Y056287D01*
X025089Y056687D02*
X025039Y056687D01*
X024839Y056687D02*
X024789Y056687D01*
X020189Y056337D02*
X020189Y057087D01*
X013189Y057087D01*
X013189Y054787D01*
X020189Y054787D01*
X020189Y055537D01*
X020150Y055539D01*
X020111Y055545D01*
X020073Y055554D01*
X020036Y055567D01*
X020000Y055584D01*
X019967Y055604D01*
X019935Y055628D01*
X019906Y055654D01*
X019880Y055683D01*
X019856Y055715D01*
X019836Y055748D01*
X019819Y055784D01*
X019806Y055821D01*
X019797Y055859D01*
X019791Y055898D01*
X019789Y055937D01*
X019791Y055976D01*
X019797Y056015D01*
X019806Y056053D01*
X019819Y056090D01*
X019836Y056126D01*
X019856Y056159D01*
X019880Y056191D01*
X019906Y056220D01*
X019935Y056246D01*
X019967Y056270D01*
X020000Y056290D01*
X020036Y056307D01*
X020073Y056320D01*
X020111Y056329D01*
X020150Y056335D01*
X020189Y056337D01*
X017689Y051337D02*
X017689Y049037D01*
X010689Y049037D01*
X010689Y049787D01*
X010728Y049789D01*
X010767Y049795D01*
X010805Y049804D01*
X010842Y049817D01*
X010878Y049834D01*
X010911Y049854D01*
X010943Y049878D01*
X010972Y049904D01*
X010998Y049933D01*
X011022Y049965D01*
X011042Y049998D01*
X011059Y050034D01*
X011072Y050071D01*
X011081Y050109D01*
X011087Y050148D01*
X011089Y050187D01*
X011087Y050226D01*
X011081Y050265D01*
X011072Y050303D01*
X011059Y050340D01*
X011042Y050376D01*
X011022Y050409D01*
X010998Y050441D01*
X010972Y050470D01*
X010943Y050496D01*
X010911Y050520D01*
X010878Y050540D01*
X010842Y050557D01*
X010805Y050570D01*
X010767Y050579D01*
X010728Y050585D01*
X010689Y050587D01*
X010689Y051337D01*
X017689Y051337D01*
X012389Y056037D02*
X012389Y056837D01*
X012387Y056854D01*
X012383Y056871D01*
X012376Y056887D01*
X012366Y056901D01*
X012353Y056914D01*
X012339Y056924D01*
X012323Y056931D01*
X012306Y056935D01*
X012289Y056937D01*
X010589Y056937D01*
X010572Y056935D01*
X010555Y056931D01*
X010539Y056924D01*
X010525Y056914D01*
X010512Y056901D01*
X010502Y056887D01*
X010495Y056871D01*
X010491Y056854D01*
X010489Y056837D01*
X010489Y056037D01*
X010491Y056020D01*
X010495Y056003D01*
X010502Y055987D01*
X010512Y055973D01*
X010525Y055960D01*
X010539Y055950D01*
X010555Y055943D01*
X010572Y055939D01*
X010589Y055937D01*
X012289Y055937D01*
X012306Y055939D01*
X012323Y055943D01*
X012339Y055950D01*
X012353Y055960D01*
X012366Y055973D01*
X012376Y055987D01*
X012383Y056003D01*
X012387Y056020D01*
X012389Y056037D01*
X011589Y056437D02*
X011539Y056437D01*
X011339Y056437D02*
X011289Y056437D01*
X009839Y051137D02*
X009039Y051137D01*
X009022Y051135D01*
X009005Y051131D01*
X008989Y051124D01*
X008975Y051114D01*
X008962Y051101D01*
X008952Y051087D01*
X008945Y051071D01*
X008941Y051054D01*
X008939Y051037D01*
X008939Y049337D01*
X008941Y049320D01*
X008945Y049303D01*
X008952Y049287D01*
X008962Y049273D01*
X008975Y049260D01*
X008989Y049250D01*
X009005Y049243D01*
X009022Y049239D01*
X009039Y049237D01*
X009839Y049237D01*
X009856Y049239D01*
X009873Y049243D01*
X009889Y049250D01*
X009903Y049260D01*
X009916Y049273D01*
X009926Y049287D01*
X009933Y049303D01*
X009937Y049320D01*
X009939Y049337D01*
X009939Y051037D01*
X009937Y051054D01*
X009933Y051071D01*
X009926Y051087D01*
X009916Y051101D01*
X009903Y051114D01*
X009889Y051124D01*
X009873Y051131D01*
X009856Y051135D01*
X009839Y051137D01*
X009439Y050337D02*
X009439Y050287D01*
X009439Y050087D02*
X009439Y050037D01*
X007339Y052687D02*
X006589Y052687D01*
X006587Y052726D01*
X006581Y052765D01*
X006572Y052803D01*
X006559Y052840D01*
X006542Y052876D01*
X006522Y052909D01*
X006498Y052941D01*
X006472Y052970D01*
X006443Y052996D01*
X006411Y053020D01*
X006378Y053040D01*
X006342Y053057D01*
X006305Y053070D01*
X006267Y053079D01*
X006228Y053085D01*
X006189Y053087D01*
X006150Y053085D01*
X006111Y053079D01*
X006073Y053070D01*
X006036Y053057D01*
X006000Y053040D01*
X005967Y053020D01*
X005935Y052996D01*
X005906Y052970D01*
X005880Y052941D01*
X005856Y052909D01*
X005836Y052876D01*
X005819Y052840D01*
X005806Y052803D01*
X005797Y052765D01*
X005791Y052726D01*
X005789Y052687D01*
X005039Y052687D01*
X005039Y059687D01*
X007339Y059687D01*
X007339Y052687D01*
X007039Y051687D02*
X005339Y051687D01*
X005322Y051685D01*
X005305Y051681D01*
X005289Y051674D01*
X005275Y051664D01*
X005262Y051651D01*
X005252Y051637D01*
X005245Y051621D01*
X005241Y051604D01*
X005239Y051587D01*
X005239Y050787D01*
X005241Y050770D01*
X005245Y050753D01*
X005252Y050737D01*
X005262Y050723D01*
X005275Y050710D01*
X005289Y050700D01*
X005305Y050693D01*
X005322Y050689D01*
X005339Y050687D01*
X007039Y050687D01*
X007056Y050689D01*
X007073Y050693D01*
X007089Y050700D01*
X007103Y050710D01*
X007116Y050723D01*
X007126Y050737D01*
X007133Y050753D01*
X007137Y050770D01*
X007139Y050787D01*
X007139Y051587D01*
X007137Y051604D01*
X007133Y051621D01*
X007126Y051637D01*
X007116Y051651D01*
X007103Y051664D01*
X007089Y051674D01*
X007073Y051681D01*
X007056Y051685D01*
X007039Y051687D01*
X006339Y051187D02*
X006289Y051187D01*
X006089Y051187D02*
X006039Y051187D01*
X004839Y043537D02*
X007539Y043537D01*
X007556Y043535D01*
X007573Y043531D01*
X007589Y043524D01*
X007603Y043514D01*
X007616Y043501D01*
X007626Y043487D01*
X007633Y043471D01*
X007637Y043454D01*
X007639Y043437D01*
X007639Y042437D01*
X007637Y042420D01*
X007633Y042403D01*
X007626Y042387D01*
X007616Y042373D01*
X007603Y042360D01*
X007589Y042350D01*
X007573Y042343D01*
X007556Y042339D01*
X007539Y042337D01*
X004839Y042337D01*
X004822Y042339D01*
X004805Y042343D01*
X004789Y042350D01*
X004775Y042360D01*
X004762Y042373D01*
X004752Y042387D01*
X004745Y042403D01*
X004741Y042420D01*
X004739Y042437D01*
X004739Y043437D01*
X004741Y043454D01*
X004745Y043471D01*
X004752Y043487D01*
X004762Y043501D01*
X004775Y043514D01*
X004789Y043524D01*
X004805Y043531D01*
X004822Y043535D01*
X004839Y043537D01*
X005589Y042937D02*
X006059Y042937D01*
X006309Y042937D02*
X006789Y042937D01*
X008489Y042537D02*
X008489Y038837D01*
X008491Y038814D01*
X008496Y038791D01*
X008505Y038769D01*
X008518Y038749D01*
X008533Y038731D01*
X008551Y038716D01*
X008571Y038703D01*
X008593Y038694D01*
X008616Y038689D01*
X008639Y038687D01*
X009839Y038687D01*
X010439Y039537D02*
X010439Y039737D01*
X010289Y040037D02*
X010289Y040537D01*
X010039Y040737D01*
X010039Y040837D01*
X010289Y040837D01*
X010289Y041337D01*
X010589Y041337D01*
X010589Y040837D01*
X010839Y040837D01*
X010839Y040737D01*
X010589Y040537D01*
X010589Y040037D01*
X010289Y040037D01*
X009289Y040687D02*
X009291Y040754D01*
X009297Y040822D01*
X009307Y040889D01*
X009321Y040955D01*
X009338Y041020D01*
X009360Y041084D01*
X009385Y041147D01*
X009414Y041208D01*
X009446Y041267D01*
X009482Y041324D01*
X009521Y041379D01*
X009563Y041432D01*
X009608Y041482D01*
X009656Y041529D01*
X009707Y041574D01*
X009760Y041615D01*
X009816Y041654D01*
X009874Y041689D01*
X009934Y041720D01*
X009995Y041748D01*
X010058Y041772D01*
X010122Y041793D01*
X010188Y041809D01*
X010254Y041822D01*
X010321Y041831D01*
X010388Y041836D01*
X010456Y041837D01*
X010523Y041834D01*
X010590Y041827D01*
X010657Y041816D01*
X010723Y041801D01*
X010788Y041783D01*
X010852Y041760D01*
X010914Y041734D01*
X010975Y041705D01*
X011033Y041671D01*
X011090Y041635D01*
X011145Y041595D01*
X011197Y041552D01*
X011246Y041506D01*
X011293Y041457D01*
X011337Y041406D01*
X011377Y041352D01*
X011415Y041296D01*
X011449Y041237D01*
X011479Y041177D01*
X011506Y041115D01*
X011530Y041052D01*
X011549Y040987D01*
X011565Y040922D01*
X011577Y040855D01*
X011585Y040788D01*
X011589Y040721D01*
X011589Y040653D01*
X011585Y040586D01*
X011577Y040519D01*
X011565Y040452D01*
X011549Y040387D01*
X011530Y040322D01*
X011506Y040259D01*
X011479Y040197D01*
X011449Y040137D01*
X011415Y040078D01*
X011377Y040022D01*
X011337Y039968D01*
X011293Y039917D01*
X011246Y039868D01*
X011197Y039822D01*
X011145Y039779D01*
X011090Y039739D01*
X011033Y039703D01*
X010975Y039669D01*
X010914Y039640D01*
X010852Y039614D01*
X010788Y039591D01*
X010723Y039573D01*
X010657Y039558D01*
X010590Y039547D01*
X010523Y039540D01*
X010456Y039537D01*
X010388Y039538D01*
X010321Y039543D01*
X010254Y039552D01*
X010188Y039565D01*
X010122Y039581D01*
X010058Y039602D01*
X009995Y039626D01*
X009934Y039654D01*
X009874Y039685D01*
X009816Y039720D01*
X009760Y039759D01*
X009707Y039800D01*
X009656Y039845D01*
X009608Y039892D01*
X009563Y039942D01*
X009521Y039995D01*
X009482Y040050D01*
X009446Y040107D01*
X009414Y040166D01*
X009385Y040227D01*
X009360Y040290D01*
X009338Y040354D01*
X009321Y040419D01*
X009307Y040485D01*
X009297Y040552D01*
X009291Y040620D01*
X009289Y040687D01*
X009489Y040687D01*
X009839Y041287D02*
X009639Y041487D01*
X009639Y040687D02*
X009641Y040743D01*
X009647Y040800D01*
X009657Y040855D01*
X009671Y040910D01*
X009688Y040964D01*
X009710Y041016D01*
X009735Y041066D01*
X009763Y041115D01*
X009795Y041162D01*
X009830Y041206D01*
X009868Y041248D01*
X009909Y041287D01*
X009953Y041322D01*
X009999Y041355D01*
X010047Y041384D01*
X010097Y041410D01*
X010149Y041433D01*
X010203Y041451D01*
X010257Y041466D01*
X010312Y041477D01*
X010368Y041484D01*
X010425Y041487D01*
X010481Y041486D01*
X010538Y041481D01*
X010593Y041472D01*
X010648Y041459D01*
X010702Y041442D01*
X010755Y041422D01*
X010806Y041398D01*
X010855Y041370D01*
X010902Y041339D01*
X010947Y041305D01*
X010990Y041267D01*
X011029Y041227D01*
X011066Y041184D01*
X011099Y041139D01*
X011129Y041091D01*
X011156Y041041D01*
X011179Y040990D01*
X011199Y040937D01*
X011215Y040883D01*
X011227Y040827D01*
X011235Y040772D01*
X011239Y040715D01*
X011239Y040659D01*
X011235Y040602D01*
X011227Y040547D01*
X011215Y040491D01*
X011199Y040437D01*
X011179Y040384D01*
X011156Y040333D01*
X011129Y040283D01*
X011099Y040235D01*
X011066Y040190D01*
X011029Y040147D01*
X010990Y040107D01*
X010947Y040069D01*
X010902Y040035D01*
X010855Y040004D01*
X010806Y039976D01*
X010755Y039952D01*
X010702Y039932D01*
X010648Y039915D01*
X010593Y039902D01*
X010538Y039893D01*
X010481Y039888D01*
X010425Y039887D01*
X010368Y039890D01*
X010312Y039897D01*
X010257Y039908D01*
X010203Y039923D01*
X010149Y039941D01*
X010097Y039964D01*
X010047Y039990D01*
X009999Y040019D01*
X009953Y040052D01*
X009909Y040087D01*
X009868Y040126D01*
X009830Y040168D01*
X009795Y040212D01*
X009763Y040259D01*
X009735Y040308D01*
X009710Y040358D01*
X009688Y040410D01*
X009671Y040464D01*
X009657Y040519D01*
X009647Y040574D01*
X009641Y040631D01*
X009639Y040687D01*
X009739Y039987D02*
X009639Y039887D01*
X011139Y039987D02*
X011239Y039887D01*
X011039Y038687D02*
X012239Y038687D01*
X012262Y038689D01*
X012285Y038694D01*
X012307Y038703D01*
X012327Y038716D01*
X012345Y038731D01*
X012360Y038749D01*
X012373Y038769D01*
X012382Y038791D01*
X012387Y038814D01*
X012389Y038837D01*
X012389Y042537D01*
X012387Y042560D01*
X012382Y042583D01*
X012373Y042605D01*
X012360Y042625D01*
X012345Y042643D01*
X012327Y042658D01*
X012307Y042671D01*
X012285Y042680D01*
X012262Y042685D01*
X012239Y042687D01*
X011989Y042687D01*
X011239Y041487D02*
X011039Y041287D01*
X011389Y040687D02*
X011589Y040687D01*
X010889Y042687D02*
X009989Y042687D01*
X008889Y042687D02*
X008639Y042687D01*
X008616Y042685D01*
X008593Y042680D01*
X008571Y042671D01*
X008551Y042658D01*
X008533Y042643D01*
X008518Y042625D01*
X008505Y042605D01*
X008496Y042583D01*
X008491Y042560D01*
X008489Y042537D01*
X007539Y039537D02*
X004839Y039537D01*
X004822Y039535D01*
X004805Y039531D01*
X004789Y039524D01*
X004775Y039514D01*
X004762Y039501D01*
X004752Y039487D01*
X004745Y039471D01*
X004741Y039454D01*
X004739Y039437D01*
X004739Y038437D01*
X004741Y038420D01*
X004745Y038403D01*
X004752Y038387D01*
X004762Y038373D01*
X004775Y038360D01*
X004789Y038350D01*
X004805Y038343D01*
X004822Y038339D01*
X004839Y038337D01*
X007539Y038337D01*
X007556Y038339D01*
X007573Y038343D01*
X007589Y038350D01*
X007603Y038360D01*
X007616Y038373D01*
X007626Y038387D01*
X007633Y038403D01*
X007637Y038420D01*
X007639Y038437D01*
X007639Y039437D01*
X007637Y039454D01*
X007633Y039471D01*
X007626Y039487D01*
X007616Y039501D01*
X007603Y039514D01*
X007589Y039524D01*
X007573Y039531D01*
X007556Y039535D01*
X007539Y039537D01*
X006789Y038937D02*
X006319Y038937D01*
X006069Y038937D02*
X005589Y038937D01*
X006889Y036437D02*
X006889Y035437D01*
X008489Y035437D01*
X008489Y036437D01*
X006889Y036437D01*
X007289Y036187D02*
X007289Y035687D01*
X007689Y035937D01*
X007689Y036187D01*
X007689Y035937D02*
X007689Y035687D01*
X007689Y035937D02*
X007089Y035937D01*
X007289Y036187D02*
X007689Y035937D01*
X007939Y035937D01*
X013189Y036587D02*
X013189Y037287D01*
X013191Y037304D01*
X013195Y037321D01*
X013202Y037337D01*
X013212Y037351D01*
X013225Y037364D01*
X013239Y037374D01*
X013255Y037381D01*
X013272Y037385D01*
X013289Y037387D01*
X013439Y037387D01*
X013489Y037337D01*
X015389Y037337D01*
X015439Y037387D01*
X015589Y037387D01*
X015606Y037385D01*
X015623Y037381D01*
X015639Y037374D01*
X015653Y037364D01*
X015666Y037351D01*
X015676Y037337D01*
X015683Y037321D01*
X015687Y037304D01*
X015689Y037287D01*
X015689Y036587D01*
X015687Y036570D01*
X015683Y036553D01*
X015676Y036537D01*
X015666Y036523D01*
X015653Y036510D01*
X015639Y036500D01*
X015623Y036493D01*
X015606Y036489D01*
X015589Y036487D01*
X015439Y036487D01*
X015389Y036537D01*
X013489Y036537D01*
X013439Y036487D01*
X013289Y036487D01*
X013272Y036489D01*
X013255Y036493D01*
X013239Y036500D01*
X013225Y036510D01*
X013212Y036523D01*
X013202Y036537D01*
X013195Y036553D01*
X013191Y036570D01*
X013189Y036587D01*
D13*
X013714Y035662D02*
X014015Y035662D01*
X013864Y035662D02*
X013864Y035212D01*
X014175Y035212D02*
X014475Y035212D01*
X014325Y035212D02*
X014325Y035662D01*
X014175Y035512D01*
X013485Y034837D02*
X013327Y034837D01*
X013264Y034287D02*
X011615Y034287D01*
X011552Y034837D02*
X011394Y034837D01*
X012327Y034837D02*
X012552Y034837D01*
X011614Y034287D02*
X011579Y034335D01*
X011546Y034385D01*
X011515Y034437D01*
X011488Y034491D01*
X011464Y034546D01*
X011444Y034603D01*
X011426Y034660D01*
X011412Y034718D01*
X011401Y034777D01*
X011394Y034837D01*
X012749Y035940D02*
X012809Y035920D01*
X012868Y035896D01*
X012925Y035868D01*
X012980Y035837D01*
X013034Y035802D01*
X013085Y035765D01*
X013134Y035724D01*
X013180Y035680D01*
X013224Y035634D01*
X013265Y035585D01*
X013303Y035534D01*
X013337Y035481D01*
X013369Y035425D01*
X013396Y035368D01*
X013421Y035309D01*
X013441Y035249D01*
X013459Y035188D01*
X013472Y035126D01*
X013481Y035063D01*
X013487Y035000D01*
X013489Y034936D01*
X013487Y034872D01*
X013481Y034809D01*
X013472Y034746D01*
X013458Y034684D01*
X013441Y034623D01*
X013420Y034563D01*
X013396Y034504D01*
X013368Y034447D01*
X013336Y034391D01*
X013301Y034338D01*
X013264Y034287D01*
X011394Y034837D02*
X011390Y034899D01*
X011389Y034962D01*
X011393Y035024D01*
X011400Y035086D01*
X011410Y035147D01*
X011425Y035208D01*
X011443Y035268D01*
X011464Y035327D01*
X011489Y035384D01*
X011517Y035439D01*
X011548Y035493D01*
X011583Y035545D01*
X011621Y035595D01*
X011661Y035642D01*
X011705Y035687D01*
X011750Y035730D01*
X011799Y035769D01*
X011849Y035806D01*
X011902Y035839D01*
X011956Y035870D01*
X012013Y035897D01*
X012070Y035920D01*
X012129Y035940D01*
X013264Y037562D02*
X013264Y038012D01*
X013489Y038012D01*
X013565Y037937D01*
X013565Y037787D01*
X013489Y037712D01*
X013264Y037712D01*
X013414Y037712D02*
X013565Y037562D01*
X013725Y037562D02*
X014025Y037862D01*
X014025Y037937D01*
X013950Y038012D01*
X013800Y038012D01*
X013725Y037937D01*
X013725Y037562D02*
X014025Y037562D01*
X014185Y037562D02*
X014485Y037862D01*
X014485Y037937D01*
X014410Y038012D01*
X014260Y038012D01*
X014185Y037937D01*
X014185Y037562D02*
X014485Y037562D01*
X013064Y041331D02*
X012614Y041331D01*
X012614Y041556D01*
X012689Y041631D01*
X012839Y041631D01*
X012914Y041556D01*
X012914Y041331D01*
X012914Y041481D02*
X013064Y041631D01*
X013064Y041791D02*
X013064Y042092D01*
X013064Y041941D02*
X012614Y041941D01*
X012764Y041791D01*
X012839Y042252D02*
X012689Y042402D01*
X012614Y042552D01*
X012839Y042477D02*
X012839Y042252D01*
X012989Y042252D01*
X013064Y042327D01*
X013064Y042477D01*
X012989Y042552D01*
X012914Y042552D01*
X012839Y042477D01*
X010514Y049012D02*
X010514Y049162D01*
X010514Y049087D02*
X010064Y049087D01*
X010064Y049012D02*
X010064Y049162D01*
X010139Y049319D02*
X010439Y049319D01*
X010514Y049394D01*
X010514Y049544D01*
X010439Y049619D01*
X010439Y049779D02*
X010514Y049854D01*
X010514Y050004D01*
X010439Y050080D01*
X010289Y050080D01*
X010214Y050004D01*
X010214Y049929D01*
X010289Y049779D01*
X010064Y049779D01*
X010064Y050080D01*
X010139Y049619D02*
X010064Y049544D01*
X010064Y049394D01*
X010139Y049319D01*
X008814Y049387D02*
X008814Y049537D01*
X008739Y049612D01*
X008739Y049772D02*
X008814Y049847D01*
X008814Y049998D01*
X008739Y050073D01*
X008589Y050073D01*
X008514Y049998D01*
X008514Y049923D01*
X008589Y049772D01*
X008364Y049772D01*
X008364Y050073D01*
X008439Y049612D02*
X008364Y049537D01*
X008364Y049387D01*
X008439Y049312D01*
X008739Y049312D01*
X008814Y049387D01*
X007179Y052062D02*
X007029Y052062D01*
X006954Y052137D01*
X006794Y052137D02*
X006719Y052062D01*
X006569Y052062D01*
X006494Y052137D01*
X006494Y052437D01*
X006569Y052512D01*
X006719Y052512D01*
X006794Y052437D01*
X006954Y052437D02*
X007029Y052512D01*
X007179Y052512D01*
X007254Y052437D01*
X007254Y052362D01*
X007179Y052287D01*
X007254Y052212D01*
X007254Y052137D01*
X007179Y052062D01*
X007179Y052287D02*
X007104Y052287D01*
X006337Y052062D02*
X006187Y052062D01*
X006262Y052062D02*
X006262Y052512D01*
X006187Y052512D02*
X006337Y052512D01*
X006075Y052187D02*
X006075Y052112D01*
X006000Y052037D01*
X006075Y051962D01*
X006075Y051887D01*
X006000Y051812D01*
X005850Y051812D01*
X005775Y051887D01*
X005615Y051887D02*
X005539Y051812D01*
X005389Y051812D01*
X005314Y051887D01*
X005314Y052187D01*
X005389Y052262D01*
X005539Y052262D01*
X005615Y052187D01*
X005775Y052187D02*
X005850Y052262D01*
X006000Y052262D01*
X006075Y052187D01*
X006000Y052037D02*
X005925Y052037D01*
X004189Y047937D02*
X003439Y047937D01*
X003439Y045937D01*
X001189Y045937D01*
X001189Y045437D01*
X001689Y045437D01*
X001689Y044437D01*
X001189Y044437D01*
X001189Y043937D01*
X003439Y043937D01*
X003439Y041937D01*
X001189Y041937D01*
X001189Y041437D01*
X001689Y041437D01*
X001689Y040437D01*
X001189Y040437D01*
X001189Y039937D01*
X003439Y039937D01*
X003439Y037937D01*
X001189Y037937D01*
X001189Y037437D01*
X001689Y037437D01*
X001689Y036437D01*
X001189Y036437D01*
X001189Y035937D01*
X003439Y035937D01*
X003439Y037937D01*
X003439Y035937D02*
X004189Y035937D01*
X004189Y039937D01*
X003439Y039937D01*
X003439Y041937D01*
X003439Y039937D02*
X004189Y039937D01*
X004189Y043937D01*
X003439Y043937D01*
X003439Y045937D01*
X003439Y043937D02*
X004189Y043937D01*
X004189Y047937D01*
X003439Y047937D02*
X001189Y047937D01*
X001189Y047437D01*
X001689Y047437D01*
X001689Y046437D01*
X001189Y046437D01*
X001189Y045937D01*
X001189Y045437D02*
X001189Y044437D01*
X001189Y043937D02*
X001189Y043437D01*
X001689Y043437D01*
X001689Y042437D01*
X001189Y042437D01*
X001189Y041937D01*
X001189Y041437D02*
X001189Y040437D01*
X001189Y039937D02*
X001189Y039437D01*
X001689Y039437D01*
X001689Y038437D01*
X001189Y038437D01*
X001189Y037937D01*
X001189Y037437D02*
X001189Y036437D01*
X001189Y035937D02*
X003439Y035937D01*
X003439Y033937D01*
X001189Y033937D01*
X001189Y033437D01*
X001689Y033437D01*
X001689Y032437D01*
X001189Y032437D01*
X001189Y031937D01*
X003439Y031937D01*
X003439Y029937D01*
X001189Y029937D01*
X001189Y029437D01*
X001689Y029437D01*
X001689Y028437D01*
X001189Y028437D01*
X001189Y027937D01*
X003439Y027937D01*
X003439Y025937D01*
X004189Y025937D01*
X004189Y031937D01*
X003439Y031937D01*
X003439Y033937D01*
X003439Y031937D02*
X004189Y031937D01*
X004189Y035937D01*
X003439Y035937D01*
X005439Y034687D02*
X005439Y026187D01*
X009939Y026187D01*
X009939Y034687D01*
X005439Y034687D01*
X006689Y033937D02*
X008689Y033937D01*
X008279Y034812D02*
X008129Y034812D01*
X008054Y034887D01*
X007894Y034887D02*
X007819Y034812D01*
X007669Y034812D01*
X007594Y034887D01*
X007433Y034887D02*
X007433Y035187D01*
X007358Y035262D01*
X007133Y035262D01*
X007133Y034812D01*
X007358Y034812D01*
X007433Y034887D01*
X007594Y035187D02*
X007669Y035262D01*
X007819Y035262D01*
X007894Y035187D01*
X007894Y035112D01*
X007819Y035037D01*
X007894Y034962D01*
X007894Y034887D01*
X007819Y035037D02*
X007744Y035037D01*
X008054Y035187D02*
X008129Y035262D01*
X008279Y035262D01*
X008354Y035187D01*
X008354Y035112D01*
X008279Y035037D01*
X008354Y034962D01*
X008354Y034887D01*
X008279Y034812D01*
X008279Y035037D02*
X008204Y035037D01*
X008439Y030937D02*
X008689Y030937D01*
X008439Y030937D02*
X008439Y028937D01*
X008689Y028937D01*
X008439Y028937D02*
X008439Y026937D01*
X008689Y026937D01*
X008632Y024812D02*
X008332Y024812D01*
X008171Y024737D02*
X008096Y024812D01*
X007946Y024812D01*
X007871Y024737D01*
X007871Y024437D01*
X007946Y024362D01*
X008096Y024362D01*
X008171Y024437D01*
X008332Y024437D02*
X008332Y024362D01*
X008332Y024437D02*
X008632Y024737D01*
X008632Y024812D01*
X007714Y024812D02*
X007564Y024812D01*
X007639Y024812D02*
X007639Y024362D01*
X007564Y024362D02*
X007714Y024362D01*
X005954Y023912D02*
X005954Y023837D01*
X005654Y023537D01*
X005654Y023462D01*
X005494Y023462D02*
X005194Y023462D01*
X005344Y023462D02*
X005344Y023912D01*
X005194Y023762D01*
X005033Y023837D02*
X004958Y023912D01*
X004808Y023912D01*
X004733Y023837D01*
X004733Y023537D01*
X004808Y023462D01*
X004958Y023462D01*
X005033Y023537D01*
X005654Y023912D02*
X005954Y023912D01*
X006689Y026937D02*
X006939Y026937D01*
X006939Y028937D01*
X006939Y030937D01*
X006689Y030937D01*
X006689Y028937D02*
X006939Y028937D01*
X003439Y029937D02*
X003439Y027937D01*
X003439Y025937D02*
X001189Y025937D01*
X001189Y026437D01*
X001689Y026437D01*
X001689Y027437D01*
X001189Y027437D01*
X001189Y026437D01*
X001189Y027437D02*
X001189Y027937D01*
X001189Y028437D02*
X001189Y029437D01*
X001189Y029937D02*
X001189Y030437D01*
X001689Y030437D01*
X001689Y031437D01*
X001189Y031437D01*
X001189Y030437D01*
X001189Y031437D02*
X001189Y031937D01*
X003439Y031937D01*
X001689Y034437D02*
X001189Y034437D01*
X001189Y033937D01*
X001189Y033437D02*
X001189Y032437D01*
X001189Y034437D02*
X001189Y035437D01*
X001689Y035437D01*
X001689Y034437D01*
X001189Y035437D02*
X001189Y035937D01*
X001189Y038437D02*
X001189Y039437D01*
X001189Y039937D02*
X003439Y039937D01*
X004814Y039787D02*
X004889Y039712D01*
X005039Y039712D01*
X005115Y039787D01*
X005275Y039787D02*
X005350Y039712D01*
X005500Y039712D01*
X005575Y039787D01*
X005575Y039862D01*
X005500Y039937D01*
X005425Y039937D01*
X005500Y039937D02*
X005575Y040012D01*
X005575Y040087D01*
X005500Y040162D01*
X005350Y040162D01*
X005275Y040087D01*
X005115Y040087D02*
X005039Y040162D01*
X004889Y040162D01*
X004814Y040087D01*
X004814Y039787D01*
X005735Y039787D02*
X005810Y039712D01*
X005960Y039712D01*
X006035Y039787D01*
X006035Y040087D01*
X005960Y040162D01*
X005810Y040162D01*
X005735Y040087D01*
X005735Y040012D01*
X005810Y039937D01*
X006035Y039937D01*
X006308Y041712D02*
X006458Y041712D01*
X006533Y041787D01*
X006694Y041787D02*
X006769Y041712D01*
X006919Y041712D01*
X006994Y041787D01*
X006994Y041862D01*
X006919Y041937D01*
X006844Y041937D01*
X006919Y041937D02*
X006994Y042012D01*
X006994Y042087D01*
X006919Y042162D01*
X006769Y042162D01*
X006694Y042087D01*
X006533Y042087D02*
X006458Y042162D01*
X006308Y042162D01*
X006233Y042087D01*
X006233Y041787D01*
X006308Y041712D01*
X007154Y041787D02*
X007154Y041862D01*
X007229Y041937D01*
X007379Y041937D01*
X007454Y041862D01*
X007454Y041787D01*
X007379Y041712D01*
X007229Y041712D01*
X007154Y041787D01*
X007229Y041937D02*
X007154Y042012D01*
X007154Y042087D01*
X007229Y042162D01*
X007379Y042162D01*
X007454Y042087D01*
X007454Y042012D01*
X007379Y041937D01*
X003439Y043937D02*
X001189Y043937D01*
X001189Y043437D02*
X001189Y042437D01*
X001189Y046437D02*
X001189Y047437D01*
X011444Y055437D02*
X011519Y055362D01*
X011669Y055362D01*
X011744Y055437D01*
X011904Y055587D02*
X012204Y055587D01*
X012129Y055362D02*
X012129Y055812D01*
X011904Y055587D01*
X011744Y055737D02*
X011669Y055812D01*
X011519Y055812D01*
X011444Y055737D01*
X011444Y055437D01*
X017764Y045262D02*
X017989Y045262D01*
X018065Y045187D01*
X018065Y045037D01*
X017989Y044962D01*
X017764Y044962D01*
X017764Y044812D02*
X017764Y045262D01*
X017914Y044962D02*
X018065Y044812D01*
X018225Y044812D02*
X018525Y044812D01*
X018375Y044812D02*
X018375Y045262D01*
X018225Y045112D01*
X018685Y045112D02*
X018685Y045187D01*
X018760Y045262D01*
X018910Y045262D01*
X018985Y045187D01*
X018985Y045112D01*
X018910Y045037D01*
X018760Y045037D01*
X018685Y045112D01*
X018760Y045037D02*
X018685Y044962D01*
X018685Y044887D01*
X018760Y044812D01*
X018910Y044812D01*
X018985Y044887D01*
X018985Y044962D01*
X018910Y045037D01*
X018985Y044012D02*
X018985Y043937D01*
X018685Y043637D01*
X018685Y043562D01*
X018525Y043562D02*
X018225Y043562D01*
X018375Y043562D02*
X018375Y044012D01*
X018225Y043862D01*
X018065Y043787D02*
X017989Y043712D01*
X017764Y043712D01*
X017764Y043562D02*
X017764Y044012D01*
X017989Y044012D01*
X018065Y043937D01*
X018065Y043787D01*
X017914Y043712D02*
X018065Y043562D01*
X018685Y044012D02*
X018985Y044012D01*
X019714Y045562D02*
X020015Y045562D01*
X019864Y045562D02*
X019864Y046012D01*
X019714Y045862D01*
X019614Y047362D02*
X019464Y047362D01*
X019539Y047362D02*
X019539Y047812D01*
X019464Y047812D02*
X019614Y047812D01*
X019771Y047737D02*
X019771Y047437D01*
X019846Y047362D01*
X019996Y047362D01*
X020071Y047437D01*
X020232Y047437D02*
X020307Y047362D01*
X020457Y047362D01*
X020532Y047437D01*
X020532Y047512D01*
X020457Y047587D01*
X020307Y047587D01*
X020232Y047662D01*
X020232Y047737D01*
X020307Y047812D01*
X020457Y047812D01*
X020532Y047737D01*
X020692Y047812D02*
X020917Y047812D01*
X020992Y047737D01*
X020992Y047587D01*
X020917Y047512D01*
X020692Y047512D01*
X020692Y047362D02*
X020692Y047812D01*
X020071Y047737D02*
X019996Y047812D01*
X019846Y047812D01*
X019771Y047737D01*
X021839Y049587D02*
X021839Y049987D01*
X021839Y050937D01*
X021839Y051287D01*
X021014Y051277D02*
X021014Y051427D01*
X020939Y051502D01*
X020639Y051502D01*
X020564Y051427D01*
X020564Y051277D01*
X020639Y051202D01*
X020714Y051202D01*
X020789Y051277D01*
X020789Y051502D01*
X021014Y051277D02*
X020939Y051202D01*
X021014Y051042D02*
X020864Y050891D01*
X020864Y050966D02*
X020864Y050741D01*
X021014Y050741D02*
X020564Y050741D01*
X020564Y050966D01*
X020639Y051042D01*
X020789Y051042D01*
X020864Y050966D01*
X022639Y051637D02*
X022739Y051637D01*
X022739Y051737D01*
X023339Y051737D01*
X023339Y051637D01*
X023439Y051637D01*
X024239Y051287D02*
X024239Y050937D01*
X024239Y049937D01*
X024239Y049587D01*
X023439Y049237D02*
X023339Y049237D01*
X023339Y049137D01*
X022739Y049137D01*
X022739Y049237D01*
X022639Y049237D01*
X022939Y050437D02*
X022941Y050457D01*
X022947Y050475D01*
X022956Y050493D01*
X022968Y050508D01*
X022983Y050520D01*
X023001Y050529D01*
X023019Y050535D01*
X023039Y050537D01*
X023059Y050535D01*
X023077Y050529D01*
X023095Y050520D01*
X023110Y050508D01*
X023122Y050493D01*
X023131Y050475D01*
X023137Y050457D01*
X023139Y050437D01*
X023137Y050417D01*
X023131Y050399D01*
X023122Y050381D01*
X023110Y050366D01*
X023095Y050354D01*
X023077Y050345D01*
X023059Y050339D01*
X023039Y050337D01*
X023019Y050339D01*
X023001Y050345D01*
X022983Y050354D01*
X022968Y050366D01*
X022956Y050381D01*
X022947Y050399D01*
X022941Y050417D01*
X022939Y050437D01*
X022339Y050437D02*
X022341Y050489D01*
X022347Y050541D01*
X022357Y050593D01*
X022370Y050643D01*
X022387Y050693D01*
X022408Y050741D01*
X022433Y050787D01*
X022461Y050831D01*
X022492Y050873D01*
X022526Y050913D01*
X022563Y050950D01*
X022603Y050984D01*
X022645Y051015D01*
X022689Y051043D01*
X022735Y051068D01*
X022783Y051089D01*
X022833Y051106D01*
X022883Y051119D01*
X022935Y051129D01*
X022987Y051135D01*
X023039Y051137D01*
X023091Y051135D01*
X023143Y051129D01*
X023195Y051119D01*
X023245Y051106D01*
X023295Y051089D01*
X023343Y051068D01*
X023389Y051043D01*
X023433Y051015D01*
X023475Y050984D01*
X023515Y050950D01*
X023552Y050913D01*
X023586Y050873D01*
X023617Y050831D01*
X023645Y050787D01*
X023670Y050741D01*
X023691Y050693D01*
X023708Y050643D01*
X023721Y050593D01*
X023731Y050541D01*
X023737Y050489D01*
X023739Y050437D01*
X023737Y050385D01*
X023731Y050333D01*
X023721Y050281D01*
X023708Y050231D01*
X023691Y050181D01*
X023670Y050133D01*
X023645Y050087D01*
X023617Y050043D01*
X023586Y050001D01*
X023552Y049961D01*
X023515Y049924D01*
X023475Y049890D01*
X023433Y049859D01*
X023389Y049831D01*
X023343Y049806D01*
X023295Y049785D01*
X023245Y049768D01*
X023195Y049755D01*
X023143Y049745D01*
X023091Y049739D01*
X023039Y049737D01*
X022987Y049739D01*
X022935Y049745D01*
X022883Y049755D01*
X022833Y049768D01*
X022783Y049785D01*
X022735Y049806D01*
X022689Y049831D01*
X022645Y049859D01*
X022603Y049890D01*
X022563Y049924D01*
X022526Y049961D01*
X022492Y050001D01*
X022461Y050043D01*
X022433Y050087D01*
X022408Y050133D01*
X022387Y050181D01*
X022370Y050231D01*
X022357Y050281D01*
X022347Y050333D01*
X022341Y050385D01*
X022339Y050437D01*
X023714Y047812D02*
X023714Y047587D01*
X023864Y047662D01*
X023939Y047662D01*
X024015Y047587D01*
X024015Y047437D01*
X023939Y047362D01*
X023789Y047362D01*
X023714Y047437D01*
X023714Y047812D02*
X024015Y047812D01*
X024589Y050741D02*
X024514Y050816D01*
X024514Y050966D01*
X024589Y051042D01*
X024739Y050966D02*
X024814Y051042D01*
X024889Y051042D01*
X024964Y050966D01*
X024964Y050816D01*
X024889Y050741D01*
X024739Y050816D02*
X024739Y050966D01*
X024739Y050816D02*
X024664Y050741D01*
X024589Y050741D01*
X024664Y051202D02*
X024514Y051352D01*
X024964Y051352D01*
X024964Y051202D02*
X024964Y051502D01*
X026564Y051177D02*
X026639Y051252D01*
X026714Y051252D01*
X026789Y051177D01*
X026789Y051027D01*
X026714Y050952D01*
X026639Y050952D01*
X026564Y051027D01*
X026564Y051177D01*
X026789Y051177D02*
X026864Y051252D01*
X026939Y051252D01*
X027014Y051177D01*
X027014Y051027D01*
X026939Y050952D01*
X026864Y050952D01*
X026789Y051027D01*
X026789Y050792D02*
X026864Y050716D01*
X026864Y050491D01*
X027014Y050491D02*
X026564Y050491D01*
X026564Y050716D01*
X026639Y050792D01*
X026789Y050792D01*
X026864Y050641D02*
X027014Y050792D01*
X027814Y050716D02*
X027814Y050491D01*
X028264Y050491D01*
X028114Y050491D02*
X028114Y050716D01*
X028039Y050792D01*
X027889Y050792D01*
X027814Y050716D01*
X027814Y050952D02*
X027814Y051252D01*
X027889Y051252D01*
X028189Y050952D01*
X028264Y050952D01*
X028264Y050792D02*
X028114Y050641D01*
X029064Y050716D02*
X029064Y050491D01*
X029514Y050491D01*
X029364Y050491D02*
X029364Y050716D01*
X029289Y050792D01*
X029139Y050792D01*
X029064Y050716D01*
X029364Y050641D02*
X029514Y050792D01*
X029439Y050952D02*
X029514Y051027D01*
X029514Y051177D01*
X029439Y051252D01*
X029364Y051252D01*
X029289Y051177D01*
X029289Y050952D01*
X029439Y050952D01*
X029289Y050952D02*
X029139Y051102D01*
X029064Y051252D01*
X030314Y051252D02*
X030314Y050952D01*
X030539Y050952D01*
X030464Y051102D01*
X030464Y051177D01*
X030539Y051252D01*
X030689Y051252D01*
X030764Y051177D01*
X030764Y051027D01*
X030689Y050952D01*
X030764Y050792D02*
X030614Y050641D01*
X030614Y050716D02*
X030614Y050491D01*
X030764Y050491D02*
X030314Y050491D01*
X030314Y050716D01*
X030389Y050792D01*
X030539Y050792D01*
X030614Y050716D01*
X031564Y050716D02*
X031564Y050491D01*
X032014Y050491D01*
X031864Y050491D02*
X031864Y050716D01*
X031789Y050792D01*
X031639Y050792D01*
X031564Y050716D01*
X031864Y050641D02*
X032014Y050792D01*
X031789Y050952D02*
X031789Y051252D01*
X031564Y051177D02*
X031789Y050952D01*
X032014Y051177D02*
X031564Y051177D01*
X032814Y051177D02*
X032889Y051252D01*
X032964Y051252D01*
X033039Y051177D01*
X033114Y051252D01*
X033189Y051252D01*
X033264Y051177D01*
X033264Y051027D01*
X033189Y050952D01*
X033264Y050792D02*
X033114Y050641D01*
X033114Y050716D02*
X033114Y050491D01*
X033264Y050491D02*
X032814Y050491D01*
X032814Y050716D01*
X032889Y050792D01*
X033039Y050792D01*
X033114Y050716D01*
X032889Y050952D02*
X032814Y051027D01*
X032814Y051177D01*
X033039Y051177D02*
X033039Y051102D01*
X034064Y051177D02*
X034064Y051027D01*
X034139Y050952D01*
X034139Y050792D02*
X034289Y050792D01*
X034364Y050716D01*
X034364Y050491D01*
X034514Y050491D02*
X034064Y050491D01*
X034064Y050716D01*
X034139Y050792D01*
X034364Y050641D02*
X034514Y050792D01*
X034514Y050952D02*
X034214Y051252D01*
X034139Y051252D01*
X034064Y051177D01*
X034514Y051252D02*
X034514Y050952D01*
X035314Y051102D02*
X035764Y051102D01*
X035764Y050952D02*
X035764Y051252D01*
X035464Y050952D02*
X035314Y051102D01*
X035389Y050792D02*
X035539Y050792D01*
X035614Y050716D01*
X035614Y050491D01*
X035764Y050491D02*
X035314Y050491D01*
X035314Y050716D01*
X035389Y050792D01*
X035614Y050641D02*
X035764Y050792D01*
X037504Y050962D02*
X037954Y050962D01*
X037954Y051262D01*
X037954Y051422D02*
X037504Y051422D01*
X037504Y051723D01*
X037504Y051883D02*
X037504Y052108D01*
X037579Y052183D01*
X037879Y052183D01*
X037954Y052108D01*
X037954Y051883D01*
X037504Y051883D01*
X037729Y051573D02*
X037729Y051422D01*
X037954Y051422D02*
X037954Y051723D01*
X037954Y052343D02*
X037954Y052643D01*
X037954Y052493D02*
X037504Y052493D01*
X037654Y052343D01*
X036160Y048012D02*
X036010Y048012D01*
X035935Y047937D01*
X035935Y047637D01*
X036235Y047937D01*
X036235Y047637D01*
X036160Y047562D01*
X036010Y047562D01*
X035935Y047637D01*
X035775Y047562D02*
X035475Y047562D01*
X035775Y047862D01*
X035775Y047937D01*
X035700Y048012D01*
X035550Y048012D01*
X035475Y047937D01*
X035315Y047937D02*
X035315Y047787D01*
X035239Y047712D01*
X035014Y047712D01*
X035014Y047562D02*
X035014Y048012D01*
X035239Y048012D01*
X035315Y047937D01*
X035164Y047712D02*
X035315Y047562D01*
X036160Y048012D02*
X036235Y047937D01*
X037289Y043823D02*
X037214Y043748D01*
X037214Y043597D01*
X037289Y043522D01*
X037364Y043522D01*
X037439Y043597D01*
X037439Y043748D01*
X037514Y043823D01*
X037589Y043823D01*
X037664Y043748D01*
X037664Y043597D01*
X037589Y043522D01*
X037514Y043522D01*
X037439Y043597D01*
X037439Y043748D02*
X037364Y043823D01*
X037289Y043823D01*
X037289Y043362D02*
X037214Y043287D01*
X037214Y043137D01*
X037289Y043062D01*
X037589Y043062D01*
X037664Y043137D01*
X037664Y043287D01*
X037589Y043362D01*
X036689Y042937D02*
X022689Y042937D01*
X022689Y040937D01*
X036689Y040937D01*
X036689Y042937D01*
X037189Y039437D02*
X037189Y033437D01*
X037939Y033437D01*
X037939Y035437D01*
X040189Y035437D01*
X040189Y035937D01*
X039689Y035937D01*
X039689Y036937D01*
X040189Y036937D01*
X040189Y037437D01*
X037939Y037437D01*
X037939Y039437D01*
X037189Y039437D01*
X037939Y039437D02*
X040189Y039437D01*
X040189Y038937D01*
X039689Y038937D01*
X039689Y037937D01*
X040189Y037937D01*
X040189Y038937D01*
X040189Y037937D02*
X040189Y037437D01*
X040189Y036937D02*
X040189Y035937D01*
X040189Y035437D02*
X040189Y034937D01*
X039689Y034937D01*
X039689Y033937D01*
X040189Y033937D01*
X040189Y034937D01*
X040189Y033937D02*
X040189Y033437D01*
X037939Y033437D01*
X037939Y031437D01*
X040189Y031437D01*
X040189Y031937D01*
X039689Y031937D01*
X039689Y032937D01*
X040189Y032937D01*
X040189Y033437D01*
X037939Y033437D01*
X037189Y033437D01*
X037189Y029437D01*
X037939Y029437D01*
X037939Y031437D01*
X037939Y029437D02*
X037189Y029437D01*
X037189Y025437D01*
X037939Y025437D01*
X037939Y027437D01*
X040189Y027437D01*
X040189Y027937D01*
X039689Y027937D01*
X039689Y028937D01*
X040189Y028937D01*
X040189Y029437D01*
X037939Y029437D01*
X037939Y027437D01*
X037939Y025437D02*
X040189Y025437D01*
X040189Y025937D01*
X039689Y025937D01*
X039689Y026937D01*
X040189Y026937D01*
X040189Y027437D01*
X040189Y026937D02*
X040189Y025937D01*
X040189Y027937D02*
X040189Y028937D01*
X040189Y029437D02*
X040189Y029937D01*
X039689Y029937D01*
X039689Y030937D01*
X040189Y030937D01*
X040189Y031437D01*
X040189Y030937D02*
X040189Y029937D01*
X040189Y029437D02*
X037939Y029437D01*
X036014Y027752D02*
X036014Y027452D01*
X036014Y027602D02*
X035564Y027602D01*
X035714Y027452D01*
X036014Y027292D02*
X036014Y026991D01*
X036014Y027141D02*
X035564Y027141D01*
X035714Y026991D01*
X035639Y026831D02*
X035789Y026831D01*
X035864Y026756D01*
X035864Y026531D01*
X035864Y026681D02*
X036014Y026831D01*
X036014Y026531D02*
X035564Y026531D01*
X035564Y026756D01*
X035639Y026831D01*
X034764Y026831D02*
X034614Y026681D01*
X034614Y026756D02*
X034614Y026531D01*
X034764Y026531D02*
X034314Y026531D01*
X034314Y026756D01*
X034389Y026831D01*
X034539Y026831D01*
X034614Y026756D01*
X034464Y026991D02*
X034314Y027141D01*
X034764Y027141D01*
X034764Y026991D02*
X034764Y027292D01*
X034764Y027452D02*
X034464Y027752D01*
X034389Y027752D01*
X034314Y027677D01*
X034314Y027527D01*
X034389Y027452D01*
X034764Y027452D02*
X034764Y027752D01*
X033017Y024812D02*
X033092Y024737D01*
X032792Y024437D01*
X032867Y024362D01*
X033017Y024362D01*
X033092Y024437D01*
X033092Y024737D01*
X033017Y024812D02*
X032867Y024812D01*
X032792Y024737D01*
X032792Y024437D01*
X032632Y024362D02*
X032332Y024362D01*
X032482Y024362D02*
X032482Y024812D01*
X032332Y024662D01*
X032171Y024737D02*
X032096Y024812D01*
X031946Y024812D01*
X031871Y024737D01*
X031871Y024437D01*
X031946Y024362D01*
X032096Y024362D01*
X032171Y024437D01*
X031714Y024362D02*
X031564Y024362D01*
X031639Y024362D02*
X031639Y024812D01*
X031564Y024812D02*
X031714Y024812D01*
X031839Y026941D02*
X031539Y026941D01*
X031464Y027016D01*
X031464Y027166D01*
X031539Y027242D01*
X031539Y027402D02*
X031614Y027402D01*
X031689Y027477D01*
X031689Y027702D01*
X031539Y027702D02*
X031464Y027627D01*
X031464Y027477D01*
X031539Y027402D01*
X031539Y027702D02*
X031839Y027702D01*
X031914Y027627D01*
X031914Y027477D01*
X031839Y027402D01*
X031839Y027242D02*
X031914Y027166D01*
X031914Y027016D01*
X031839Y026941D01*
X030014Y027027D02*
X029939Y026952D01*
X030014Y027027D02*
X030014Y027177D01*
X029939Y027252D01*
X029864Y027252D01*
X029789Y027177D01*
X029789Y027102D01*
X029789Y027177D02*
X029714Y027252D01*
X029639Y027252D01*
X029564Y027177D01*
X029564Y027027D01*
X029639Y026952D01*
X029564Y026641D02*
X030014Y026641D01*
X030014Y026491D02*
X030014Y026792D01*
X029714Y026491D02*
X029564Y026641D01*
X029639Y026331D02*
X029789Y026331D01*
X029864Y026256D01*
X029864Y026031D01*
X029864Y026181D02*
X030014Y026331D01*
X030014Y026031D02*
X029564Y026031D01*
X029564Y026256D01*
X029639Y026331D01*
X030389Y031962D02*
X030539Y031962D01*
X030615Y032037D01*
X030775Y032037D02*
X030850Y031962D01*
X031000Y031962D01*
X031075Y032037D01*
X031075Y032112D01*
X031000Y032187D01*
X030925Y032187D01*
X031000Y032187D02*
X031075Y032262D01*
X031075Y032337D01*
X031000Y032412D01*
X030850Y032412D01*
X030775Y032337D01*
X030615Y032337D02*
X030539Y032412D01*
X030389Y032412D01*
X030314Y032337D01*
X030314Y032037D01*
X030389Y031962D01*
X031235Y031962D02*
X031535Y032262D01*
X031535Y032337D01*
X031460Y032412D01*
X031310Y032412D01*
X031235Y032337D01*
X031235Y031962D02*
X031535Y031962D01*
X031539Y034691D02*
X031839Y034691D01*
X031914Y034766D01*
X031914Y034916D01*
X031839Y034992D01*
X031839Y035152D02*
X031914Y035227D01*
X031914Y035377D01*
X031839Y035452D01*
X031764Y035452D01*
X031689Y035377D01*
X031689Y035152D01*
X031839Y035152D01*
X031689Y035152D02*
X031539Y035302D01*
X031464Y035452D01*
X031539Y034992D02*
X031464Y034916D01*
X031464Y034766D01*
X031539Y034691D01*
X030339Y036787D02*
X033039Y036787D01*
X033098Y036789D01*
X033156Y036795D01*
X033215Y036804D01*
X033272Y036818D01*
X033328Y036835D01*
X033383Y036856D01*
X033437Y036880D01*
X033489Y036908D01*
X033539Y036939D01*
X033587Y036973D01*
X033632Y037010D01*
X033675Y037051D01*
X033716Y037094D01*
X033753Y037139D01*
X033787Y037187D01*
X033818Y037237D01*
X033846Y037289D01*
X033870Y037343D01*
X033891Y037398D01*
X033908Y037454D01*
X033922Y037511D01*
X033931Y037570D01*
X033937Y037628D01*
X033939Y037687D01*
X033937Y037746D01*
X033931Y037804D01*
X033922Y037863D01*
X033908Y037920D01*
X033891Y037976D01*
X033870Y038031D01*
X033846Y038085D01*
X033818Y038137D01*
X033787Y038187D01*
X033753Y038235D01*
X033716Y038280D01*
X033675Y038323D01*
X033632Y038364D01*
X033587Y038401D01*
X033539Y038435D01*
X033489Y038466D01*
X033437Y038494D01*
X033383Y038518D01*
X033328Y038539D01*
X033272Y038556D01*
X033215Y038570D01*
X033156Y038579D01*
X033098Y038585D01*
X033039Y038587D01*
X030339Y038587D01*
X030475Y038762D02*
X030175Y038762D01*
X030475Y039062D01*
X030475Y039137D01*
X030400Y039212D01*
X030250Y039212D01*
X030175Y039137D01*
X030015Y039212D02*
X029714Y038762D01*
X030015Y038762D02*
X029714Y039212D01*
X030339Y038587D02*
X030280Y038585D01*
X030222Y038579D01*
X030163Y038570D01*
X030106Y038556D01*
X030050Y038539D01*
X029995Y038518D01*
X029941Y038494D01*
X029889Y038466D01*
X029839Y038435D01*
X029791Y038401D01*
X029746Y038364D01*
X029703Y038323D01*
X029662Y038280D01*
X029625Y038235D01*
X029591Y038187D01*
X029560Y038137D01*
X029532Y038085D01*
X029508Y038031D01*
X029487Y037976D01*
X029470Y037920D01*
X029456Y037863D01*
X029447Y037804D01*
X029441Y037746D01*
X029439Y037687D01*
X029441Y037628D01*
X029447Y037570D01*
X029456Y037511D01*
X029470Y037454D01*
X029487Y037398D01*
X029508Y037343D01*
X029532Y037289D01*
X029560Y037237D01*
X029591Y037187D01*
X029625Y037139D01*
X029662Y037094D01*
X029703Y037051D01*
X029746Y037010D01*
X029791Y036973D01*
X029839Y036939D01*
X029889Y036908D01*
X029941Y036880D01*
X029995Y036856D01*
X030050Y036835D01*
X030106Y036818D01*
X030163Y036804D01*
X030222Y036795D01*
X030280Y036789D01*
X030339Y036787D01*
X028242Y035487D02*
X028242Y035412D01*
X028167Y035337D01*
X028242Y035262D01*
X028242Y035187D01*
X028167Y035112D01*
X028017Y035112D01*
X027942Y035187D01*
X027782Y035112D02*
X027482Y035112D01*
X027632Y035112D02*
X027632Y035562D01*
X027482Y035412D01*
X027321Y035487D02*
X027246Y035562D01*
X027096Y035562D01*
X027021Y035487D01*
X027021Y035187D01*
X027096Y035112D01*
X027246Y035112D01*
X027321Y035187D01*
X027054Y035312D02*
X026753Y035312D01*
X026753Y035762D01*
X026593Y035687D02*
X026518Y035762D01*
X026368Y035762D01*
X026293Y035687D01*
X026293Y035387D01*
X026368Y035312D01*
X026518Y035312D01*
X026593Y035387D01*
X026593Y035687D01*
X026714Y035562D02*
X026864Y035562D01*
X026789Y035562D02*
X026789Y035112D01*
X026714Y035112D02*
X026864Y035112D01*
X026133Y035312D02*
X025983Y035462D01*
X026058Y035462D02*
X025833Y035462D01*
X025833Y035312D02*
X025833Y035762D01*
X026058Y035762D01*
X026133Y035687D01*
X026133Y035537D01*
X026058Y035462D01*
X025672Y035762D02*
X025372Y035762D01*
X025522Y035762D02*
X025522Y035312D01*
X025212Y035312D02*
X025212Y035762D01*
X024912Y035762D02*
X025212Y035312D01*
X024912Y035312D02*
X024912Y035762D01*
X024752Y035687D02*
X024677Y035762D01*
X024527Y035762D01*
X024451Y035687D01*
X024451Y035387D01*
X024527Y035312D01*
X024677Y035312D01*
X024752Y035387D01*
X024752Y035687D01*
X024291Y035687D02*
X024216Y035762D01*
X024066Y035762D01*
X023991Y035687D01*
X023991Y035387D01*
X024066Y035312D01*
X024216Y035312D01*
X024291Y035387D01*
X023831Y035237D02*
X023531Y035237D01*
X023371Y035312D02*
X023070Y035312D01*
X023070Y035762D01*
X023371Y035762D01*
X023221Y035537D02*
X023070Y035537D01*
X022910Y035387D02*
X022835Y035312D01*
X022685Y035312D01*
X022610Y035387D01*
X022610Y035687D01*
X022685Y035762D01*
X022835Y035762D01*
X022910Y035687D01*
X022453Y035762D02*
X022303Y035762D01*
X022378Y035762D02*
X022378Y035312D01*
X022303Y035312D02*
X022453Y035312D01*
X022143Y035387D02*
X022143Y035687D01*
X022068Y035762D01*
X021918Y035762D01*
X021843Y035687D01*
X021843Y035387D01*
X021918Y035312D01*
X022068Y035312D01*
X022143Y035387D01*
X021683Y035462D02*
X021683Y035762D01*
X021683Y035462D02*
X021533Y035312D01*
X021382Y035462D01*
X021382Y035762D01*
X021222Y035237D02*
X020922Y035237D01*
X020762Y035387D02*
X020687Y035312D01*
X020537Y035312D01*
X020462Y035387D01*
X020302Y035387D02*
X020227Y035312D01*
X020076Y035312D01*
X020001Y035387D01*
X020302Y035687D01*
X020302Y035387D01*
X020302Y035687D02*
X020227Y035762D01*
X020076Y035762D01*
X020001Y035687D01*
X020001Y035387D01*
X019841Y035537D02*
X019766Y035462D01*
X019541Y035462D01*
X019541Y035312D02*
X019541Y035762D01*
X019766Y035762D01*
X019841Y035687D01*
X019841Y035537D01*
X019381Y035462D02*
X019381Y035387D01*
X019306Y035312D01*
X019156Y035312D01*
X019081Y035387D01*
X019156Y035537D02*
X019306Y035537D01*
X019381Y035462D01*
X019381Y035687D02*
X019306Y035762D01*
X019156Y035762D01*
X019081Y035687D01*
X019081Y035612D01*
X019156Y035537D01*
X018754Y035537D02*
X018529Y035537D01*
X018454Y035612D01*
X018454Y035687D01*
X018529Y035762D01*
X018679Y035762D01*
X018754Y035687D01*
X018754Y035387D01*
X018679Y035312D01*
X018529Y035312D01*
X018454Y035387D01*
X020462Y035687D02*
X020537Y035762D01*
X020687Y035762D01*
X020762Y035687D01*
X020762Y035612D01*
X020687Y035537D01*
X020762Y035462D01*
X020762Y035387D01*
X020687Y035537D02*
X020612Y035537D01*
X021789Y033033D02*
X022089Y032733D01*
X022164Y032808D01*
X022164Y032958D01*
X022089Y033033D01*
X021789Y033033D01*
X021714Y032958D01*
X021714Y032808D01*
X021789Y032733D01*
X022089Y032733D01*
X022164Y032573D02*
X022164Y032272D01*
X022164Y032423D02*
X021714Y032423D01*
X021864Y032272D01*
X021789Y032112D02*
X021714Y032037D01*
X021714Y031887D01*
X021789Y031812D01*
X022089Y031812D01*
X022164Y031887D01*
X022164Y032037D01*
X022089Y032112D01*
X026454Y037112D02*
X026754Y037112D01*
X026604Y037112D02*
X026604Y037562D01*
X026454Y037412D01*
X025485Y039287D02*
X025185Y039287D01*
X025410Y039512D01*
X025410Y039062D01*
X025025Y039062D02*
X024725Y039062D01*
X024875Y039062D02*
X024875Y039512D01*
X024725Y039362D01*
X024565Y039287D02*
X024489Y039212D01*
X024264Y039212D01*
X024264Y039062D02*
X024264Y039512D01*
X024489Y039512D01*
X024565Y039437D01*
X024565Y039287D01*
X024414Y039212D02*
X024565Y039062D01*
X022689Y041687D02*
X022719Y041689D01*
X022749Y041694D01*
X022778Y041703D01*
X022805Y041716D01*
X022831Y041731D01*
X022855Y041750D01*
X022876Y041771D01*
X022895Y041795D01*
X022910Y041821D01*
X022923Y041848D01*
X022932Y041877D01*
X022937Y041907D01*
X022939Y041937D01*
X022937Y041967D01*
X022932Y041997D01*
X022923Y042026D01*
X022910Y042053D01*
X022895Y042079D01*
X022876Y042103D01*
X022855Y042124D01*
X022831Y042143D01*
X022805Y042158D01*
X022778Y042171D01*
X022749Y042180D01*
X022719Y042185D01*
X022689Y042187D01*
X018985Y042137D02*
X018910Y042062D01*
X018760Y042062D01*
X018685Y042137D01*
X018685Y042287D02*
X018835Y042362D01*
X018910Y042362D01*
X018985Y042287D01*
X018985Y042137D01*
X018685Y042287D02*
X018685Y042512D01*
X018985Y042512D01*
X018375Y042512D02*
X018375Y042062D01*
X018225Y042062D02*
X018525Y042062D01*
X018225Y042362D02*
X018375Y042512D01*
X018065Y042437D02*
X018065Y042287D01*
X017989Y042212D01*
X017764Y042212D01*
X017764Y042062D02*
X017764Y042512D01*
X017989Y042512D01*
X018065Y042437D01*
X017914Y042212D02*
X018065Y042062D01*
X020364Y055934D02*
X020364Y056085D01*
X020364Y056009D02*
X020814Y056009D01*
X020814Y055934D02*
X020814Y056085D01*
X020739Y056241D02*
X020814Y056316D01*
X020814Y056466D01*
X020739Y056542D01*
X020589Y056702D02*
X020589Y057002D01*
X020364Y056927D02*
X020589Y056702D01*
X020439Y056542D02*
X020364Y056466D01*
X020364Y056316D01*
X020439Y056241D01*
X020739Y056241D01*
X020814Y056927D02*
X020364Y056927D01*
X024944Y055987D02*
X024944Y055687D01*
X025019Y055612D01*
X025169Y055612D01*
X025244Y055687D01*
X025404Y055612D02*
X025704Y055912D01*
X025704Y055987D01*
X025629Y056062D01*
X025479Y056062D01*
X025404Y055987D01*
X025244Y055987D02*
X025169Y056062D01*
X025019Y056062D01*
X024944Y055987D01*
X025404Y055612D02*
X025704Y055612D01*
X031189Y061037D02*
X031289Y060937D01*
X032089Y060937D01*
X032189Y061037D01*
X032289Y060937D01*
X033089Y060937D01*
X033189Y061037D01*
X033189Y061837D01*
X033089Y061937D01*
X032289Y061937D01*
X032189Y061837D01*
X032089Y061937D01*
X031289Y061937D01*
X031189Y061837D01*
X031189Y061037D01*
X031983Y060762D02*
X032133Y060762D01*
X032058Y060762D02*
X032058Y060387D01*
X031983Y060312D01*
X031908Y060312D01*
X031833Y060387D01*
X032294Y060312D02*
X032294Y060762D01*
X032519Y060762D01*
X032594Y060687D01*
X032594Y060537D01*
X032519Y060462D01*
X032294Y060462D01*
X032754Y060312D02*
X033054Y060312D01*
X032904Y060312D02*
X032904Y060762D01*
X032754Y060612D01*
X036864Y058158D02*
X036939Y058233D01*
X037239Y057933D01*
X037314Y058008D01*
X037314Y058158D01*
X037239Y058233D01*
X036939Y058233D01*
X036864Y058158D02*
X036864Y058008D01*
X036939Y057933D01*
X037239Y057933D01*
X037314Y057773D02*
X037314Y057472D01*
X037314Y057623D02*
X036864Y057623D01*
X037014Y057472D01*
X036939Y057312D02*
X037089Y057312D01*
X037164Y057237D01*
X037164Y057012D01*
X037164Y057162D02*
X037314Y057312D01*
X037314Y057012D02*
X036864Y057012D01*
X036864Y057237D01*
X036939Y057312D01*
X037939Y037437D02*
X037939Y035437D01*
X040189Y032937D02*
X040189Y031937D01*
X039039Y023887D02*
X037889Y023937D01*
X039039Y023887D02*
X039139Y023787D01*
X039139Y020087D01*
X039039Y019987D01*
X037889Y019937D01*
X038799Y020167D02*
X038801Y020187D01*
X038807Y020205D01*
X038816Y020223D01*
X038828Y020238D01*
X038843Y020250D01*
X038861Y020259D01*
X038879Y020265D01*
X038899Y020267D01*
X038919Y020265D01*
X038937Y020259D01*
X038955Y020250D01*
X038970Y020238D01*
X038982Y020223D01*
X038991Y020205D01*
X038997Y020187D01*
X038999Y020167D01*
X038997Y020147D01*
X038991Y020129D01*
X038982Y020111D01*
X038970Y020096D01*
X038955Y020084D01*
X038937Y020075D01*
X038919Y020069D01*
X038899Y020067D01*
X038879Y020069D01*
X038861Y020075D01*
X038843Y020084D01*
X038828Y020096D01*
X038816Y020111D01*
X038807Y020129D01*
X038801Y020147D01*
X038799Y020167D01*
X039344Y020112D02*
X039344Y019962D01*
X039344Y020037D02*
X039794Y020037D01*
X039794Y019962D02*
X039794Y020112D01*
X039719Y020269D02*
X039794Y020344D01*
X039794Y020494D01*
X039719Y020569D01*
X039794Y020729D02*
X039794Y021030D01*
X039794Y020879D02*
X039344Y020879D01*
X039494Y020729D01*
X039419Y020569D02*
X039344Y020494D01*
X039344Y020344D01*
X039419Y020269D01*
X039719Y020269D01*
X039794Y021190D02*
X039794Y021490D01*
X039794Y021340D02*
X039344Y021340D01*
X039494Y021190D01*
X040189Y018187D02*
X037939Y018187D01*
X037939Y016187D01*
X040189Y016187D01*
X040189Y016687D01*
X039689Y016687D01*
X039689Y017687D01*
X040189Y017687D01*
X040189Y018187D01*
X040189Y017687D02*
X040189Y016687D01*
X040189Y016187D02*
X040189Y015687D01*
X039689Y015687D01*
X039689Y014687D01*
X040189Y014687D01*
X040189Y015687D01*
X040189Y014687D02*
X040189Y014187D01*
X037939Y014187D01*
X037939Y012187D01*
X040189Y012187D01*
X040189Y012687D01*
X039689Y012687D01*
X039689Y013687D01*
X040189Y013687D01*
X040189Y014187D01*
X037939Y014187D01*
X037189Y014187D01*
X037189Y010187D01*
X037189Y006187D01*
X037939Y006187D01*
X037939Y008187D01*
X040189Y008187D01*
X040189Y008687D01*
X039689Y008687D01*
X039689Y009687D01*
X040189Y009687D01*
X040189Y010187D01*
X037939Y010187D01*
X037939Y008187D01*
X037939Y006187D02*
X040189Y006187D01*
X040189Y006687D01*
X039689Y006687D01*
X039689Y007687D01*
X040189Y007687D01*
X040189Y008187D01*
X040189Y007687D02*
X040189Y006687D01*
X040189Y008687D02*
X040189Y009687D01*
X040189Y010187D02*
X037939Y010187D01*
X037189Y010187D01*
X037939Y010187D01*
X037939Y012187D01*
X037939Y014187D02*
X037189Y014187D01*
X037189Y018187D01*
X037939Y018187D01*
X037939Y016187D02*
X037939Y014187D01*
X039689Y011687D02*
X040189Y011687D01*
X040189Y012187D01*
X040189Y011687D02*
X040189Y010687D01*
X039689Y010687D01*
X039689Y011687D01*
X040189Y010687D02*
X040189Y010187D01*
X040189Y012687D02*
X040189Y013687D01*
X035354Y012937D02*
X035354Y012862D01*
X035279Y012787D01*
X035354Y012712D01*
X035354Y012637D01*
X035279Y012562D01*
X035129Y012562D01*
X035054Y012637D01*
X034894Y012637D02*
X034894Y012937D01*
X034819Y013012D01*
X034594Y013012D01*
X034594Y012562D01*
X034819Y012562D01*
X034894Y012637D01*
X034675Y012587D02*
X034375Y012587D01*
X034600Y012812D01*
X034600Y012362D01*
X034215Y012437D02*
X034215Y012737D01*
X034139Y012812D01*
X033914Y012812D01*
X033914Y012362D01*
X034139Y012362D01*
X034215Y012437D01*
X035054Y012937D02*
X035129Y013012D01*
X035279Y013012D01*
X035354Y012937D01*
X035279Y012787D02*
X035204Y012787D01*
X034525Y010812D02*
X034525Y010362D01*
X034375Y010362D02*
X034675Y010362D01*
X034375Y010662D02*
X034525Y010812D01*
X034215Y010737D02*
X034215Y010437D01*
X034139Y010362D01*
X033914Y010362D01*
X033914Y010812D01*
X034139Y010812D01*
X034215Y010737D01*
X031354Y011637D02*
X031279Y011562D01*
X031129Y011562D01*
X031054Y011637D01*
X031354Y011937D01*
X031354Y011637D01*
X031135Y011662D02*
X031135Y011737D01*
X031060Y011812D01*
X030910Y011812D01*
X030835Y011737D01*
X030819Y011787D02*
X030894Y011712D01*
X030894Y011637D01*
X030819Y011562D01*
X030669Y011562D01*
X030594Y011637D01*
X030600Y011587D02*
X030675Y011512D01*
X030675Y011437D01*
X030600Y011362D01*
X030450Y011362D01*
X030375Y011437D01*
X030358Y011562D02*
X030433Y011637D01*
X030433Y011937D01*
X030358Y012012D01*
X030133Y012012D01*
X030133Y011562D01*
X030358Y011562D01*
X030525Y011587D02*
X030600Y011587D01*
X030675Y011662D01*
X030675Y011737D01*
X030600Y011812D01*
X030450Y011812D01*
X030375Y011737D01*
X030215Y011737D02*
X030139Y011812D01*
X029914Y011812D01*
X029914Y011362D01*
X030139Y011362D01*
X030215Y011437D01*
X030215Y011737D01*
X030594Y011937D02*
X030669Y012012D01*
X030819Y012012D01*
X030894Y011937D01*
X030894Y011862D01*
X030819Y011787D01*
X030744Y011787D01*
X031054Y011637D02*
X031054Y011937D01*
X031129Y012012D01*
X031279Y012012D01*
X031354Y011937D01*
X031135Y011662D02*
X030835Y011362D01*
X031135Y011362D01*
X031060Y009812D02*
X030910Y009812D01*
X030835Y009737D01*
X030835Y009662D01*
X030910Y009587D01*
X031135Y009587D01*
X031135Y009437D02*
X031135Y009737D01*
X031060Y009812D01*
X031135Y009437D02*
X031060Y009362D01*
X030910Y009362D01*
X030835Y009437D01*
X030675Y009362D02*
X030375Y009362D01*
X030675Y009662D01*
X030675Y009737D01*
X030600Y009812D01*
X030450Y009812D01*
X030375Y009737D01*
X030215Y009737D02*
X030139Y009812D01*
X029914Y009812D01*
X029914Y009362D01*
X030139Y009362D01*
X030215Y009437D01*
X030215Y009737D01*
X030133Y006012D02*
X030358Y006012D01*
X030433Y005937D01*
X030433Y005637D01*
X030358Y005562D01*
X030133Y005562D01*
X030133Y006012D01*
X030594Y005937D02*
X030669Y006012D01*
X030819Y006012D01*
X030894Y005937D01*
X030894Y005862D01*
X030819Y005787D01*
X030894Y005712D01*
X030894Y005637D01*
X030819Y005562D01*
X030669Y005562D01*
X030594Y005637D01*
X030744Y005787D02*
X030819Y005787D01*
X031054Y005862D02*
X031204Y006012D01*
X031204Y005562D01*
X031054Y005562D02*
X031354Y005562D01*
X030689Y004437D02*
X030689Y002187D01*
X031189Y002187D01*
X031189Y002687D01*
X032189Y002687D01*
X032189Y002187D01*
X032689Y002187D01*
X032689Y004437D01*
X030689Y004437D01*
X028689Y004437D01*
X026689Y004437D01*
X026689Y002187D01*
X027189Y002187D01*
X027189Y002687D01*
X028189Y002687D01*
X028189Y002187D01*
X028689Y002187D01*
X028689Y004437D01*
X028689Y005187D01*
X024689Y005187D01*
X020689Y005187D01*
X016689Y005187D01*
X012689Y005187D01*
X008689Y005187D01*
X004689Y005187D01*
X004689Y004437D01*
X006689Y004437D01*
X006689Y002187D01*
X007189Y002187D01*
X007189Y002687D01*
X008189Y002687D01*
X008189Y002187D01*
X008689Y002187D01*
X008689Y004437D01*
X006689Y004437D01*
X006594Y005562D02*
X006894Y005862D01*
X006894Y005937D01*
X006819Y006012D01*
X006669Y006012D01*
X006594Y005937D01*
X006433Y005937D02*
X006358Y006012D01*
X006133Y006012D01*
X006133Y005562D01*
X006358Y005562D01*
X006433Y005637D01*
X006433Y005937D01*
X006594Y005562D02*
X006894Y005562D01*
X007054Y005637D02*
X007129Y005562D01*
X007279Y005562D01*
X007354Y005637D01*
X007354Y005712D01*
X007279Y005787D01*
X007204Y005787D01*
X007279Y005787D02*
X007354Y005862D01*
X007354Y005937D01*
X007279Y006012D01*
X007129Y006012D01*
X007054Y005937D01*
X008689Y005187D02*
X008689Y004437D01*
X010689Y004437D01*
X010689Y002187D01*
X011189Y002187D01*
X011189Y002687D01*
X012189Y002687D01*
X012189Y002187D01*
X012689Y002187D01*
X012689Y004437D01*
X010689Y004437D01*
X010189Y002687D02*
X010189Y002187D01*
X010689Y002187D01*
X010189Y002187D02*
X009189Y002187D01*
X009189Y002687D01*
X010189Y002687D01*
X011189Y002187D02*
X012189Y002187D01*
X012689Y002187D02*
X012689Y004437D01*
X012689Y005187D01*
X012689Y004437D01*
X014689Y004437D01*
X014689Y002187D01*
X015189Y002187D01*
X015189Y002687D01*
X016189Y002687D01*
X016189Y002187D01*
X016689Y002187D01*
X016689Y004437D01*
X014689Y004437D01*
X014594Y005562D02*
X014894Y005862D01*
X014894Y005937D01*
X014819Y006012D01*
X014669Y006012D01*
X014594Y005937D01*
X014433Y005937D02*
X014358Y006012D01*
X014133Y006012D01*
X014133Y005562D01*
X014358Y005562D01*
X014433Y005637D01*
X014433Y005937D01*
X014594Y005562D02*
X014894Y005562D01*
X015054Y005562D02*
X015054Y005637D01*
X015354Y005937D01*
X015354Y006012D01*
X015054Y006012D01*
X016689Y005187D02*
X016689Y004437D01*
X018689Y004437D01*
X018689Y002187D01*
X019189Y002187D01*
X019189Y002687D01*
X020189Y002687D01*
X020189Y002187D01*
X020689Y002187D01*
X020689Y004437D01*
X018689Y004437D01*
X018189Y002687D02*
X018189Y002187D01*
X018689Y002187D01*
X019189Y002187D02*
X020189Y002187D01*
X020689Y002187D02*
X020689Y004437D01*
X020689Y005187D01*
X020689Y004437D01*
X022689Y004437D01*
X022689Y002187D01*
X023189Y002187D01*
X023189Y002687D01*
X024189Y002687D01*
X024189Y002187D01*
X024689Y002187D01*
X024689Y004437D01*
X022689Y004437D01*
X022744Y005562D02*
X022744Y006012D01*
X022594Y005862D01*
X022433Y005937D02*
X022358Y006012D01*
X022133Y006012D01*
X022133Y005562D01*
X022358Y005562D01*
X022433Y005637D01*
X022433Y005937D01*
X022594Y005562D02*
X022894Y005562D01*
X023054Y005637D02*
X023129Y005562D01*
X023279Y005562D01*
X023354Y005637D01*
X023354Y005937D01*
X023279Y006012D01*
X023129Y006012D01*
X023054Y005937D01*
X023054Y005862D01*
X023129Y005787D01*
X023354Y005787D01*
X024689Y005187D02*
X024689Y004437D01*
X026689Y004437D01*
X026189Y002687D02*
X026189Y002187D01*
X026689Y002187D01*
X026189Y002187D02*
X025189Y002187D01*
X025189Y002687D01*
X026189Y002687D01*
X025189Y002187D02*
X024689Y002187D01*
X024689Y004437D01*
X024689Y005187D01*
X026133Y006562D02*
X026133Y007012D01*
X026358Y007012D01*
X026433Y006937D01*
X026433Y006637D01*
X026358Y006562D01*
X026133Y006562D01*
X026594Y006562D02*
X026894Y006562D01*
X026744Y006562D02*
X026744Y007012D01*
X026594Y006862D01*
X027054Y006937D02*
X027054Y006637D01*
X027354Y006937D01*
X027354Y006637D01*
X027279Y006562D01*
X027129Y006562D01*
X027054Y006637D01*
X027054Y006937D02*
X027129Y007012D01*
X027279Y007012D01*
X027354Y006937D01*
X028689Y005187D02*
X028689Y004437D01*
X028689Y002187D01*
X029189Y002187D01*
X029189Y002687D01*
X030189Y002687D01*
X030189Y002187D01*
X030689Y002187D01*
X030189Y002187D02*
X029189Y002187D01*
X028189Y002187D02*
X027189Y002187D01*
X028689Y005187D02*
X032689Y005187D01*
X032689Y004437D01*
X034689Y004437D01*
X034689Y002187D01*
X035189Y002187D01*
X035189Y002687D01*
X036189Y002687D01*
X036189Y002187D01*
X036689Y002187D01*
X036689Y004437D01*
X034689Y004437D01*
X034189Y002687D02*
X034189Y002187D01*
X034689Y002187D01*
X034189Y002187D02*
X033189Y002187D01*
X033189Y002687D01*
X034189Y002687D01*
X033189Y002187D02*
X032689Y002187D01*
X032689Y004437D01*
X032689Y005187D01*
X036689Y005187D01*
X036689Y004437D01*
X036189Y002187D02*
X035189Y002187D01*
X035054Y006562D02*
X035354Y006862D01*
X035354Y006937D01*
X035279Y007012D01*
X035129Y007012D01*
X035054Y006937D01*
X034894Y006937D02*
X034819Y007012D01*
X034594Y007012D01*
X034594Y006562D01*
X034819Y006562D01*
X034894Y006637D01*
X034894Y006937D01*
X035054Y006562D02*
X035354Y006562D01*
X032189Y002187D02*
X031189Y002187D01*
X026600Y010362D02*
X026675Y010437D01*
X026675Y010737D01*
X026600Y010812D01*
X026450Y010812D01*
X026375Y010737D01*
X026375Y010662D01*
X026450Y010587D01*
X026675Y010587D01*
X026600Y010362D02*
X026450Y010362D01*
X026375Y010437D01*
X026215Y010437D02*
X026215Y010737D01*
X026139Y010812D01*
X025914Y010812D01*
X025914Y010362D01*
X026139Y010362D01*
X026215Y010437D01*
X026139Y012362D02*
X026215Y012437D01*
X026215Y012737D01*
X026139Y012812D01*
X025914Y012812D01*
X025914Y012362D01*
X026139Y012362D01*
X026133Y012562D02*
X026358Y012562D01*
X026433Y012637D01*
X026433Y012937D01*
X026358Y013012D01*
X026133Y013012D01*
X026133Y012562D01*
X026375Y012662D02*
X026525Y012812D01*
X026525Y012362D01*
X026375Y012362D02*
X026675Y012362D01*
X026835Y012362D02*
X027135Y012662D01*
X027135Y012737D01*
X027060Y012812D01*
X026910Y012812D01*
X026835Y012737D01*
X026894Y012562D02*
X026594Y012562D01*
X026744Y012562D02*
X026744Y013012D01*
X026594Y012862D01*
X027054Y012862D02*
X027204Y013012D01*
X027204Y012562D01*
X027054Y012562D02*
X027354Y012562D01*
X027135Y012362D02*
X026835Y012362D01*
X023354Y011937D02*
X023354Y011862D01*
X023279Y011787D01*
X023129Y011787D01*
X023054Y011862D01*
X023054Y011937D01*
X023129Y012012D01*
X023279Y012012D01*
X023354Y011937D01*
X023279Y011787D02*
X023354Y011712D01*
X023354Y011637D01*
X023279Y011562D01*
X023129Y011562D01*
X023054Y011637D01*
X023054Y011712D01*
X023129Y011787D01*
X023135Y011737D02*
X022835Y011437D01*
X022910Y011362D01*
X023060Y011362D01*
X023135Y011437D01*
X023135Y011737D01*
X023060Y011812D01*
X022910Y011812D01*
X022835Y011737D01*
X022835Y011437D01*
X022894Y011562D02*
X022594Y011562D01*
X022675Y011662D02*
X022675Y011737D01*
X022600Y011812D01*
X022450Y011812D01*
X022375Y011737D01*
X022433Y011637D02*
X022433Y011937D01*
X022358Y012012D01*
X022133Y012012D01*
X022133Y011562D01*
X022358Y011562D01*
X022433Y011637D01*
X022215Y011737D02*
X022139Y011812D01*
X021914Y011812D01*
X021914Y011362D01*
X022139Y011362D01*
X022215Y011437D01*
X022215Y011737D01*
X022594Y011862D02*
X022744Y012012D01*
X022744Y011562D01*
X022675Y011662D02*
X022375Y011362D01*
X022675Y011362D01*
X022525Y009812D02*
X022375Y009662D01*
X022215Y009737D02*
X022139Y009812D01*
X021914Y009812D01*
X021914Y009362D01*
X022139Y009362D01*
X022215Y009437D01*
X022215Y009737D01*
X022525Y009812D02*
X022525Y009362D01*
X022375Y009362D02*
X022675Y009362D01*
X022835Y009362D02*
X022835Y009437D01*
X023135Y009737D01*
X023135Y009812D01*
X022835Y009812D01*
X019135Y010437D02*
X019060Y010362D01*
X018910Y010362D01*
X018835Y010437D01*
X018675Y010362D02*
X018375Y010362D01*
X018525Y010362D02*
X018525Y010812D01*
X018375Y010662D01*
X018215Y010737D02*
X018215Y010437D01*
X018139Y010362D01*
X017914Y010362D01*
X017914Y010812D01*
X018139Y010812D01*
X018215Y010737D01*
X018835Y010737D02*
X018910Y010812D01*
X019060Y010812D01*
X019135Y010737D01*
X019135Y010662D01*
X019060Y010587D01*
X019135Y010512D01*
X019135Y010437D01*
X019060Y010587D02*
X018985Y010587D01*
X019060Y012362D02*
X019135Y012437D01*
X019135Y012512D01*
X019060Y012587D01*
X018835Y012587D01*
X018835Y012437D01*
X018910Y012362D01*
X019060Y012362D01*
X019129Y012562D02*
X019054Y012637D01*
X019129Y012562D02*
X019279Y012562D01*
X019354Y012637D01*
X019354Y012787D01*
X019279Y012862D01*
X019204Y012862D01*
X019054Y012787D01*
X019054Y013012D01*
X019354Y013012D01*
X019135Y012812D02*
X018985Y012737D01*
X018835Y012587D01*
X018894Y012562D02*
X018594Y012562D01*
X018744Y012562D02*
X018744Y013012D01*
X018594Y012862D01*
X018525Y012812D02*
X018525Y012362D01*
X018375Y012362D02*
X018675Y012362D01*
X018433Y012637D02*
X018433Y012937D01*
X018358Y013012D01*
X018133Y013012D01*
X018133Y012562D01*
X018358Y012562D01*
X018433Y012637D01*
X018375Y012662D02*
X018525Y012812D01*
X018215Y012737D02*
X018215Y012437D01*
X018139Y012362D01*
X017914Y012362D01*
X017914Y012812D01*
X018139Y012812D01*
X018215Y012737D01*
X015354Y012012D02*
X015204Y011937D01*
X015054Y011787D01*
X015279Y011787D01*
X015354Y011712D01*
X015354Y011637D01*
X015279Y011562D01*
X015129Y011562D01*
X015054Y011637D01*
X015054Y011787D01*
X015060Y011812D02*
X015135Y011737D01*
X015135Y011662D01*
X015060Y011587D01*
X014910Y011587D01*
X014835Y011662D01*
X014835Y011737D01*
X014910Y011812D01*
X015060Y011812D01*
X014894Y011862D02*
X014894Y011937D01*
X014819Y012012D01*
X014669Y012012D01*
X014594Y011937D01*
X014600Y011812D02*
X014450Y011812D01*
X014375Y011737D01*
X014433Y011637D02*
X014358Y011562D01*
X014133Y011562D01*
X014133Y012012D01*
X014358Y012012D01*
X014433Y011937D01*
X014433Y011637D01*
X014594Y011562D02*
X014894Y011862D01*
X014675Y011737D02*
X014600Y011812D01*
X014675Y011737D02*
X014675Y011662D01*
X014375Y011362D01*
X014675Y011362D01*
X014835Y011437D02*
X014835Y011512D01*
X014910Y011587D01*
X014894Y011562D02*
X014594Y011562D01*
X014835Y011437D02*
X014910Y011362D01*
X015060Y011362D01*
X015135Y011437D01*
X015135Y011512D01*
X015060Y011587D01*
X014215Y011437D02*
X014215Y011737D01*
X014139Y011812D01*
X013914Y011812D01*
X013914Y011362D01*
X014139Y011362D01*
X014215Y011437D01*
X014139Y009812D02*
X013914Y009812D01*
X013914Y009362D01*
X014139Y009362D01*
X014215Y009437D01*
X014215Y009737D01*
X014139Y009812D01*
X014375Y009737D02*
X014450Y009812D01*
X014600Y009812D01*
X014675Y009737D01*
X014675Y009662D01*
X014375Y009362D01*
X014675Y009362D01*
X014835Y009437D02*
X014910Y009362D01*
X015060Y009362D01*
X015135Y009437D01*
X015135Y009587D01*
X015060Y009662D01*
X014985Y009662D01*
X014835Y009587D01*
X014835Y009812D01*
X015135Y009812D01*
X018133Y007012D02*
X018133Y006562D01*
X018358Y006562D01*
X018433Y006637D01*
X018433Y006937D01*
X018358Y007012D01*
X018133Y007012D01*
X018594Y006862D02*
X018744Y007012D01*
X018744Y006562D01*
X018594Y006562D02*
X018894Y006562D01*
X019054Y006787D02*
X019354Y006787D01*
X019279Y006562D02*
X019279Y007012D01*
X019054Y006787D01*
X016689Y005187D02*
X016689Y004437D01*
X016689Y002187D01*
X017189Y002187D01*
X017189Y002687D01*
X018189Y002687D01*
X018189Y002187D02*
X017189Y002187D01*
X016189Y002187D02*
X015189Y002187D01*
X014689Y002187D02*
X014189Y002187D01*
X014189Y002687D01*
X013189Y002687D01*
X013189Y002187D01*
X014189Y002187D01*
X013189Y002187D02*
X012689Y002187D01*
X011279Y006562D02*
X011354Y006637D01*
X011354Y006712D01*
X011279Y006787D01*
X011054Y006787D01*
X011054Y006637D01*
X011129Y006562D01*
X011279Y006562D01*
X011054Y006787D02*
X011204Y006937D01*
X011354Y007012D01*
X010894Y006937D02*
X010894Y006637D01*
X010819Y006562D01*
X010594Y006562D01*
X010594Y007012D01*
X010819Y007012D01*
X010894Y006937D01*
X008689Y005187D02*
X008689Y004437D01*
X008689Y002187D01*
X009189Y002187D01*
X008189Y002187D02*
X007189Y002187D01*
X006689Y002187D02*
X006189Y002187D01*
X006189Y002687D01*
X005189Y002687D01*
X005189Y002187D01*
X006189Y002187D01*
X005189Y002187D02*
X004689Y002187D01*
X004689Y004437D01*
X003239Y009187D02*
X002089Y009237D01*
X001989Y009337D01*
X001989Y013037D01*
X002089Y013137D01*
X003239Y013187D01*
X002129Y012957D02*
X002131Y012977D01*
X002137Y012995D01*
X002146Y013013D01*
X002158Y013028D01*
X002173Y013040D01*
X002191Y013049D01*
X002209Y013055D01*
X002229Y013057D01*
X002249Y013055D01*
X002267Y013049D01*
X002285Y013040D01*
X002300Y013028D01*
X002312Y013013D01*
X002321Y012995D01*
X002327Y012977D01*
X002329Y012957D01*
X002327Y012937D01*
X002321Y012919D01*
X002312Y012901D01*
X002300Y012886D01*
X002285Y012874D01*
X002267Y012865D01*
X002249Y012859D01*
X002229Y012857D01*
X002209Y012859D01*
X002191Y012865D01*
X002173Y012874D01*
X002158Y012886D01*
X002146Y012901D01*
X002137Y012919D01*
X002131Y012937D01*
X002129Y012957D01*
X001784Y013052D02*
X001784Y012752D01*
X001484Y013052D01*
X001409Y013052D01*
X001334Y012977D01*
X001334Y012827D01*
X001409Y012752D01*
X001334Y012441D02*
X001784Y012441D01*
X001784Y012291D02*
X001784Y012591D01*
X001484Y012291D02*
X001334Y012441D01*
X001409Y012131D02*
X001334Y012056D01*
X001334Y011906D01*
X001409Y011831D01*
X001709Y011831D01*
X001784Y011906D01*
X001784Y012056D01*
X001709Y012131D01*
X001784Y011674D02*
X001784Y011524D01*
X001784Y011599D02*
X001334Y011599D01*
X001334Y011524D02*
X001334Y011674D01*
X004464Y015922D02*
X004464Y016372D01*
X004464Y015922D02*
X004765Y015922D01*
X004925Y015922D02*
X005225Y015922D01*
X005385Y015922D02*
X005610Y015922D01*
X005685Y015997D01*
X005685Y016297D01*
X005610Y016372D01*
X005385Y016372D01*
X005385Y015922D01*
X005075Y016147D02*
X004925Y016147D01*
X004925Y016372D02*
X004925Y015922D01*
X004925Y016372D02*
X005225Y016372D01*
X005845Y016297D02*
X005920Y016372D01*
X006071Y016372D01*
X006146Y016297D01*
X006146Y016222D01*
X005845Y015922D01*
X006146Y015922D01*
X006133Y012012D02*
X006358Y012012D01*
X006433Y011937D01*
X006433Y011637D01*
X006358Y011562D01*
X006133Y011562D01*
X006133Y012012D01*
X006139Y011812D02*
X005914Y011812D01*
X005914Y011362D01*
X006139Y011362D01*
X006215Y011437D01*
X006215Y011737D01*
X006139Y011812D01*
X006375Y011737D02*
X006450Y011812D01*
X006600Y011812D01*
X006675Y011737D01*
X006675Y011662D01*
X006375Y011362D01*
X006675Y011362D01*
X006594Y011562D02*
X006894Y011862D01*
X006894Y011937D01*
X006819Y012012D01*
X006669Y012012D01*
X006594Y011937D01*
X006594Y011562D02*
X006894Y011562D01*
X006835Y011587D02*
X007135Y011587D01*
X007054Y011562D02*
X007354Y011862D01*
X007354Y011937D01*
X007279Y012012D01*
X007129Y012012D01*
X007054Y011937D01*
X007060Y011812D02*
X006835Y011587D01*
X007054Y011562D02*
X007354Y011562D01*
X007060Y011362D02*
X007060Y011812D01*
X006985Y009812D02*
X006985Y009362D01*
X006835Y009362D02*
X007135Y009362D01*
X006835Y009662D02*
X006985Y009812D01*
X006675Y009737D02*
X006600Y009812D01*
X006450Y009812D01*
X006375Y009737D01*
X006215Y009737D02*
X006139Y009812D01*
X005914Y009812D01*
X005914Y009362D01*
X006139Y009362D01*
X006215Y009437D01*
X006215Y009737D01*
X006375Y009362D02*
X006675Y009662D01*
X006675Y009737D01*
X006675Y009362D02*
X006375Y009362D01*
X009914Y010362D02*
X010139Y010362D01*
X010215Y010437D01*
X010215Y010737D01*
X010139Y010812D01*
X009914Y010812D01*
X009914Y010362D01*
X010375Y010437D02*
X010450Y010362D01*
X010600Y010362D01*
X010675Y010437D01*
X010675Y010587D01*
X010600Y010662D01*
X010525Y010662D01*
X010375Y010587D01*
X010375Y010812D01*
X010675Y010812D01*
X010600Y012362D02*
X010450Y012362D01*
X010375Y012437D01*
X010375Y012512D01*
X010450Y012587D01*
X010600Y012587D01*
X010675Y012512D01*
X010675Y012437D01*
X010600Y012362D01*
X010594Y012562D02*
X010819Y012562D01*
X010894Y012637D01*
X010894Y012937D01*
X010819Y013012D01*
X010594Y013012D01*
X010594Y012562D01*
X010600Y012587D02*
X010675Y012662D01*
X010675Y012737D01*
X010600Y012812D01*
X010450Y012812D01*
X010375Y012737D01*
X010375Y012662D01*
X010450Y012587D01*
X010215Y012437D02*
X010215Y012737D01*
X010139Y012812D01*
X009914Y012812D01*
X009914Y012362D01*
X010139Y012362D01*
X010215Y012437D01*
X011054Y012562D02*
X011054Y012637D01*
X011354Y012937D01*
X011354Y013012D01*
X011054Y013012D01*
X015564Y024362D02*
X015714Y024362D01*
X015639Y024362D02*
X015639Y024812D01*
X015564Y024812D02*
X015714Y024812D01*
X015871Y024737D02*
X015871Y024437D01*
X015946Y024362D01*
X016096Y024362D01*
X016171Y024437D01*
X016332Y024437D02*
X016332Y024512D01*
X016407Y024587D01*
X016557Y024587D01*
X016632Y024512D01*
X016632Y024437D01*
X016557Y024362D01*
X016407Y024362D01*
X016332Y024437D01*
X016407Y024587D02*
X016332Y024662D01*
X016332Y024737D01*
X016407Y024812D01*
X016557Y024812D01*
X016632Y024737D01*
X016632Y024662D01*
X016557Y024587D01*
X016171Y024737D02*
X016096Y024812D01*
X015946Y024812D01*
X015871Y024737D01*
X012035Y025537D02*
X011960Y025462D01*
X011810Y025462D01*
X011735Y025537D01*
X011735Y025612D01*
X011810Y025687D01*
X011960Y025687D01*
X012035Y025612D01*
X012035Y025537D01*
X011960Y025687D02*
X012035Y025762D01*
X012035Y025837D01*
X011960Y025912D01*
X011810Y025912D01*
X011735Y025837D01*
X011735Y025762D01*
X011810Y025687D01*
X011575Y025462D02*
X011275Y025462D01*
X011425Y025462D02*
X011425Y025912D01*
X011275Y025762D01*
X011115Y025837D02*
X011039Y025912D01*
X010889Y025912D01*
X010814Y025837D01*
X010814Y025537D01*
X010889Y025462D01*
X011039Y025462D01*
X011115Y025537D01*
X020464Y021458D02*
X020464Y021308D01*
X020539Y021233D01*
X020614Y021233D01*
X020689Y021308D01*
X020689Y021533D01*
X020539Y021533D02*
X020464Y021458D01*
X020539Y021533D02*
X020839Y021533D01*
X020914Y021458D01*
X020914Y021308D01*
X020839Y021233D01*
X020914Y021073D02*
X020914Y020772D01*
X020914Y020923D02*
X020464Y020923D01*
X020614Y020772D01*
X020539Y020612D02*
X020464Y020537D01*
X020464Y020387D01*
X020539Y020312D01*
X020839Y020312D01*
X020914Y020387D01*
X020914Y020537D01*
X020839Y020612D01*
X023564Y024362D02*
X023714Y024362D01*
X023639Y024362D02*
X023639Y024812D01*
X023564Y024812D02*
X023714Y024812D01*
X023871Y024737D02*
X023871Y024437D01*
X023946Y024362D01*
X024096Y024362D01*
X024171Y024437D01*
X024332Y024437D02*
X024407Y024362D01*
X024557Y024362D01*
X024632Y024437D01*
X024632Y024737D01*
X024557Y024812D01*
X024407Y024812D01*
X024332Y024737D01*
X024332Y024662D01*
X024407Y024587D01*
X024632Y024587D01*
X024171Y024737D02*
X024096Y024812D01*
X023946Y024812D01*
X023871Y024737D01*
X028092Y035337D02*
X028167Y035337D01*
X028242Y035487D02*
X028167Y035562D01*
X028017Y035562D01*
X027942Y035487D01*
X033464Y035452D02*
X033464Y035152D01*
X033539Y034992D02*
X033464Y034916D01*
X033464Y034766D01*
X033539Y034691D01*
X033839Y034691D01*
X033914Y034766D01*
X033914Y034916D01*
X033839Y034992D01*
X033839Y035152D02*
X033914Y035152D01*
X033839Y035152D02*
X033539Y035452D01*
X033464Y035452D01*
X034539Y020533D02*
X034839Y020233D01*
X034914Y020308D01*
X034914Y020458D01*
X034839Y020533D01*
X034539Y020533D01*
X034464Y020458D01*
X034464Y020308D01*
X034539Y020233D01*
X034839Y020233D01*
X034914Y020073D02*
X034914Y019772D01*
X034614Y020073D01*
X034539Y020073D01*
X034464Y019998D01*
X034464Y019847D01*
X034539Y019772D01*
X034539Y019612D02*
X034464Y019537D01*
X034464Y019387D01*
X034539Y019312D01*
X034839Y019312D01*
X034914Y019387D01*
X034914Y019537D01*
X034839Y019612D01*
X024189Y002187D02*
X023189Y002187D01*
X022689Y002187D02*
X022189Y002187D01*
X022189Y002687D01*
X021189Y002687D01*
X021189Y002187D01*
X022189Y002187D01*
X021189Y002187D02*
X020689Y002187D01*
X002064Y019012D02*
X001614Y019012D01*
X001614Y019237D01*
X001689Y019312D01*
X001839Y019312D01*
X001914Y019237D01*
X001914Y019012D01*
X001914Y019162D02*
X002064Y019312D01*
X002064Y019472D02*
X001764Y019773D01*
X001689Y019773D01*
X001614Y019698D01*
X001614Y019547D01*
X001689Y019472D01*
X002064Y019472D02*
X002064Y019773D01*
X002064Y019933D02*
X002064Y020233D01*
X002064Y020083D02*
X001614Y020083D01*
X001764Y019933D01*
D14*
X002689Y018767D03*
X002689Y021607D03*
X019939Y049017D03*
X019939Y051857D03*
X025939Y051607D03*
X027189Y051607D03*
X028439Y051607D03*
X029689Y051607D03*
X030939Y051607D03*
X032189Y051607D03*
X033439Y051607D03*
X034689Y051607D03*
X034689Y048767D03*
X033439Y048767D03*
X032189Y048767D03*
X030939Y048767D03*
X029689Y048767D03*
X028439Y048767D03*
X027189Y048767D03*
X025939Y048767D03*
X037939Y056767D03*
X037939Y059607D03*
X034939Y028107D03*
X033689Y028107D03*
X033689Y025267D03*
X034939Y025267D03*
X028939Y024767D03*
X028939Y027607D03*
D15*
X037439Y050687D02*
X037385Y050644D01*
X037333Y050598D01*
X037284Y050549D01*
X037237Y050497D01*
X037194Y050443D01*
X037153Y050387D01*
X037116Y050328D01*
X037082Y050268D01*
X037052Y050205D01*
X037025Y050142D01*
X037001Y050076D01*
X036981Y050010D01*
X036965Y049942D01*
X036953Y049874D01*
X036945Y049805D01*
X036940Y049736D01*
X036939Y049666D01*
X036942Y049597D01*
X036949Y049528D01*
X036960Y049460D01*
X036974Y049392D01*
X036993Y049325D01*
X037015Y049259D01*
X037040Y049194D01*
X037069Y049131D01*
X037102Y049070D01*
X037138Y049011D01*
X037177Y048954D01*
X037219Y048898D01*
X037264Y048846D01*
X037312Y048796D01*
X037363Y048749D01*
X037417Y048704D01*
X037472Y048663D01*
X037530Y048625D01*
X037590Y048590D01*
X037652Y048558D01*
X037715Y048530D01*
X037780Y048506D01*
X037846Y048485D01*
X037914Y048468D01*
X037982Y048454D01*
X038051Y048445D01*
X038120Y048439D01*
X038189Y048437D01*
X038258Y048439D01*
X038327Y048445D01*
X038396Y048454D01*
X038464Y048468D01*
X038532Y048485D01*
X038598Y048506D01*
X038663Y048530D01*
X038726Y048558D01*
X038788Y048590D01*
X038848Y048625D01*
X038906Y048663D01*
X038961Y048704D01*
X039015Y048749D01*
X039066Y048796D01*
X039114Y048846D01*
X039159Y048898D01*
X039201Y048954D01*
X039240Y049011D01*
X039276Y049070D01*
X039309Y049131D01*
X039338Y049194D01*
X039363Y049259D01*
X039385Y049325D01*
X039404Y049392D01*
X039418Y049460D01*
X039429Y049528D01*
X039436Y049597D01*
X039439Y049666D01*
X039438Y049736D01*
X039433Y049805D01*
X039425Y049874D01*
X039413Y049942D01*
X039397Y050010D01*
X039377Y050076D01*
X039353Y050142D01*
X039326Y050205D01*
X039296Y050268D01*
X039262Y050328D01*
X039225Y050387D01*
X039184Y050443D01*
X039141Y050497D01*
X039094Y050549D01*
X039045Y050598D01*
X038993Y050644D01*
X038939Y050687D01*
X025039Y056387D02*
X025039Y056687D01*
X025039Y056987D01*
X024839Y056987D02*
X024839Y056687D01*
X024839Y056387D01*
X011539Y056437D02*
X011539Y056737D01*
X011339Y056737D02*
X011339Y056437D01*
X011339Y056137D01*
X011539Y056137D02*
X011539Y056437D01*
X009739Y050287D02*
X009439Y050287D01*
X009139Y050287D01*
X009139Y050087D02*
X009439Y050087D01*
X009739Y050087D01*
X006289Y050887D02*
X006289Y051187D01*
X006289Y051487D01*
X006089Y051487D02*
X006089Y051187D01*
X006089Y050887D01*
X004189Y016437D02*
X004146Y016491D01*
X004100Y016543D01*
X004051Y016592D01*
X003999Y016639D01*
X003945Y016682D01*
X003889Y016723D01*
X003830Y016760D01*
X003770Y016794D01*
X003707Y016824D01*
X003644Y016851D01*
X003578Y016875D01*
X003512Y016895D01*
X003444Y016911D01*
X003376Y016923D01*
X003307Y016931D01*
X003238Y016936D01*
X003168Y016937D01*
X003099Y016934D01*
X003030Y016927D01*
X002962Y016916D01*
X002894Y016902D01*
X002827Y016883D01*
X002761Y016861D01*
X002696Y016836D01*
X002633Y016807D01*
X002572Y016774D01*
X002513Y016738D01*
X002456Y016699D01*
X002400Y016657D01*
X002348Y016612D01*
X002298Y016564D01*
X002251Y016513D01*
X002206Y016459D01*
X002165Y016404D01*
X002127Y016346D01*
X002092Y016286D01*
X002060Y016224D01*
X002032Y016161D01*
X002008Y016096D01*
X001987Y016030D01*
X001970Y015962D01*
X001956Y015894D01*
X001947Y015825D01*
X001941Y015756D01*
X001939Y015687D01*
X001941Y015618D01*
X001947Y015549D01*
X001956Y015480D01*
X001970Y015412D01*
X001987Y015344D01*
X002008Y015278D01*
X002032Y015213D01*
X002060Y015150D01*
X002092Y015088D01*
X002127Y015028D01*
X002165Y014970D01*
X002206Y014915D01*
X002251Y014861D01*
X002298Y014810D01*
X002348Y014762D01*
X002400Y014717D01*
X002456Y014675D01*
X002513Y014636D01*
X002572Y014600D01*
X002633Y014567D01*
X002696Y014538D01*
X002761Y014513D01*
X002827Y014491D01*
X002894Y014472D01*
X002962Y014458D01*
X003030Y014447D01*
X003099Y014440D01*
X003168Y014437D01*
X003238Y014438D01*
X003307Y014443D01*
X003376Y014451D01*
X003444Y014463D01*
X003512Y014479D01*
X003578Y014499D01*
X003644Y014523D01*
X003707Y014550D01*
X003770Y014580D01*
X003830Y014614D01*
X003889Y014651D01*
X003945Y014692D01*
X003999Y014735D01*
X004051Y014782D01*
X004100Y014831D01*
X004146Y014883D01*
X004189Y014937D01*
D16*
X013019Y036937D03*
X015859Y036937D03*
X017519Y041437D03*
X017519Y042937D03*
X017519Y044187D03*
X020359Y044187D03*
X020359Y042937D03*
X020359Y041437D03*
X024019Y038437D03*
X026859Y038437D03*
X034769Y046937D03*
X037609Y046937D03*
D17*
X033039Y038387D02*
X030339Y038387D01*
X030288Y038385D01*
X030237Y038380D01*
X030187Y038370D01*
X030137Y038357D01*
X030089Y038341D01*
X030042Y038321D01*
X029996Y038297D01*
X029953Y038271D01*
X029911Y038241D01*
X029872Y038208D01*
X029835Y038173D01*
X029801Y038135D01*
X029770Y038094D01*
X029741Y038052D01*
X029716Y038007D01*
X029695Y037961D01*
X029676Y037913D01*
X029662Y037864D01*
X029651Y037814D01*
X029643Y037764D01*
X029639Y037713D01*
X029639Y037661D01*
X029643Y037610D01*
X029651Y037560D01*
X029662Y037510D01*
X029676Y037461D01*
X029695Y037413D01*
X029716Y037367D01*
X029741Y037322D01*
X029770Y037280D01*
X029801Y037239D01*
X029835Y037201D01*
X029872Y037166D01*
X029911Y037133D01*
X029953Y037103D01*
X029996Y037077D01*
X030042Y037053D01*
X030089Y037033D01*
X030137Y037017D01*
X030187Y037004D01*
X030237Y036994D01*
X030288Y036989D01*
X030339Y036987D01*
X033039Y036987D01*
X033090Y036989D01*
X033141Y036994D01*
X033191Y037004D01*
X033241Y037017D01*
X033289Y037033D01*
X033336Y037053D01*
X033382Y037077D01*
X033425Y037103D01*
X033467Y037133D01*
X033506Y037166D01*
X033543Y037201D01*
X033577Y037239D01*
X033608Y037280D01*
X033637Y037322D01*
X033662Y037367D01*
X033683Y037413D01*
X033702Y037461D01*
X033716Y037510D01*
X033727Y037560D01*
X033735Y037610D01*
X033739Y037661D01*
X033739Y037713D01*
X033735Y037764D01*
X033727Y037814D01*
X033716Y037864D01*
X033702Y037913D01*
X033683Y037961D01*
X033662Y038007D01*
X033637Y038052D01*
X033608Y038094D01*
X033577Y038135D01*
X033543Y038173D01*
X033506Y038208D01*
X033467Y038241D01*
X033425Y038271D01*
X033382Y038297D01*
X033336Y038321D01*
X033289Y038341D01*
X033241Y038357D01*
X033191Y038370D01*
X033141Y038380D01*
X033090Y038385D01*
X033039Y038387D01*
X026809Y034937D02*
X026809Y032937D01*
X024239Y049937D02*
X024139Y049937D01*
X024139Y050937D01*
X024239Y050937D01*
X021939Y050937D02*
X021939Y049987D01*
X021839Y049987D01*
X021839Y050937D02*
X021939Y050937D01*
D18*
X030439Y034307D02*
X030689Y034307D01*
X030939Y034307D01*
X030939Y034057D02*
X030689Y034057D01*
X030439Y034057D01*
X031569Y031437D02*
X031569Y031187D01*
X031569Y030937D01*
X031819Y030937D02*
X031819Y031187D01*
X031819Y031437D01*
X032439Y034057D02*
X032689Y034057D01*
X032939Y034057D01*
X032939Y034307D02*
X032689Y034307D01*
X032439Y034307D01*
X030939Y026557D02*
X030689Y026557D01*
X030439Y026557D01*
X030439Y026307D02*
X030689Y026307D01*
X030939Y026307D01*
X035439Y020817D02*
X035689Y020817D01*
X035939Y020817D01*
X035939Y020567D02*
X035689Y020567D01*
X035439Y020567D01*
X023189Y033067D02*
X022939Y033067D01*
X022689Y033067D01*
X022689Y033317D02*
X022939Y033317D01*
X023189Y033317D01*
X021939Y021817D02*
X021689Y021817D01*
X021439Y021817D01*
X021439Y021567D02*
X021689Y021567D01*
X021939Y021567D01*
X012319Y024437D02*
X012319Y024687D01*
X012319Y024937D01*
X012069Y024937D02*
X012069Y024687D01*
X012069Y024437D01*
X004809Y024437D02*
X004809Y024687D01*
X004809Y024937D01*
X004559Y024937D02*
X004559Y024687D01*
X004559Y024437D01*
X006069Y038687D02*
X006069Y038937D01*
X006069Y039187D01*
X006319Y039187D02*
X006319Y038937D01*
X006319Y038687D01*
X006309Y042687D02*
X006309Y042937D01*
X006309Y043187D01*
X006059Y043187D02*
X006059Y042937D01*
X006059Y042687D01*
X038189Y044317D02*
X038439Y044317D01*
X038689Y044317D01*
X038689Y044567D02*
X038439Y044567D01*
X038189Y044567D01*
D19*
X038939Y050687D02*
X037439Y050687D01*
X004189Y016437D02*
X004189Y014937D01*
D20*
X013224Y028472D02*
X013224Y028682D01*
X013224Y028577D02*
X013854Y028577D01*
X013854Y028472D02*
X013854Y028682D01*
X013749Y028902D02*
X013854Y029007D01*
X013854Y029217D01*
X013749Y029322D01*
X013749Y029546D02*
X013854Y029651D01*
X013854Y029862D01*
X013749Y029967D01*
X013644Y029967D01*
X013539Y029862D01*
X013539Y029546D01*
X013749Y029546D01*
X013539Y029546D02*
X013329Y029756D01*
X013224Y029967D01*
X013329Y029322D02*
X013224Y029217D01*
X013224Y029007D01*
X013329Y028902D01*
X013749Y028902D01*
D21*
X011239Y013693D03*
X010139Y011681D03*
X010139Y009681D03*
X011239Y007693D03*
X014139Y008681D03*
X014139Y010681D03*
X015239Y012693D03*
X018139Y011681D03*
X018139Y009681D03*
X019239Y007693D03*
X022139Y008681D03*
X022139Y010681D03*
X023239Y012693D03*
X026139Y011681D03*
X026139Y009681D03*
X027239Y007693D03*
X030139Y008681D03*
X030139Y010681D03*
X031239Y012693D03*
X034139Y011681D03*
X034139Y009681D03*
X035239Y007693D03*
X035239Y013693D03*
X031239Y006693D03*
X027239Y013693D03*
X023239Y006693D03*
X019239Y013693D03*
X015239Y006693D03*
X007239Y006693D03*
X006139Y008681D03*
X006139Y010681D03*
X007239Y012693D03*
D22*
X007634Y012687D03*
X007634Y010687D03*
X007634Y008687D03*
X007634Y006687D03*
X009745Y007687D03*
X009745Y009687D03*
X009745Y011687D03*
X009745Y013687D03*
X011634Y013687D03*
X011634Y011687D03*
X011634Y009687D03*
X011634Y007687D03*
X013745Y006687D03*
X013745Y008687D03*
X013745Y010687D03*
X013745Y012687D03*
X015634Y012687D03*
X015634Y010687D03*
X015634Y008687D03*
X015634Y006687D03*
X017745Y007687D03*
X017745Y009687D03*
X017745Y011687D03*
X017745Y013687D03*
X019634Y013687D03*
X019634Y011687D03*
X019634Y009687D03*
X019634Y007687D03*
X021745Y006687D03*
X021745Y008687D03*
X021745Y010687D03*
X021745Y012687D03*
X023634Y012687D03*
X023634Y010687D03*
X023634Y008687D03*
X023634Y006687D03*
X025745Y007687D03*
X025745Y009687D03*
X025745Y011687D03*
X025745Y013687D03*
X027634Y013687D03*
X027634Y011687D03*
X027634Y009687D03*
X027634Y007687D03*
X029745Y006687D03*
X029745Y008687D03*
X029745Y010687D03*
X029745Y012687D03*
X031634Y012687D03*
X031634Y010687D03*
X031634Y008687D03*
X031634Y006687D03*
X033745Y007687D03*
X033745Y009687D03*
X033745Y011687D03*
X033745Y013687D03*
X035634Y013687D03*
X035634Y011687D03*
X035634Y009687D03*
X035634Y007687D03*
X005745Y006687D03*
X005745Y008687D03*
X005745Y010687D03*
X005745Y012687D03*
D23*
X003539Y011187D03*
X037589Y021937D03*
D24*
X037839Y020212D03*
X037839Y023662D03*
X003289Y012912D03*
X003289Y009462D03*
D25*
X003289Y010687D03*
X003289Y011687D03*
X037839Y021437D03*
X037839Y022437D03*
D26*
X008239Y035937D03*
D27*
X008864Y035937D03*
X006514Y035937D03*
D28*
X009264Y041937D03*
X011614Y041937D03*
D29*
X011939Y041212D03*
X008939Y041212D03*
M02*
